<svg xmlns="http://www.w3.org/2000/svg" xmlns:xlink="http://www.w3.org/1999/xlink" xmlns:lucid="lucid" width="1298" height="934"><g transform="translate(0 -25)" lucid:page-tab-id="VEIgQlZdAWE7"><path d="M0 0h1356.4v959.57H0z" fill="#fff"/><path d="M427.65 359.3c0-2.75 2.24-5 5-5h150c2.76 0 5 2.25 5 5v110c0 2.77-2.24 5-5 5h-150c-2.76 0-5-2.23-5-5z" stroke="#000" stroke-width="2" fill="#666"/><use xlink:href="#a" transform="matrix(1,0,0,1,435.6525312231628,362.3132929592124) translate(41.025 55.6)"/><path d="M860 570.28c0-2.76 1.94-6.13 4.32-7.52l71.36-41.5c2.38-1.38 6.26-1.38 8.64 0l71.36 41.5c2.38 1.4 4.32 4.76 4.32 7.52v63.48c0 2.76-2.24 5-5 5H865c-2.76 0-5-2.24-5-5z" stroke="#000" stroke-width="2" fill="#fff"/><use xlink:href="#b" transform="matrix(1,0,0,1,860,518.7597057139023) translate(39 63.6)"/><path d="M876.06 552.42l-.7 1.88-42.07-15.7v-2.12zm-205.72-76.67v2.13l-81.1-30.23.7-1.87z"/><path d="M589.96 445.8l-.7 1.86-.6-.23v-2.13zM877.42 554l-21.35 3.82-.36-1.97 18.04-3.23-11.52-14.24 1.56-1.25z"/><use xlink:href="#c" transform="matrix(1,0,0,1,670.3402952911628,453.1803276506893) translate(81.47999999999999 14.4)"/><use xlink:href="#d" transform="matrix(1,0,0,1,670.3402952911628,453.1803276506893) translate(26.529999999999987 36)"/><use xlink:href="#e" transform="matrix(1,0,0,1,670.3402952911628,453.1803276506893) translate(116.42999999999999 36)"/><use xlink:href="#f" transform="matrix(1,0,0,1,670.3402952911628,453.1803276506893) translate(18.054999999999986 57.6)"/><use xlink:href="#g" transform="matrix(1,0,0,1,670.3402952911628,453.1803276506893) translate(124.905 57.6)"/><use xlink:href="#h" transform="matrix(1,0,0,1,670.3402952911628,453.1803276506893) translate(0.0049999999999954525 79.20000000000002)"/><use xlink:href="#g" transform="matrix(1,0,0,1,670.3402952911628,453.1803276506893) translate(142.95499999999998 79.20000000000002)"/><use xlink:href="#i" transform="matrix(1,0,0,1,670.3402952911628,453.1803276506893) translate(81.47999999999999 100.80000000000001)"/><path d="M860 269.87h160v40H860z" stroke="#000" fill="#fff"/><use xlink:href="#j" transform="matrix(1,0,0,1,865,274.86688020452243) translate(36.55 18.6)"/><path d="M683.13 349.36l-93.2 30.88-.64-1.9 93.83-31.1zM858.1 291.4l-34.12 11.3v-2.12l33.48-11.1z"/><path d="M589.94 380.23l-1.3.43v-2.1l.67-.23zM859.5 289.87l-14.25 16.35-1.5-1.3 12.02-13.82-17.9-3.9.43-1.94z"/><use xlink:href="#k" transform="matrix(1,0,0,1,683.1281334895032,292.56884024328576) translate(29.480000000000004 14.4)"/><use xlink:href="#e" transform="matrix(1,0,0,1,683.1281334895032,292.56884024328576) translate(91.38000000000001 14.4)"/><use xlink:href="#l" transform="matrix(1,0,0,1,683.1281334895032,292.56884024328576) translate(0.0049999999999954525 36)"/><use xlink:href="#e" transform="matrix(1,0,0,1,683.1281334895032,292.56884024328576) translate(120.855 36)"/><use xlink:href="#m" transform="matrix(1,0,0,1,683.1281334895032,292.56884024328576) translate(9.530000000000001 57.6)"/><use xlink:href="#n" transform="matrix(1,0,0,1,683.1281334895032,292.56884024328576) translate(111.33000000000001 57.6)"/><path d="M672.1 70.42c0-2.76 2.24-5 5-5h150c2.76 0 5 2.24 5 5v110c0 2.76-2.24 5-5 5h-150c-2.76 0-5-2.24-5-5z" stroke="#000" stroke-width="2" fill="#666"/><use xlink:href="#o" transform="matrix(1,0,0,1,680.098943977813,73.42046744983247) translate(33.55 34)"/><use xlink:href="#p" transform="matrix(1,0,0,1,680.098943977813,73.42046744983247) translate(94.5 34)"/><use xlink:href="#q" transform="matrix(1,0,0,1,680.098943977813,73.42046744983247) translate(13.074999999999996 55.6)"/><use xlink:href="#r" transform="matrix(1,0,0,1,680.098943977813,73.42046744983247) translate(114.975 55.6)"/><use xlink:href="#s" transform="matrix(1,0,0,1,680.098943977813,73.42046744983247) translate(46.55 77.2)"/><path d="M1103.2 687.76c0-2.76 2.24-5 5-5h150c2.77 0 5 2.24 5 5v30c0 2.76-2.23 5-5 5h-150c-2.76 0-5-2.24-5-5z" stroke="#000" stroke-opacity="0" stroke-width="2" fill="#fff" fill-opacity="0"/><use xlink:href="#t" transform="matrix(1,0,0,1,1108.2061184685126,687.7597057138624) translate(0 22.799999999999997)"/><path d="M1103.2 370.87c0-2.76 2.24-5 5-5h150c2.77 0 5 2.24 5 5v110c0 2.76-2.23 5-5 5h-150c-2.76 0-5-2.24-5-5z" stroke="#000" stroke-width="2" fill="#b2b2b2"/><use xlink:href="#u" transform="matrix(1,0,0,1,1111.2061184685126,373.87278513517924) translate(51 44.8)"/><use xlink:href="#v" transform="matrix(1,0,0,1,1111.2061184685126,373.87278513517924) translate(38.525 66.4)"/><path d="M1103.2 228.2c0-2.76 2.24-5 5-5h150c2.77 0 5 2.24 5 5v110c0 2.77-2.23 5-5 5h-150c-2.76 0-5-2.23-5-5z" stroke="#000" stroke-width="2" fill="#666"/><use xlink:href="#w" transform="matrix(1,0,0,1,1111.2061184685126,231.2061184685126) translate(27.049999999999997 55.6)"/><use xlink:href="#x" transform="matrix(1,0,0,1,1111.2061184685126,231.2061184685126) translate(72.05 55.6)"/><path d="M1083.2 28.2c0-2.76 2.24-5 5-5h190c2.77 0 5 2.24 5 5v50c0 2.77-2.23 5-5 5h-190c-2.76 0-5-2.23-5-5z" stroke="#000" stroke-opacity="0" stroke-width="2" fill="#fff" fill-opacity="0"/><use xlink:href="#y" transform="matrix(1,0,0,1,1088.2061184685126,28.206118468512642) translate(0 28.6)"/><use xlink:href="#z" transform="matrix(1,0,0,1,1088.2061184685126,28.206118468512642) translate(72.80000000000001 28.6)"/><use xlink:href="#A" transform="matrix(1,0,0,1,1088.2061184685126,28.206118468512642) translate(143.70000000000002 28.6)"/><path d="M1103.2 85.54c0-2.76 2.24-5 5-5h150c2.77 0 5 2.24 5 5v110c0 2.76-2.23 5-5 5h-150c-2.76 0-5-2.24-5-5z" stroke="#000" stroke-width="2" fill="#fff"/><use xlink:href="#B" transform="matrix(1,0,0,1,1111.2061184685126,88.53945180184601) translate(33.599999999999994 44.8)"/><use xlink:href="#C" transform="matrix(1,0,0,1,1111.2061184685126,88.53945180184601) translate(5.099999999999994 66.4)"/><use xlink:href="#D" transform="matrix(1,0,0,1,1111.2061184685126,88.53945180184601) translate(92 66.4)"/><path d="M1104.2 683.2h117.2M1104.23 683.2h-1.02M1204.03 693.4l17.2-10.2-17.2-10.17" stroke="#000" stroke-width="2" fill="none"/><path d="M1103.2 560.06c0-2.76 1.94-6.13 4.33-7.52l71.35-41.5c2.4-1.38 6.26-1.38 8.65 0l71.35 41.5c2.4 1.4 4.33 4.76 4.33 7.52v63.48c0 2.76-2.23 5-5 5h-150c-2.76 0-5-2.24-5-5z" stroke="#000" stroke-width="2" fill="#fff"/><use xlink:href="#E" transform="matrix(1,0,0,1,1103.2061184685126,508.5394518018459) translate(60.025 52.8)"/><use xlink:href="#F" transform="matrix(1,0,0,1,1103.2061184685126,508.5394518018459) translate(56.5 74.4)"/><path d="M556.96 353.43l-1.3-1.53 114.53-97.25h3.08zm194.4-165.07l-52.64 44.7h-3.1l54.45-46.22z"/><path d="M556.9 353.3H554l1.68-1.4zM745 206.92l-1.88-.65 5.98-17.3-18.04 3.1-.34-1.98 21.38-3.68z"/><use xlink:href="#G" transform="matrix(1,0,0,1,599.033670694877,233.0542372873336) translate(0.0049999999999954525 14.4)"/><use xlink:href="#H" transform="matrix(1,0,0,1,599.033670694877,233.0542372873336) translate(130.85500000000002 14.4)"/><path d="M1103.2 763.76c0-2.76 2.24-5 5-5h150c2.77 0 5 2.24 5 5v30c0 2.76-2.23 5-5 5h-150c-2.76 0-5-2.24-5-5z" stroke="#000" stroke-opacity="0" stroke-width="2" fill="#fff" fill-opacity="0"/><use xlink:href="#I" transform="matrix(1,0,0,1,1108.2061184685126,763.7597057138624) translate(0 22.799999999999997)"/><path d="M1104.2 759.2h100.5M1104.23 759.2h-1.02" stroke="#000" stroke-width="2" fill="none"/><path d="M1219.97 759.2l-14.27 4.64v-9.27z" stroke="#000" stroke-width="2" fill="#fff"/><path d="M860 394.3h160v40H860z" stroke="#000" fill="#fff"/><use xlink:href="#J" transform="matrix(1,0,0,1,865,399.3132929592124) translate(41 18.6)"/><path d="M687.05 415.3h-97.4v-2h97.4zm170.63 0H808.9v-2h48.78z"/><path d="M589.68 415.3h-1.03v-2h1.03zM859.5 414.3l-18.67 11.05-1.02-1.72 15.77-9.32-15.76-9.3 1.03-1.73z"/><use xlink:href="#K" transform="matrix(1,0,0,1,687.0515179164811,381.9132929592124) translate(3.9550000000000054 14.4)"/><use xlink:href="#e" transform="matrix(1,0,0,1,687.0515179164811,381.9132929592124) translate(97.905 14.4)"/><use xlink:href="#L" transform="matrix(1,0,0,1,687.0515179164811,381.9132929592124) translate(7.955000000000005 36)"/><use xlink:href="#e" transform="matrix(1,0,0,1,687.0515179164811,381.9132929592124) translate(93.905 36)"/><use xlink:href="#M" transform="matrix(1,0,0,1,687.0515179164811,381.9132929592124) translate(0.005000000000002558 57.6)"/><use xlink:href="#n" transform="matrix(1,0,0,1,687.0515179164811,381.9132929592124) translate(101.85500000000002 57.6)"/><path d="M427.65 70.42c0-2.76 2.24-5 5-5h150c2.76 0 5 2.24 5 5v110c0 2.76-2.24 5-5 5h-150c-2.76 0-5-2.24-5-5z" stroke="#000" stroke-width="2" fill="#fff"/><use xlink:href="#N" transform="matrix(1,0,0,1,435.6525312231628,73.42046744983247) translate(21.525 55.6)"/><path d="M507.65 352.3V204.93" stroke="#000" stroke-width="2" fill="none"/><path d="M508.65 353.3h-2v-1h2z"/><path d="M507.65 189.66l4.64 14.26H503zM23.2 506.42c0-2.76 2.24-5 5-5h150c2.77 0 5 2.24 5 5v110c0 2.76-2.23 5-5 5h-150c-2.76 0-5-2.24-5-5z" stroke="#000" stroke-width="2" fill="#fff"/><use xlink:href="#O" transform="matrix(1,0,0,1,31.206118468512642,509.42046744991217) translate(7.625 55.6)"/><path d="M186.28 561.53l-.88-1.8 95.52-46.43h4.58zm239.9-116.6l-96.24 46.77h-4.58l99.96-48.58z"/><path d="M426.65 444.7l-.48.23-.88-1.8 1.35-.66zM197.84 544.43l-10.1 15.27 18.25 1.5-.18 2-21.6-1.78 11.95-18.1z"/><use xlink:href="#P" transform="matrix(1,0,0,1,230.0293248458377,491.70102490526074) translate(0.0049999999999954525 14.4)"/><use xlink:href="#Q" transform="matrix(1,0,0,1,230.0293248458377,491.70102490526074) translate(130.805 14.4)"/><path d="M23.2 690.3h160v40h-160z" stroke="#000" fill="#fff"/><use xlink:href="#R" transform="matrix(1,0,0,1,28.206118468512642,695.3132929592133) translate(26.049999999999997 18.6)"/><path d="M104.2 688h-2v-25.46h2zm0-47.06h-2v-17.52h2z"/><path d="M104.2 623.45h-2v-1.03h2zM114.25 671.14L103.2 689.8l-11.04-18.66 1.73-1.02 9.3 15.76 9.33-15.76z"/><use xlink:href="#S" transform="matrix(1,0,0,1,27.30611846851265,640.9393802638366) translate(0 14.4)"/><path d="M508.65 667.05h-2V593.7h2zm0-116.56h-2v-74.2h2z"/><path d="M508.65 476.34h-2v-1.03h2zM518.7 650.2l-11.05 18.67-11.04-18.67 1.73-1.02 9.32 15.76 9.32-15.76z"/><use xlink:href="#T" transform="matrix(1,0,0,1,461.05253122316276,550.4900865818873) translate(27.155000000000012 14.4)"/><use xlink:href="#U" transform="matrix(1,0,0,1,461.05253122316276,550.4900865818873) translate(0.005000000000002558 36)"/><use xlink:href="#Q" transform="matrix(1,0,0,1,461.05253122316276,550.4900865818873) translate(73.20500000000001 36)"/><path d="M384.9 895.46l-1.3-1.53 18-15.15h3.1zm122.63-103.18l-51.47 43.3h-3.1l53.28-44.83z"/><path d="M507.5 792.3l-1.2-1.43h2.9zM385.86 893.34l18.06-3.02.33 1.98-21.4 3.57 6-17.1h2.1z"/><use xlink:href="#V" transform="matrix(1,0,0,1,356.30753764795145,835.5814021234164) translate(0.0049999999999954525 14.4)"/><use xlink:href="#W" transform="matrix(1,0,0,1,356.30753764795145,835.5814021234164) translate(8.604999999999997 36)"/><path d="M302.85 896.37h160v40h-160z" stroke="#000" fill="#fff"/><use xlink:href="#X" transform="matrix(1,0,0,1,307.85182263148874,901.3668802044849) translate(21.4 18.6)"/><path d="M550.85 896.37h160v40h-160z" stroke="#000" fill="#fff"/><use xlink:href="#X" transform="matrix(1,0,0,1,555.8518226314887,901.3668802044849) translate(21.4 18.6)"/><path d="M630.12 893.93l-1.3 1.52-19.68-16.77h3.1zm-68.58-58.45h-3.08l-50.7-43.2 1.3-1.53z"/><path d="M507.78 792.3l-1.67-1.43h2.9zM630.85 895.87l-21.37-3.7.34-1.98 18.04 3.12-5.03-14.64h2.12z"/><use xlink:href="#Y" transform="matrix(1,0,0,1,515.7911994304047,835.4791941595035) translate(0.0049999999999954525 14.4)"/><use xlink:href="#Z" transform="matrix(1,0,0,1,515.7911994304047,835.4791941595035) translate(26.12999999999999 36)"/><path d="M307.38 668.16l-1.5-1.32 34.66-39.38h2.66zm168.5-191.44L362.22 605.86h-2.67L474.37 475.4z"/><path d="M475.86 476.74l-1.5-1.32.1-.1h2.66zM311.44 647.93l-3.4 18 17.4-5.68.6 1.9-20.6 6.72 4.04-21.3z"/><g><use xlink:href="#aa" transform="matrix(1,0,0,1,282.45244427818375,605.8621821625336) translate(0.0049999999999954525 14.4)"/><use xlink:href="#Q" transform="matrix(1,0,0,1,282.45244427818375,605.8621821625336) translate(117.855 14.4)"/></g><path d="M225.43 674.87c0-2.76 2.24-5 5-5h150c2.76 0 5 2.24 5 5v110c0 2.76-2.24 5-5 5h-150c-2.76 0-5-2.24-5-5z" stroke="#000" stroke-width="2" fill="#fff"/><g><use xlink:href="#ab" transform="matrix(1,0,0,1,233.4293248458377,677.8668802045622) translate(23.525 55.6)"/></g><path d="M427.65 674.87c0-2.76 2.24-5 5-5h150c2.76 0 5 2.24 5 5v110c0 2.76-2.24 5-5 5h-150c-2.76 0-5-2.24-5-5z" stroke="#000" stroke-width="2" fill="#fff"/><g><use xlink:href="#T" transform="matrix(1,0,0,1,435.6525312231628,677.8668802045622) translate(52.55 44.8)"/><use xlink:href="#ac" transform="matrix(1,0,0,1,435.6525312231628,677.8668802045622) translate(15.599999999999994 66.4)"/></g><path d="M709.46 666.83l-1.52 1.3-35.98-42.2h2.63zm-53.28-62.5h-2.63l-108.78-127.6 1.52-1.3z"/><path d="M546.3 475.45l-1.5 1.3-1.23-1.44h2.63zM709.88 668.87l-20.52-7.05.65-1.9 17.33 5.96-3.13-18.04 1.97-.34z"/><g><use xlink:href="#ad" transform="matrix(1,0,0,1,602.121335454075,604.3336360287625) translate(0.010000000000005116 14.4)"/><use xlink:href="#Q" transform="matrix(1,0,0,1,602.121335454075,604.3336360287625) translate(103.91000000000001 14.4)"/></g><path d="M629.88 674.87c0-2.76 2.23-5 5-5h150c2.76 0 5 2.24 5 5v110c0 2.76-2.24 5-5 5h-150c-2.77 0-5-2.24-5-5z" stroke="#000" stroke-width="2" fill="#fff"/><g><use xlink:href="#ae" transform="matrix(1,0,0,1,637.8757376004878,677.8668802045622) translate(13.549999999999997 55.6)"/></g><path d="M426.17 378.28l-.85 1.8-98.97-45.88h4.75zM284.5 312.6h-4.74l-94.32-43.72.84-1.82z"/><path d="M426.65 378.5v2.2l-1.35-.62.84-1.82zM206 267.03l-18.23 1.83 10.38 15.08-1.65 1.14-12.3-17.87 21.6-2.16z"/><g><use xlink:href="#af" transform="matrix(1,0,0,1,239.9543248458377,312.6046362561818) translate(0.0049999999999954525 14.4)"/><use xlink:href="#ag" transform="matrix(1,0,0,1,239.9543248458377,312.6046362561818) translate(93.955 14.4)"/></g><path d="M23.2 359.3c0-2.75 2.24-5 5-5h150c2.77 0 5 2.25 5 5v110c0 2.77-2.23 5-5 5h-150c-2.76 0-5-2.23-5-5z" stroke="#000" stroke-width="2" fill="#b2b2b2"/><g><use xlink:href="#ah" transform="matrix(1,0,0,1,31.206118468512642,362.3132929592124) translate(15.049999999999997 55.6)"/><use xlink:href="#ai" transform="matrix(1,0,0,1,31.206118468512642,362.3132929592124) translate(78.05 55.6)"/></g><path d="M223.48 415.3h-37.46v-2h37.46zm202.17 0h-38.27v-2h38.27z"/><path d="M426.65 415.3h-1.02v-2h1.02zM203.9 405l-15.76 9.3 15.75 9.33-1.02 1.72-18.67-11.04 18.68-11.03z"/><g><use xlink:href="#aj" transform="matrix(1,0,0,1,223.4793248458377,403.51329295921244) translate(0.0049999999999954525 14.4)"/><use xlink:href="#ak" transform="matrix(1,0,0,1,223.4793248458377,403.51329295921244) translate(34.004999999999995 14.4)"/><use xlink:href="#al" transform="matrix(1,0,0,1,223.4793248458377,403.51329295921244) translate(95.005 14.4)"/><use xlink:href="#Q" transform="matrix(1,0,0,1,223.4793248458377,403.51329295921244) translate(143.905 14.4)"/></g><path d="M23.2 212.2c0-2.76 2.24-5 5-5h150c2.77 0 5 2.24 5 5v110c0 2.77-2.23 5-5 5h-150c-2.76 0-5-2.23-5-5z" stroke="#000" stroke-width="2" fill="#b2b2b2"/><g><use xlink:href="#am" transform="matrix(1,0,0,1,31.206118468512642,215.2061184685126) translate(24.549999999999997 55.6)"/></g><path d="M183.2 70.42c0-2.76 2.24-5 5-5h150c2.77 0 5 2.24 5 5v110c0 2.76-2.23 5-5 5h-150c-2.76 0-5-2.24-5-5z" stroke="#000" stroke-width="2" fill="#b2b2b2"/><g><use xlink:href="#an" transform="matrix(1,0,0,1,191.20611846851264,73.42046744983247) translate(16.049999999999997 44.8)"/><use xlink:href="#ao" transform="matrix(1,0,0,1,191.20611846851264,73.42046744983247) translate(64 44.8)"/><use xlink:href="#ap" transform="matrix(1,0,0,1,191.20611846851264,73.42046744983247) translate(14.074999999999996 66.4)"/><use xlink:href="#aq" transform="matrix(1,0,0,1,191.20611846851264,73.42046744983247) translate(57.025 66.4)"/></g><path d="M464.1 351.9l-1.27 1.54-114.48-95.04h3.13zM325.47 236.8h-3.13l-58.36-48.45 1.27-1.54z"/><path d="M465.8 353.3h-2.9l1.2-1.4zM284.62 189.85l-.3 1.98-18.1-2.9 6.18 17.24-1.88.67-7.3-20.42z"/><g><use xlink:href="#aj" transform="matrix(1,0,0,1,225.45640891231983,236.8039045792878) translate(0.0049999999999954525 14.4)"/><use xlink:href="#ar" transform="matrix(1,0,0,1,225.45640891231983,236.8039045792878) translate(34.004999999999995 14.4)"/><use xlink:href="#as" transform="matrix(1,0,0,1,225.45640891231983,236.8039045792878) translate(79.955 14.4)"/><use xlink:href="#at" transform="matrix(1,0,0,1,225.45640891231983,236.8039045792878) translate(145.905 14.4)"/><use xlink:href="#au" transform="matrix(1,0,0,1,225.45640891231983,236.8039045792878) translate(185.905 14.4)"/></g><defs><path fill="#fff" d="M30-248c118-7 216 8 213 122C240-48 200 0 122 0H30v-248zM63-27c89 8 146-16 146-99s-60-101-146-95v194" id="av"/><path fill="#fff" d="M141-36C126-15 110 5 73 4 37 3 15-17 15-53c-1-64 63-63 125-63 3-35-9-54-41-54-24 1-41 7-42 31l-33-3c5-37 33-52 76-52 45 0 72 20 72 64v82c-1 20 7 32 28 27v20c-31 9-61-2-59-35zM48-53c0 20 12 33 32 33 41-3 63-29 60-74-43 2-92-5-92 41" id="aw"/><path fill="#fff" d="M59-47c-2 24 18 29 38 22v24C64 9 27 4 27-40v-127H5v-23h24l9-43h21v43h35v23H59v120" id="ax"/><path fill="#fff" d="M135-143c-3-34-86-38-87 0 15 53 115 12 119 90S17 21 10-45l28-5c4 36 97 45 98 0-10-56-113-15-118-90-4-57 82-63 122-42 12 7 21 19 24 35" id="ay"/><path fill="#fff" d="M100-194c63 0 86 42 84 106H49c0 40 14 67 53 68 26 1 43-12 49-29l28 8c-11 28-37 45-77 45C44 4 14-33 15-96c1-61 26-98 85-98zm52 81c6-60-76-77-97-28-3 7-6 17-6 28h103" id="az"/><g id="a"><use transform="matrix(0.05,0,0,0.05,0,0)" xlink:href="#av"/><use transform="matrix(0.05,0,0,0.05,12.950000000000001,0)" xlink:href="#aw"/><use transform="matrix(0.05,0,0,0.05,22.950000000000003,0)" xlink:href="#ax"/><use transform="matrix(0.05,0,0,0.05,27.950000000000003,0)" xlink:href="#aw"/><use transform="matrix(0.05,0,0,0.05,37.95,0)" xlink:href="#ay"/><use transform="matrix(0.05,0,0,0.05,46.95,0)" xlink:href="#az"/><use transform="matrix(0.05,0,0,0.05,56.95,0)" xlink:href="#ax"/></g><path d="M101-234c-31-9-42 10-38 44h38v23H63V0H32v-167H5v-23h27c-7-52 17-82 69-68v24" id="aA"/><path d="M100-194c62-1 85 37 85 99 1 63-27 99-86 99S16-35 15-95c0-66 28-99 85-99zM99-20c44 1 53-31 53-75 0-43-8-75-51-75s-53 32-53 75 10 74 51 75" id="aB"/><path d="M141-36C126-15 110 5 73 4 37 3 15-17 15-53c-1-64 63-63 125-63 3-35-9-54-41-54-24 1-41 7-42 31l-33-3c5-37 33-52 76-52 45 0 72 20 72 64v82c-1 20 7 32 28 27v20c-31 9-61-2-59-35zM48-53c0 20 12 33 32 33 41-3 63-29 60-74-43 2-92-5-92 41" id="aC"/><path d="M33-154v-36h34v36H33zM33 0v-36h34V0H33" id="aD"/><path d="M205 0l-28-72H64L36 0H1l101-248h38L239 0h-34zm-38-99l-47-123c-12 45-31 82-46 123h93" id="aE"/><path d="M177-190C167-65 218 103 67 71c-23-6-38-20-44-43l32-5c15 47 100 32 89-28v-30C133-14 115 1 83 1 29 1 15-40 15-95c0-56 16-97 71-98 29-1 48 16 59 35 1-10 0-23 2-32h30zM94-22c36 0 50-32 50-73 0-42-14-75-50-75-39 0-46 34-46 75s6 73 46 73" id="aF"/><path d="M100-194c63 0 86 42 84 106H49c0 40 14 67 53 68 26 1 43-12 49-29l28 8c-11 28-37 45-77 45C44 4 14-33 15-96c1-61 26-98 85-98zm52 81c6-60-76-77-97-28-3 7-6 17-6 28h103" id="aG"/><path d="M117-194c89-4 53 116 60 194h-32v-121c0-31-8-49-39-48C34-167 62-67 57 0H25l-1-190h30c1 10-1 24 2 32 11-22 29-35 61-36" id="aH"/><path d="M59-47c-2 24 18 29 38 22v24C64 9 27 4 27-40v-127H5v-23h24l9-43h21v43h35v23H59v120" id="aI"/><g id="b"><use transform="matrix(0.05,0,0,0.05,0,0)" xlink:href="#aA"/><use transform="matrix(0.05,0,0,0.05,5,0)" xlink:href="#aB"/><use transform="matrix(0.05,0,0,0.05,15,0)" xlink:href="#aC"/><use transform="matrix(0.05,0,0,0.05,25,0)" xlink:href="#aA"/><use transform="matrix(0.05,0,0,0.05,30,0)" xlink:href="#aD"/><use transform="matrix(0.05,0,0,0.05,35,0)" xlink:href="#aE"/><use transform="matrix(0.05,0,0,0.05,47,0)" xlink:href="#aF"/><use transform="matrix(0.05,0,0,0.05,57,0)" xlink:href="#aG"/><use transform="matrix(0.05,0,0,0.05,67,0)" xlink:href="#aH"/><use transform="matrix(0.05,0,0,0.05,77,0)" xlink:href="#aI"/></g><path d="M85-194c31 0 48 13 60 33l-1-100h32l1 261h-30c-2-10 0-23-3-31C134-8 116 4 85 4 32 4 16-35 15-94c0-66 23-100 70-100zm9 24c-40 0-46 34-46 75 0 40 6 74 45 74 42 0 51-32 51-76 0-42-9-74-50-73" id="aJ"/><path d="M96-169c-40 0-48 33-48 73s9 75 48 75c24 0 41-14 43-38l32 2c-6 37-31 61-74 61-59 0-76-41-82-99-10-93 101-131 147-64 4 7 5 14 7 22l-32 3c-4-21-16-35-41-35" id="aK"/><path d="M114-163C36-179 61-72 57 0H25l-1-190h30c1 12-1 29 2 39 6-27 23-49 58-41v29" id="aL"/><g id="d"><use transform="matrix(0.05,0,0,0.05,0,0)" xlink:href="#aJ"/><use transform="matrix(0.05,0,0,0.05,10,0)" xlink:href="#aK"/><use transform="matrix(0.05,0,0,0.05,19,0)" xlink:href="#aI"/><use transform="matrix(0.05,0,0,0.05,24,0)" xlink:href="#aD"/><use transform="matrix(0.05,0,0,0.05,29,0)" xlink:href="#aK"/><use transform="matrix(0.05,0,0,0.05,38,0)" xlink:href="#aL"/><use transform="matrix(0.05,0,0,0.05,43.95,0)" xlink:href="#aG"/><use transform="matrix(0.05,0,0,0.05,53.95,0)" xlink:href="#aC"/><use transform="matrix(0.05,0,0,0.05,63.95,0)" xlink:href="#aI"/><use transform="matrix(0.05,0,0,0.05,68.95,0)" xlink:href="#aB"/><use transform="matrix(0.05,0,0,0.05,78.95,0)" xlink:href="#aL"/></g><path d="M26 75v-336h71v23H56V52h41v23H26" id="aM"/><path d="M27 0v-27h64v-190l-56 39v-29l58-41h29v221h61V0H27" id="aN"/><path d="M3 75V52h41v-290H3v-23h71V75H3" id="aO"/><g id="e"><use transform="matrix(0.05,0,0,0.05,0,0)" xlink:href="#aM"/><use transform="matrix(0.05,0,0,0.05,5,0)" xlink:href="#aN"/><use transform="matrix(0.05,0,0,0.05,15,0)" xlink:href="#aO"/></g><path d="M115-194c55 1 70 41 70 98S169 2 115 4C84 4 66-9 55-30l1 105H24l-1-265h31l2 30c10-21 28-34 59-34zm-8 174c40 0 45-34 45-75s-6-73-45-74c-42 0-51 32-51 76 0 43 10 73 51 73" id="aP"/><path d="M84 4C-5 8 30-112 23-190h32v120c0 31 7 50 39 49 72-2 45-101 50-169h31l1 190h-30c-1-10 1-25-2-33-11 22-28 36-60 37" id="aQ"/><path d="M115-194c53 0 69 39 70 98 0 66-23 100-70 100C84 3 66-7 56-30L54 0H23l1-261h32v101c10-23 28-34 59-34zm-8 174c40 0 45-34 45-75 0-40-5-75-45-74-42 0-51 32-51 76 0 43 10 73 51 73" id="aR"/><path d="M24 0v-261h32V0H24" id="aS"/><path d="M24-231v-30h32v30H24zM24 0v-190h32V0H24" id="aT"/><path d="M135-143c-3-34-86-38-87 0 15 53 115 12 119 90S17 21 10-45l28-5c4 36 97 45 98 0-10-56-113-15-118-90-4-57 82-63 122-42 12 7 21 19 24 35" id="aU"/><path d="M106-169C34-169 62-67 57 0H25v-261h32l-1 103c12-21 28-36 61-36 89 0 53 116 60 194h-32v-121c2-32-8-49-39-48" id="aV"/><g id="f"><use transform="matrix(0.05,0,0,0.05,0,0)" xlink:href="#aJ"/><use transform="matrix(0.05,0,0,0.05,10,0)" xlink:href="#aK"/><use transform="matrix(0.05,0,0,0.05,19,0)" xlink:href="#aI"/><use transform="matrix(0.05,0,0,0.05,24,0)" xlink:href="#aD"/><use transform="matrix(0.05,0,0,0.05,29,0)" xlink:href="#aP"/><use transform="matrix(0.05,0,0,0.05,39,0)" xlink:href="#aQ"/><use transform="matrix(0.05,0,0,0.05,49,0)" xlink:href="#aR"/><use transform="matrix(0.05,0,0,0.05,59,0)" xlink:href="#aS"/><use transform="matrix(0.05,0,0,0.05,62.95,0)" xlink:href="#aT"/><use transform="matrix(0.05,0,0,0.05,66.9,0)" xlink:href="#aU"/><use transform="matrix(0.05,0,0,0.05,75.9,0)" xlink:href="#aV"/><use transform="matrix(0.05,0,0,0.05,85.9,0)" xlink:href="#aG"/><use transform="matrix(0.05,0,0,0.05,95.9,0)" xlink:href="#aL"/></g><g id="g"><use transform="matrix(0.05,0,0,0.05,0,0)" xlink:href="#aM"/><use transform="matrix(0.05,0,0,0.05,5,0)" xlink:href="#aN"/><use transform="matrix(0.05,0,0,0.05,15,0)" xlink:href="#aO"/></g><path d="M30-248c87 1 191-15 191 75 0 78-77 80-158 76V0H30v-248zm33 125c57 0 124 11 124-50 0-59-68-47-124-48v98" id="aW"/><g id="h"><use transform="matrix(0.05,0,0,0.05,0,0)" xlink:href="#aJ"/><use transform="matrix(0.05,0,0,0.05,10,0)" xlink:href="#aK"/><use transform="matrix(0.05,0,0,0.05,19,0)" xlink:href="#aC"/><use transform="matrix(0.05,0,0,0.05,29,0)" xlink:href="#aI"/><use transform="matrix(0.05,0,0,0.05,34,0)" xlink:href="#aD"/><use transform="matrix(0.05,0,0,0.05,39,0)" xlink:href="#aK"/><use transform="matrix(0.05,0,0,0.05,48,0)" xlink:href="#aB"/><use transform="matrix(0.05,0,0,0.05,58,0)" xlink:href="#aH"/><use transform="matrix(0.05,0,0,0.05,68,0)" xlink:href="#aI"/><use transform="matrix(0.05,0,0,0.05,73,0)" xlink:href="#aC"/><use transform="matrix(0.05,0,0,0.05,83,0)" xlink:href="#aK"/><use transform="matrix(0.05,0,0,0.05,92,0)" xlink:href="#aI"/><use transform="matrix(0.05,0,0,0.05,97,0)" xlink:href="#aW"/><use transform="matrix(0.05,0,0,0.05,109,0)" xlink:href="#aB"/><use transform="matrix(0.05,0,0,0.05,119,0)" xlink:href="#aT"/><use transform="matrix(0.05,0,0,0.05,122.95,0)" xlink:href="#aH"/><use transform="matrix(0.05,0,0,0.05,132.95,0)" xlink:href="#aI"/></g><path d="M141 0L90-78 38 0H4l68-98-65-92h35l48 74 47-74h35l-64 92 68 98h-35" id="aX"/><g id="j"><use transform="matrix(0.05,0,0,0.05,0,0)" xlink:href="#aX"/><use transform="matrix(0.05,0,0,0.05,9,0)" xlink:href="#aU"/><use transform="matrix(0.05,0,0,0.05,18,0)" xlink:href="#aJ"/><use transform="matrix(0.05,0,0,0.05,28,0)" xlink:href="#aD"/><use transform="matrix(0.05,0,0,0.05,33,0)" xlink:href="#aU"/><use transform="matrix(0.05,0,0,0.05,42,0)" xlink:href="#aI"/><use transform="matrix(0.05,0,0,0.05,47,0)" xlink:href="#aL"/><use transform="matrix(0.05,0,0,0.05,52.95,0)" xlink:href="#aT"/><use transform="matrix(0.05,0,0,0.05,56.900000000000006,0)" xlink:href="#aH"/><use transform="matrix(0.05,0,0,0.05,66.9,0)" xlink:href="#aF"/></g><g id="k"><use transform="matrix(0.05,0,0,0.05,0,0)" xlink:href="#aJ"/><use transform="matrix(0.05,0,0,0.05,10,0)" xlink:href="#aK"/><use transform="matrix(0.05,0,0,0.05,19,0)" xlink:href="#aI"/><use transform="matrix(0.05,0,0,0.05,24,0)" xlink:href="#aD"/><use transform="matrix(0.05,0,0,0.05,29,0)" xlink:href="#aI"/><use transform="matrix(0.05,0,0,0.05,34,0)" xlink:href="#aT"/><use transform="matrix(0.05,0,0,0.05,37.95,0)" xlink:href="#aI"/><use transform="matrix(0.05,0,0,0.05,42.95,0)" xlink:href="#aS"/><use transform="matrix(0.05,0,0,0.05,46.900000000000006,0)" xlink:href="#aG"/></g><g id="l"><use transform="matrix(0.05,0,0,0.05,0,0)" xlink:href="#aJ"/><use transform="matrix(0.05,0,0,0.05,10,0)" xlink:href="#aK"/><use transform="matrix(0.05,0,0,0.05,19,0)" xlink:href="#aI"/><use transform="matrix(0.05,0,0,0.05,24,0)" xlink:href="#aD"/><use transform="matrix(0.05,0,0,0.05,29,0)" xlink:href="#aJ"/><use transform="matrix(0.05,0,0,0.05,39,0)" xlink:href="#aG"/><use transform="matrix(0.05,0,0,0.05,49,0)" xlink:href="#aU"/><use transform="matrix(0.05,0,0,0.05,58,0)" xlink:href="#aK"/><use transform="matrix(0.05,0,0,0.05,67,0)" xlink:href="#aL"/><use transform="matrix(0.05,0,0,0.05,72.95,0)" xlink:href="#aT"/><use transform="matrix(0.05,0,0,0.05,76.9,0)" xlink:href="#aP"/><use transform="matrix(0.05,0,0,0.05,86.9,0)" xlink:href="#aI"/><use transform="matrix(0.05,0,0,0.05,91.9,0)" xlink:href="#aT"/><use transform="matrix(0.05,0,0,0.05,95.85000000000001,0)" xlink:href="#aB"/><use transform="matrix(0.05,0,0,0.05,105.85000000000001,0)" xlink:href="#aH"/></g><g id="m"><use transform="matrix(0.05,0,0,0.05,0,0)" xlink:href="#aJ"/><use transform="matrix(0.05,0,0,0.05,10,0)" xlink:href="#aK"/><use transform="matrix(0.05,0,0,0.05,19,0)" xlink:href="#aI"/><use transform="matrix(0.05,0,0,0.05,24,0)" xlink:href="#aD"/><use transform="matrix(0.05,0,0,0.05,29,0)" xlink:href="#aT"/><use transform="matrix(0.05,0,0,0.05,32.95,0)" xlink:href="#aJ"/><use transform="matrix(0.05,0,0,0.05,42.95,0)" xlink:href="#aG"/><use transform="matrix(0.05,0,0,0.05,52.95,0)" xlink:href="#aH"/><use transform="matrix(0.05,0,0,0.05,62.95,0)" xlink:href="#aI"/><use transform="matrix(0.05,0,0,0.05,67.95,0)" xlink:href="#aT"/><use transform="matrix(0.05,0,0,0.05,71.9,0)" xlink:href="#aA"/><use transform="matrix(0.05,0,0,0.05,76.9,0)" xlink:href="#aT"/><use transform="matrix(0.05,0,0,0.05,80.85000000000001,0)" xlink:href="#aG"/><use transform="matrix(0.05,0,0,0.05,90.85000000000001,0)" xlink:href="#aL"/></g><g id="n"><use transform="matrix(0.05,0,0,0.05,0,0)" xlink:href="#aM"/><use transform="matrix(0.05,0,0,0.05,5,0)" xlink:href="#aN"/><use transform="matrix(0.05,0,0,0.05,15,0)" xlink:href="#aO"/></g><path fill="#fff" d="M185-189c-5-48-123-54-124 2 14 75 158 14 163 119 3 78-121 87-175 55-17-10-28-26-33-46l33-7c5 56 141 63 141-1 0-78-155-14-162-118-5-82 145-84 179-34 5 7 8 16 11 25" id="aY"/><path fill="#fff" d="M84 4C-5 8 30-112 23-190h32v120c0 31 7 50 39 49 72-2 45-101 50-169h31l1 190h-30c-1-10 1-25-2-33-11 22-28 36-60 37" id="aZ"/><path fill="#fff" d="M114-163C36-179 61-72 57 0H25l-1-190h30c1 12-1 29 2 39 6-27 23-49 58-41v29" id="ba"/><path fill="#fff" d="M108 0H70L1-190h34L89-25l56-165h34" id="bb"/><path fill="#fff" d="M179-190L93 31C79 59 56 82 12 73V49c39 6 53-20 64-50L1-190h34L92-34l54-156h33" id="bc"/><g id="o"><use transform="matrix(0.05,0,0,0.05,0,0)" xlink:href="#aY"/><use transform="matrix(0.05,0,0,0.05,12,0)" xlink:href="#aZ"/><use transform="matrix(0.05,0,0,0.05,22,0)" xlink:href="#ba"/><use transform="matrix(0.05,0,0,0.05,27.950000000000003,0)" xlink:href="#bb"/><use transform="matrix(0.05,0,0,0.05,36.95,0)" xlink:href="#az"/><use transform="matrix(0.05,0,0,0.05,46.95,0)" xlink:href="#bc"/></g><path fill="#fff" d="M100-194c62-1 85 37 85 99 1 63-27 99-86 99S16-35 15-95c0-66 28-99 85-99zM99-20c44 1 53-31 53-75 0-43-8-75-51-75s-53 32-53 75 10 74 51 75" id="bd"/><g id="p"><use transform="matrix(0.05,0,0,0.05,0,0)" xlink:href="#bd"/><use transform="matrix(0.05,0,0,0.05,10,0)" xlink:href="#ba"/></g><path fill="#fff" d="M140-251c81 0 123 46 123 126C263-46 219 4 140 4 59 4 17-45 17-125s42-126 123-126zm0 227c63 0 89-41 89-101s-29-99-89-99c-61 0-89 39-89 99S79-25 140-24" id="be"/><path fill="#fff" d="M115-194c53 0 69 39 70 98 0 66-23 100-70 100C84 3 66-7 56-30L54 0H23l1-261h32v101c10-23 28-34 59-34zm-8 174c40 0 45-34 45-75 0-40-5-75-45-74-42 0-51 32-51 76 0 43 10 73 51 73" id="bf"/><path fill="#fff" d="M24-231v-30h32v30H24zM24 0v-190h32V0H24" id="bg"/><path fill="#fff" d="M117-194c89-4 53 116 60 194h-32v-121c0-31-8-49-39-48C34-167 62-67 57 0H25l-1-190h30c1 10-1 24 2 32 11-22 29-35 61-36" id="bh"/><g id="q"><use transform="matrix(0.05,0,0,0.05,0,0)" xlink:href="#be"/><use transform="matrix(0.05,0,0,0.05,14,0)" xlink:href="#bf"/><use transform="matrix(0.05,0,0,0.05,24,0)" xlink:href="#ay"/><use transform="matrix(0.05,0,0,0.05,33,0)" xlink:href="#az"/><use transform="matrix(0.05,0,0,0.05,43,0)" xlink:href="#ba"/><use transform="matrix(0.05,0,0,0.05,48.95,0)" xlink:href="#bb"/><use transform="matrix(0.05,0,0,0.05,57.95,0)" xlink:href="#aw"/><use transform="matrix(0.05,0,0,0.05,67.95,0)" xlink:href="#ax"/><use transform="matrix(0.05,0,0,0.05,72.95,0)" xlink:href="#bg"/><use transform="matrix(0.05,0,0,0.05,76.9,0)" xlink:href="#bd"/><use transform="matrix(0.05,0,0,0.05,86.9,0)" xlink:href="#bh"/></g><g id="r"><use transform="matrix(0.05,0,0,0.05,0,0)" xlink:href="#bd"/><use transform="matrix(0.05,0,0,0.05,10,0)" xlink:href="#ba"/></g><path fill="#fff" d="M233-177c-1 41-23 64-60 70L243 0h-38l-65-103H63V0H30v-248c88 3 205-21 203 71zM63-129c60-2 137 13 137-47 0-61-80-42-137-45v92" id="bi"/><path fill="#fff" d="M24 0v-261h32V0H24" id="bj"/><g id="s"><use transform="matrix(0.05,0,0,0.05,0,0)" xlink:href="#bi"/><use transform="matrix(0.05,0,0,0.05,12.950000000000001,0)" xlink:href="#az"/><use transform="matrix(0.05,0,0,0.05,22.950000000000003,0)" xlink:href="#ay"/><use transform="matrix(0.05,0,0,0.05,31.950000000000003,0)" xlink:href="#aZ"/><use transform="matrix(0.05,0,0,0.05,41.95,0)" xlink:href="#bj"/><use transform="matrix(0.05,0,0,0.05,45.900000000000006,0)" xlink:href="#ax"/></g><path d="M179-190L93 31C79 59 56 82 12 73V49c39 6 53-20 64-50L1-190h34L92-34l54-156h33" id="bk"/><g id="t"><use transform="matrix(0.05,0,0,0.05,0,0)" xlink:href="#aL"/><use transform="matrix(0.05,0,0,0.05,5.95,0)" xlink:href="#aJ"/><use transform="matrix(0.05,0,0,0.05,15.949999999999998,0)" xlink:href="#aA"/><use transform="matrix(0.05,0,0,0.05,20.95,0)" xlink:href="#aD"/><use transform="matrix(0.05,0,0,0.05,25.950000000000003,0)" xlink:href="#aP"/><use transform="matrix(0.05,0,0,0.05,35.95,0)" xlink:href="#aL"/><use transform="matrix(0.05,0,0,0.05,41.900000000000006,0)" xlink:href="#aB"/><use transform="matrix(0.05,0,0,0.05,51.900000000000006,0)" xlink:href="#aP"/><use transform="matrix(0.05,0,0,0.05,61.900000000000006,0)" xlink:href="#aG"/><use transform="matrix(0.05,0,0,0.05,71.9,0)" xlink:href="#aL"/><use transform="matrix(0.05,0,0,0.05,77.85000000000001,0)" xlink:href="#aI"/><use transform="matrix(0.05,0,0,0.05,82.85000000000001,0)" xlink:href="#bk"/></g><path d="M143 0L79-87 56-68V0H24v-261h32v163l83-92h37l-77 82L181 0h-38" id="bl"/><g id="u"><use transform="matrix(0.05,0,0,0.05,0,0)" xlink:href="#aU"/><use transform="matrix(0.05,0,0,0.05,9,0)" xlink:href="#bl"/><use transform="matrix(0.05,0,0,0.05,18,0)" xlink:href="#aB"/><use transform="matrix(0.05,0,0,0.05,28,0)" xlink:href="#aU"/><use transform="matrix(0.05,0,0,0.05,37,0)" xlink:href="#aD"/></g><path d="M212-179c-10-28-35-45-73-45-59 0-87 40-87 99 0 60 29 101 89 101 43 0 62-24 78-52l27 14C228-24 195 4 139 4 59 4 22-46 18-125c-6-104 99-153 187-111 19 9 31 26 39 46" id="bm"/><g id="v"><use transform="matrix(0.05,0,0,0.05,0,0)" xlink:href="#bm"/><use transform="matrix(0.05,0,0,0.05,12.950000000000001,0)" xlink:href="#aB"/><use transform="matrix(0.05,0,0,0.05,22.950000000000003,0)" xlink:href="#aH"/><use transform="matrix(0.05,0,0,0.05,32.95,0)" xlink:href="#aK"/><use transform="matrix(0.05,0,0,0.05,41.95,0)" xlink:href="#aG"/><use transform="matrix(0.05,0,0,0.05,51.95,0)" xlink:href="#aP"/><use transform="matrix(0.05,0,0,0.05,61.95,0)" xlink:href="#aI"/></g><path fill="#fff" d="M143 4C61 4 22-44 18-125c-5-107 100-154 193-111 17 8 29 25 37 43l-32 9c-13-25-37-40-76-40-61 0-88 39-88 99 0 61 29 100 91 101 35 0 62-11 79-27v-45h-74v-28h105v86C228-13 192 4 143 4" id="bn"/><path fill="#fff" d="M140-251c81 0 123 46 123 126C263-53 228-8 163 1c7 30 30 48 69 40v23c-55 16-95-15-103-61C56-3 17-48 17-125c0-80 42-126 123-126zm0 227c63 0 89-41 89-101s-29-99-89-99c-61 0-89 39-89 99S79-25 140-24" id="bo"/><g id="w"><use transform="matrix(0.05,0,0,0.05,0,0)" xlink:href="#bn"/><use transform="matrix(0.05,0,0,0.05,14,0)" xlink:href="#aY"/><use transform="matrix(0.05,0,0,0.05,26,0)" xlink:href="#bo"/></g><path fill="#fff" d="M212-179c-10-28-35-45-73-45-59 0-87 40-87 99 0 60 29 101 89 101 43 0 62-24 78-52l27 14C228-24 195 4 139 4 59 4 22-46 18-125c-6-104 99-153 187-111 19 9 31 26 39 46" id="bp"/><g id="x"><use transform="matrix(0.05,0,0,0.05,0,0)" xlink:href="#bp"/><use transform="matrix(0.05,0,0,0.05,12.950000000000001,0)" xlink:href="#bj"/><use transform="matrix(0.05,0,0,0.05,16.900000000000002,0)" xlink:href="#aw"/><use transform="matrix(0.05,0,0,0.05,26.900000000000002,0)" xlink:href="#ay"/><use transform="matrix(0.05,0,0,0.05,35.900000000000006,0)" xlink:href="#ay"/></g><path d="M30-248c118-7 216 8 213 122C240-48 200 0 122 0H30v-248zM63-27c89 8 146-16 146-99s-60-101-146-95v194" id="bq"/><path d="M210-169c-67 3-38 105-44 169h-31v-121c0-29-5-50-35-48C34-165 62-65 56 0H25l-1-190h30c1 10-1 24 2 32 10-44 99-50 107 0 11-21 27-35 58-36 85-2 47 119 55 194h-31v-121c0-29-5-49-35-48" id="br"/><g id="y"><use transform="matrix(0.05,0,0,0.05,0,0)" xlink:href="#bq"/><use transform="matrix(0.05,0,0,0.05,12.950000000000001,0)" xlink:href="#aT"/><use transform="matrix(0.05,0,0,0.05,16.900000000000002,0)" xlink:href="#aC"/><use transform="matrix(0.05,0,0,0.05,26.900000000000002,0)" xlink:href="#aF"/><use transform="matrix(0.05,0,0,0.05,36.900000000000006,0)" xlink:href="#aL"/><use transform="matrix(0.05,0,0,0.05,42.85000000000001,0)" xlink:href="#aC"/><use transform="matrix(0.05,0,0,0.05,52.85,0)" xlink:href="#br"/><path d="M-.9 1.25h74.6v1.32H-.9z"/></g><path d="M30 0v-248h187v28H63v79h144v27H63v87h162V0H30" id="bs"/><g id="z"><use transform="matrix(0.05,0,0,0.05,0,0)" xlink:href="#bs"/><use transform="matrix(0.05,0,0,0.05,12,0)" xlink:href="#aS"/><use transform="matrix(0.05,0,0,0.05,15.949999999999998,0)" xlink:href="#aG"/><use transform="matrix(0.05,0,0,0.05,25.950000000000003,0)" xlink:href="#br"/><use transform="matrix(0.05,0,0,0.05,40.9,0)" xlink:href="#aG"/><use transform="matrix(0.05,0,0,0.05,50.9,0)" xlink:href="#aH"/><use transform="matrix(0.05,0,0,0.05,60.900000000000006,0)" xlink:href="#aI"/><path d="M-.9 1.25h72.7v1.32H-.9z"/></g><path d="M194 0L95-120 63-95V0H30v-248h33v124l119-124h40L117-140 236 0h-42" id="bt"/><g id="A"><use transform="matrix(0.05,0,0,0.05,0,0)" xlink:href="#bt"/><use transform="matrix(0.05,0,0,0.05,12,0)" xlink:href="#aG"/><use transform="matrix(0.05,0,0,0.05,22,0)" xlink:href="#bk"/><path d="M-.9 1.25h32.8v1.32H-.9z"/></g><path d="M206 0h-36l-40-164L89 0H53L-1-190h32L70-26l43-164h34l41 164 42-164h31" id="bu"/><g id="B"><use transform="matrix(0.05,0,0,0.05,0,0)" xlink:href="#aB"/><use transform="matrix(0.05,0,0,0.05,10,0)" xlink:href="#bu"/><use transform="matrix(0.05,0,0,0.05,22.950000000000003,0)" xlink:href="#aS"/><use transform="matrix(0.05,0,0,0.05,26.900000000000002,0)" xlink:href="#aD"/><use transform="matrix(0.05,0,0,0.05,31.900000000000002,0)" xlink:href="#bm"/><use transform="matrix(0.05,0,0,0.05,44.85,0)" xlink:href="#aS"/><use transform="matrix(0.05,0,0,0.05,48.800000000000004,0)" xlink:href="#aC"/><use transform="matrix(0.05,0,0,0.05,58.800000000000004,0)" xlink:href="#aU"/><use transform="matrix(0.05,0,0,0.05,67.80000000000001,0)" xlink:href="#aU"/></g><path d="M87 75C49 33 22-17 22-94c0-76 28-126 65-167h31c-38 41-64 92-64 168S80 34 118 75H87" id="bv"/><path d="M16-82v-28h88v28H16" id="bw"/><path d="M143 4C61 4 22-44 18-125c-5-107 100-154 193-111 17 8 29 25 37 43l-32 9c-13-25-37-40-76-40-61 0-88 39-88 99 0 61 29 100 91 101 35 0 62-11 79-27v-45h-74v-28h105v86C228-13 192 4 143 4" id="bx"/><path d="M185-189c-5-48-123-54-124 2 14 75 158 14 163 119 3 78-121 87-175 55-17-10-28-26-33-46l33-7c5 56 141 63 141-1 0-78-155-14-162-118-5-82 145-84 179-34 5 7 8 16 11 25" id="by"/><path d="M140-251c81 0 123 46 123 126C263-53 228-8 163 1c7 30 30 48 69 40v23c-55 16-95-15-103-61C56-3 17-48 17-125c0-80 42-126 123-126zm0 227c63 0 89-41 89-101s-29-99-89-99c-61 0-89 39-89 99S79-25 140-24" id="bz"/><g id="C"><use transform="matrix(0.05,0,0,0.05,0,0)" xlink:href="#bv"/><use transform="matrix(0.05,0,0,0.05,5.95,0)" xlink:href="#aH"/><use transform="matrix(0.05,0,0,0.05,15.949999999999998,0)" xlink:href="#aB"/><use transform="matrix(0.05,0,0,0.05,25.950000000000003,0)" xlink:href="#aH"/><use transform="matrix(0.05,0,0,0.05,35.95,0)" xlink:href="#bw"/><use transform="matrix(0.05,0,0,0.05,41.900000000000006,0)" xlink:href="#bx"/><use transform="matrix(0.05,0,0,0.05,55.900000000000006,0)" xlink:href="#by"/><use transform="matrix(0.05,0,0,0.05,67.9,0)" xlink:href="#bz"/></g><path d="M33-261c38 41 65 92 65 168S71 34 33 75H2C39 34 66-17 66-93S39-220 2-261h31" id="bA"/><g id="D"><use transform="matrix(0.05,0,0,0.05,0,0)" xlink:href="#aK"/><use transform="matrix(0.05,0,0,0.05,9,0)" xlink:href="#aS"/><use transform="matrix(0.05,0,0,0.05,12.949999999999998,0)" xlink:href="#aC"/><use transform="matrix(0.05,0,0,0.05,22.95,0)" xlink:href="#aU"/><use transform="matrix(0.05,0,0,0.05,31.950000000000003,0)" xlink:href="#aU"/><use transform="matrix(0.05,0,0,0.05,40.95,0)" xlink:href="#bA"/></g><path d="M108 0H70L1-190h34L89-25l56-165h34" id="bB"/><g id="E"><use transform="matrix(0.05,0,0,0.05,0,0)" xlink:href="#aP"/><use transform="matrix(0.05,0,0,0.05,10,0)" xlink:href="#aL"/><use transform="matrix(0.05,0,0,0.05,15.949999999999998,0)" xlink:href="#aB"/><use transform="matrix(0.05,0,0,0.05,25.950000000000003,0)" xlink:href="#bB"/><use transform="matrix(0.05,0,0,0.05,34.95,0)" xlink:href="#aD"/></g><g id="F"><use transform="matrix(0.05,0,0,0.05,0,0)" xlink:href="#aE"/><use transform="matrix(0.05,0,0,0.05,12,0)" xlink:href="#aF"/><use transform="matrix(0.05,0,0,0.05,22,0)" xlink:href="#aG"/><use transform="matrix(0.05,0,0,0.05,32,0)" xlink:href="#aH"/><use transform="matrix(0.05,0,0,0.05,42,0)" xlink:href="#aI"/></g><path d="M233-177c-1 41-23 64-60 70L243 0h-38l-65-103H63V0H30v-248c88 3 205-21 203 71zM63-129c60-2 137 13 137-47 0-61-80-42-137-45v92" id="bC"/><path d="M140-251c81 0 123 46 123 126C263-46 219 4 140 4 59 4 17-45 17-125s42-126 123-126zm0 227c63 0 89-41 89-101s-29-99-89-99c-61 0-89 39-89 99S79-25 140-24" id="bD"/><g id="G"><use transform="matrix(0.05,0,0,0.05,0,0)" xlink:href="#aU"/><use transform="matrix(0.05,0,0,0.05,9,0)" xlink:href="#aB"/><use transform="matrix(0.05,0,0,0.05,19,0)" xlink:href="#aU"/><use transform="matrix(0.05,0,0,0.05,28,0)" xlink:href="#aC"/><use transform="matrix(0.05,0,0,0.05,38,0)" xlink:href="#aD"/><use transform="matrix(0.05,0,0,0.05,43,0)" xlink:href="#aT"/><use transform="matrix(0.05,0,0,0.05,46.95,0)" xlink:href="#aU"/><use transform="matrix(0.05,0,0,0.05,55.95,0)" xlink:href="#bC"/><use transform="matrix(0.05,0,0,0.05,68.9,0)" xlink:href="#aG"/><use transform="matrix(0.05,0,0,0.05,78.9,0)" xlink:href="#aU"/><use transform="matrix(0.05,0,0,0.05,87.9,0)" xlink:href="#aQ"/><use transform="matrix(0.05,0,0,0.05,97.9,0)" xlink:href="#aS"/><use transform="matrix(0.05,0,0,0.05,101.85000000000001,0)" xlink:href="#aI"/><use transform="matrix(0.05,0,0,0.05,106.85000000000001,0)" xlink:href="#bD"/><use transform="matrix(0.05,0,0,0.05,120.85000000000001,0)" xlink:href="#aA"/></g><path d="M101-251c68 0 85 55 85 127S166 4 100 4C33 4 14-52 14-124c0-73 17-127 87-127zm-1 229c47 0 54-49 54-102s-4-102-53-102c-51 0-55 48-55 102 0 53 5 102 54 102" id="bE"/><path d="M33 0v-38h34V0H33" id="bF"/><g id="H"><use transform="matrix(0.05,0,0,0.05,0,0)" xlink:href="#aM"/><use transform="matrix(0.05,0,0,0.05,5,0)" xlink:href="#bE"/><use transform="matrix(0.05,0,0,0.05,15,0)" xlink:href="#bF"/><use transform="matrix(0.05,0,0,0.05,20,0)" xlink:href="#bF"/><use transform="matrix(0.05,0,0,0.05,25,0)" xlink:href="#aN"/><use transform="matrix(0.05,0,0,0.05,35,0)" xlink:href="#aO"/></g><g id="I"><use transform="matrix(0.05,0,0,0.05,0,0)" xlink:href="#aL"/><use transform="matrix(0.05,0,0,0.05,5.95,0)" xlink:href="#aJ"/><use transform="matrix(0.05,0,0,0.05,15.949999999999998,0)" xlink:href="#aA"/><use transform="matrix(0.05,0,0,0.05,20.95,0)" xlink:href="#aU"/><use transform="matrix(0.05,0,0,0.05,29.950000000000003,0)" xlink:href="#aD"/><use transform="matrix(0.05,0,0,0.05,34.95,0)" xlink:href="#aU"/><use transform="matrix(0.05,0,0,0.05,43.95,0)" xlink:href="#aQ"/><use transform="matrix(0.05,0,0,0.05,53.95,0)" xlink:href="#aR"/><use transform="matrix(0.05,0,0,0.05,63.95,0)" xlink:href="#bm"/><use transform="matrix(0.05,0,0,0.05,76.9,0)" xlink:href="#aS"/><use transform="matrix(0.05,0,0,0.05,80.85000000000001,0)" xlink:href="#aC"/><use transform="matrix(0.05,0,0,0.05,90.85000000000001,0)" xlink:href="#aU"/><use transform="matrix(0.05,0,0,0.05,99.85000000000001,0)" xlink:href="#aU"/><use transform="matrix(0.05,0,0,0.05,108.85000000000001,0)" xlink:href="#bD"/><use transform="matrix(0.05,0,0,0.05,122.85000000000001,0)" xlink:href="#aA"/></g><g id="J"><use transform="matrix(0.05,0,0,0.05,0,0)" xlink:href="#aX"/><use transform="matrix(0.05,0,0,0.05,9,0)" xlink:href="#aU"/><use transform="matrix(0.05,0,0,0.05,18,0)" xlink:href="#aJ"/><use transform="matrix(0.05,0,0,0.05,28,0)" xlink:href="#aD"/><use transform="matrix(0.05,0,0,0.05,33,0)" xlink:href="#aJ"/><use transform="matrix(0.05,0,0,0.05,43,0)" xlink:href="#aC"/><use transform="matrix(0.05,0,0,0.05,53,0)" xlink:href="#aI"/><use transform="matrix(0.05,0,0,0.05,58,0)" xlink:href="#aG"/></g><g id="K"><use transform="matrix(0.05,0,0,0.05,0,0)" xlink:href="#aJ"/><use transform="matrix(0.05,0,0,0.05,10,0)" xlink:href="#aK"/><use transform="matrix(0.05,0,0,0.05,19,0)" xlink:href="#aI"/><use transform="matrix(0.05,0,0,0.05,24,0)" xlink:href="#aD"/><use transform="matrix(0.05,0,0,0.05,29,0)" xlink:href="#aK"/><use transform="matrix(0.05,0,0,0.05,38,0)" xlink:href="#aL"/><use transform="matrix(0.05,0,0,0.05,43.95,0)" xlink:href="#aG"/><use transform="matrix(0.05,0,0,0.05,53.95,0)" xlink:href="#aC"/><use transform="matrix(0.05,0,0,0.05,63.95,0)" xlink:href="#aI"/><use transform="matrix(0.05,0,0,0.05,68.95,0)" xlink:href="#aG"/><use transform="matrix(0.05,0,0,0.05,78.95,0)" xlink:href="#aJ"/></g><g id="L"><use transform="matrix(0.05,0,0,0.05,0,0)" xlink:href="#aJ"/><use transform="matrix(0.05,0,0,0.05,10,0)" xlink:href="#aK"/><use transform="matrix(0.05,0,0,0.05,19,0)" xlink:href="#aI"/><use transform="matrix(0.05,0,0,0.05,24,0)" xlink:href="#aD"/><use transform="matrix(0.05,0,0,0.05,29,0)" xlink:href="#aT"/><use transform="matrix(0.05,0,0,0.05,32.95,0)" xlink:href="#aU"/><use transform="matrix(0.05,0,0,0.05,41.95,0)" xlink:href="#aU"/><use transform="matrix(0.05,0,0,0.05,50.95,0)" xlink:href="#aQ"/><use transform="matrix(0.05,0,0,0.05,60.95,0)" xlink:href="#aG"/><use transform="matrix(0.05,0,0,0.05,70.95,0)" xlink:href="#aJ"/></g><g id="M"><use transform="matrix(0.05,0,0,0.05,0,0)" xlink:href="#aJ"/><use transform="matrix(0.05,0,0,0.05,10,0)" xlink:href="#aK"/><use transform="matrix(0.05,0,0,0.05,19,0)" xlink:href="#aI"/><use transform="matrix(0.05,0,0,0.05,24,0)" xlink:href="#aD"/><use transform="matrix(0.05,0,0,0.05,29,0)" xlink:href="#br"/><use transform="matrix(0.05,0,0,0.05,43.95,0)" xlink:href="#aB"/><use transform="matrix(0.05,0,0,0.05,53.95,0)" xlink:href="#aJ"/><use transform="matrix(0.05,0,0,0.05,63.95,0)" xlink:href="#aT"/><use transform="matrix(0.05,0,0,0.05,67.9,0)" xlink:href="#aA"/><use transform="matrix(0.05,0,0,0.05,72.9,0)" xlink:href="#aT"/><use transform="matrix(0.05,0,0,0.05,76.85000000000001,0)" xlink:href="#aG"/><use transform="matrix(0.05,0,0,0.05,86.85000000000001,0)" xlink:href="#aJ"/></g><g id="N"><use transform="matrix(0.05,0,0,0.05,0,0)" xlink:href="#aJ"/><use transform="matrix(0.05,0,0,0.05,10,0)" xlink:href="#aK"/><use transform="matrix(0.05,0,0,0.05,19,0)" xlink:href="#aC"/><use transform="matrix(0.05,0,0,0.05,29,0)" xlink:href="#aI"/><use transform="matrix(0.05,0,0,0.05,34,0)" xlink:href="#aD"/><use transform="matrix(0.05,0,0,0.05,39,0)" xlink:href="#bq"/><use transform="matrix(0.05,0,0,0.05,51.95,0)" xlink:href="#aC"/><use transform="matrix(0.05,0,0,0.05,61.95,0)" xlink:href="#aI"/><use transform="matrix(0.05,0,0,0.05,66.95,0)" xlink:href="#aC"/><use transform="matrix(0.05,0,0,0.05,76.95,0)" xlink:href="#aU"/><use transform="matrix(0.05,0,0,0.05,85.95,0)" xlink:href="#aG"/><use transform="matrix(0.05,0,0,0.05,95.95,0)" xlink:href="#aI"/></g><g id="O"><use transform="matrix(0.05,0,0,0.05,0,0)" xlink:href="#aJ"/><use transform="matrix(0.05,0,0,0.05,10,0)" xlink:href="#aK"/><use transform="matrix(0.05,0,0,0.05,19,0)" xlink:href="#aC"/><use transform="matrix(0.05,0,0,0.05,29,0)" xlink:href="#aI"/><use transform="matrix(0.05,0,0,0.05,34,0)" xlink:href="#aD"/><use transform="matrix(0.05,0,0,0.05,39,0)" xlink:href="#bq"/><use transform="matrix(0.05,0,0,0.05,51.95,0)" xlink:href="#aT"/><use transform="matrix(0.05,0,0,0.05,55.900000000000006,0)" xlink:href="#aU"/><use transform="matrix(0.05,0,0,0.05,64.9,0)" xlink:href="#aI"/><use transform="matrix(0.05,0,0,0.05,69.9,0)" xlink:href="#aL"/><use transform="matrix(0.05,0,0,0.05,75.85000000000001,0)" xlink:href="#aT"/><use transform="matrix(0.05,0,0,0.05,79.80000000000001,0)" xlink:href="#aR"/><use transform="matrix(0.05,0,0,0.05,89.80000000000001,0)" xlink:href="#aQ"/><use transform="matrix(0.05,0,0,0.05,99.80000000000001,0)" xlink:href="#aI"/><use transform="matrix(0.05,0,0,0.05,104.80000000000001,0)" xlink:href="#aT"/><use transform="matrix(0.05,0,0,0.05,108.75,0)" xlink:href="#aB"/><use transform="matrix(0.05,0,0,0.05,118.75,0)" xlink:href="#aH"/></g><g id="P"><use transform="matrix(0.05,0,0,0.05,0,0)" xlink:href="#aJ"/><use transform="matrix(0.05,0,0,0.05,10,0)" xlink:href="#aK"/><use transform="matrix(0.05,0,0,0.05,19,0)" xlink:href="#aC"/><use transform="matrix(0.05,0,0,0.05,29,0)" xlink:href="#aI"/><use transform="matrix(0.05,0,0,0.05,34,0)" xlink:href="#aD"/><use transform="matrix(0.05,0,0,0.05,39,0)" xlink:href="#aJ"/><use transform="matrix(0.05,0,0,0.05,49,0)" xlink:href="#aT"/><use transform="matrix(0.05,0,0,0.05,52.95,0)" xlink:href="#aU"/><use transform="matrix(0.05,0,0,0.05,61.95,0)" xlink:href="#aI"/><use transform="matrix(0.05,0,0,0.05,66.95,0)" xlink:href="#aL"/><use transform="matrix(0.05,0,0,0.05,72.9,0)" xlink:href="#aT"/><use transform="matrix(0.05,0,0,0.05,76.85000000000001,0)" xlink:href="#aR"/><use transform="matrix(0.05,0,0,0.05,86.85000000000001,0)" xlink:href="#aQ"/><use transform="matrix(0.05,0,0,0.05,96.85000000000001,0)" xlink:href="#aI"/><use transform="matrix(0.05,0,0,0.05,101.85000000000001,0)" xlink:href="#aT"/><use transform="matrix(0.05,0,0,0.05,105.80000000000001,0)" xlink:href="#aB"/><use transform="matrix(0.05,0,0,0.05,115.80000000000001,0)" xlink:href="#aH"/></g><g id="Q"><use transform="matrix(0.05,0,0,0.05,0,0)" xlink:href="#aM"/><use transform="matrix(0.05,0,0,0.05,5,0)" xlink:href="#aN"/><use transform="matrix(0.05,0,0,0.05,15,0)" xlink:href="#aO"/></g><path d="M232-93c-1 65-40 97-104 97C67 4 28-28 28-90v-158h33c8 89-33 224 67 224 102 0 64-133 71-224h33v155" id="bG"/><path d="M30 0v-248h33v221h125V0H30" id="bH"/><g id="R"><use transform="matrix(0.05,0,0,0.05,0,0)" xlink:href="#aX"/><use transform="matrix(0.05,0,0,0.05,9,0)" xlink:href="#aU"/><use transform="matrix(0.05,0,0,0.05,18,0)" xlink:href="#aJ"/><use transform="matrix(0.05,0,0,0.05,28,0)" xlink:href="#aD"/><use transform="matrix(0.05,0,0,0.05,33,0)" xlink:href="#aC"/><use transform="matrix(0.05,0,0,0.05,43,0)" xlink:href="#aH"/><use transform="matrix(0.05,0,0,0.05,53,0)" xlink:href="#bk"/><use transform="matrix(0.05,0,0,0.05,62,0)" xlink:href="#bG"/><use transform="matrix(0.05,0,0,0.05,74.95,0)" xlink:href="#bC"/><use transform="matrix(0.05,0,0,0.05,87.9,0)" xlink:href="#bH"/></g><g id="S"><use transform="matrix(0.05,0,0,0.05,0,0)" xlink:href="#aJ"/><use transform="matrix(0.05,0,0,0.05,10,0)" xlink:href="#aK"/><use transform="matrix(0.05,0,0,0.05,19,0)" xlink:href="#aC"/><use transform="matrix(0.05,0,0,0.05,29,0)" xlink:href="#aI"/><use transform="matrix(0.05,0,0,0.05,34,0)" xlink:href="#aD"/><use transform="matrix(0.05,0,0,0.05,39,0)" xlink:href="#aJ"/><use transform="matrix(0.05,0,0,0.05,49,0)" xlink:href="#aB"/><use transform="matrix(0.05,0,0,0.05,59,0)" xlink:href="#bu"/><use transform="matrix(0.05,0,0,0.05,71.95,0)" xlink:href="#aH"/><use transform="matrix(0.05,0,0,0.05,81.95,0)" xlink:href="#aS"/><use transform="matrix(0.05,0,0,0.05,85.9,0)" xlink:href="#aB"/><use transform="matrix(0.05,0,0,0.05,95.9,0)" xlink:href="#aC"/><use transform="matrix(0.05,0,0,0.05,105.9,0)" xlink:href="#aJ"/><use transform="matrix(0.05,0,0,0.05,115.9,0)" xlink:href="#bG"/><use transform="matrix(0.05,0,0,0.05,128.85,0)" xlink:href="#bC"/><use transform="matrix(0.05,0,0,0.05,141.79999999999998,0)" xlink:href="#bH"/></g><g id="T"><use transform="matrix(0.05,0,0,0.05,0,0)" xlink:href="#aI"/><use transform="matrix(0.05,0,0,0.05,5,0)" xlink:href="#aT"/><use transform="matrix(0.05,0,0,0.05,8.95,0)" xlink:href="#br"/><use transform="matrix(0.05,0,0,0.05,23.9,0)" xlink:href="#aG"/><use transform="matrix(0.05,0,0,0.05,33.9,0)" xlink:href="#aD"/></g><path d="M127-220V0H93v-220H8v-28h204v28h-85" id="bI"/><g id="U"><use transform="matrix(0.05,0,0,0.05,0,0)" xlink:href="#aV"/><use transform="matrix(0.05,0,0,0.05,10,0)" xlink:href="#aC"/><use transform="matrix(0.05,0,0,0.05,20,0)" xlink:href="#aU"/><use transform="matrix(0.05,0,0,0.05,29,0)" xlink:href="#bI"/><use transform="matrix(0.05,0,0,0.05,39.300000000000004,0)" xlink:href="#aT"/><use transform="matrix(0.05,0,0,0.05,43.25000000000001,0)" xlink:href="#br"/><use transform="matrix(0.05,0,0,0.05,58.20000000000002,0)" xlink:href="#aG"/></g><g id="V"><use transform="matrix(0.05,0,0,0.05,0,0)" xlink:href="#aI"/><use transform="matrix(0.05,0,0,0.05,5,0)" xlink:href="#aT"/><use transform="matrix(0.05,0,0,0.05,8.95,0)" xlink:href="#br"/><use transform="matrix(0.05,0,0,0.05,23.9,0)" xlink:href="#aG"/><use transform="matrix(0.05,0,0,0.05,33.9,0)" xlink:href="#aD"/><use transform="matrix(0.05,0,0,0.05,38.9,0)" xlink:href="#aV"/><use transform="matrix(0.05,0,0,0.05,48.9,0)" xlink:href="#aC"/><use transform="matrix(0.05,0,0,0.05,58.900000000000006,0)" xlink:href="#aU"/><use transform="matrix(0.05,0,0,0.05,67.9,0)" xlink:href="#by"/><use transform="matrix(0.05,0,0,0.05,79.9,0)" xlink:href="#aI"/><use transform="matrix(0.05,0,0,0.05,84.9,0)" xlink:href="#aC"/><use transform="matrix(0.05,0,0,0.05,94.9,0)" xlink:href="#aL"/><use transform="matrix(0.05,0,0,0.05,100.85000000000001,0)" xlink:href="#aI"/><use transform="matrix(0.05,0,0,0.05,105.85000000000001,0)" xlink:href="#bI"/><use transform="matrix(0.05,0,0,0.05,116.15,0)" xlink:href="#aT"/><use transform="matrix(0.05,0,0,0.05,120.10000000000001,0)" xlink:href="#br"/><use transform="matrix(0.05,0,0,0.05,135.05,0)" xlink:href="#aG"/></g><path d="M44-68c0 29 11 47 38 47 30 0 42-19 51-41l28 9C148-21 126 4 82 4 31 4 10-29 12-85c3-77 74-140 146-93 12 8 15 23 18 40l-31 5c-1-22-13-36-36-36-52 0-65 49-65 101" id="bJ"/><path d="M30-147c31-64 166-65 159 27C183-49 158 1 86 4 9 8 1-88 30-147zM88-20c53 0 68-48 68-100 0-31-11-51-44-50-52 1-68 46-68 97 0 32 13 53 44 53" id="bK"/><path d="M248-111c6-24 9-61-24-58-72 9-57 108-77 169h-31l26-142c3-37-50-30-64-10C52-115 50-51 37 0H6l36-190h30c-1 10-6 24-4 32 13-43 101-52 105 5 13-22 29-41 61-41 90 0 28 129 23 194h-31" id="bL"/><path d="M111-194c62-3 86 47 72 106H45c-7 38 6 69 45 68 27-1 43-14 53-32l24 11C152-15 129 4 87 4 38 3 12-23 12-71c0-70 32-119 99-123zm44 81c14-66-71-72-95-28-4 8-8 17-11 28h106" id="bM"/><path d="M67-158c22-48 132-52 116 29L158 0h-32l25-140c3-38-53-32-70-12C52-117 51-52 38 0H6l36-190h30" id="bN"/><path d="M51-54c-9 22 5 41 31 30L79-1C43 14 10-4 19-52l22-115H19l5-23h22l19-43h21l-9 43h35l-4 23H73" id="bO"/><g id="W"><use transform="matrix(0.05,0,0,0.05,0,0)" xlink:href="#bJ"/><use transform="matrix(0.05,0,0,0.05,9,0)" xlink:href="#bK"/><use transform="matrix(0.05,0,0,0.05,19,0)" xlink:href="#bL"/><use transform="matrix(0.05,0,0,0.05,33.95,0)" xlink:href="#bL"/><use transform="matrix(0.05,0,0,0.05,48.900000000000006,0)" xlink:href="#bM"/><use transform="matrix(0.05,0,0,0.05,58.900000000000006,0)" xlink:href="#bN"/><use transform="matrix(0.05,0,0,0.05,68.9,0)" xlink:href="#bJ"/><use transform="matrix(0.05,0,0,0.05,77.9,0)" xlink:href="#bM"/><use transform="matrix(0.05,0,0,0.05,87.9,0)" xlink:href="#bL"/><use transform="matrix(0.05,0,0,0.05,102.85000000000001,0)" xlink:href="#bM"/><use transform="matrix(0.05,0,0,0.05,112.85000000000001,0)" xlink:href="#bN"/><use transform="matrix(0.05,0,0,0.05,122.85000000000001,0)" xlink:href="#bO"/></g><g id="X"><use transform="matrix(0.05,0,0,0.05,0,0)" xlink:href="#aX"/><use transform="matrix(0.05,0,0,0.05,9,0)" xlink:href="#aU"/><use transform="matrix(0.05,0,0,0.05,18,0)" xlink:href="#aJ"/><use transform="matrix(0.05,0,0,0.05,28,0)" xlink:href="#aD"/><use transform="matrix(0.05,0,0,0.05,33,0)" xlink:href="#aJ"/><use transform="matrix(0.05,0,0,0.05,43,0)" xlink:href="#aC"/><use transform="matrix(0.05,0,0,0.05,53,0)" xlink:href="#aI"/><use transform="matrix(0.05,0,0,0.05,58,0)" xlink:href="#aG"/><use transform="matrix(0.05,0,0,0.05,68,0)" xlink:href="#bI"/><use transform="matrix(0.05,0,0,0.05,78.3,0)" xlink:href="#aT"/><use transform="matrix(0.05,0,0,0.05,82.25,0)" xlink:href="#br"/><use transform="matrix(0.05,0,0,0.05,97.2,0)" xlink:href="#aG"/></g><g id="Y"><use transform="matrix(0.05,0,0,0.05,0,0)" xlink:href="#aI"/><use transform="matrix(0.05,0,0,0.05,5,0)" xlink:href="#aT"/><use transform="matrix(0.05,0,0,0.05,8.95,0)" xlink:href="#br"/><use transform="matrix(0.05,0,0,0.05,23.9,0)" xlink:href="#aG"/><use transform="matrix(0.05,0,0,0.05,33.9,0)" xlink:href="#aD"/><use transform="matrix(0.05,0,0,0.05,38.9,0)" xlink:href="#aV"/><use transform="matrix(0.05,0,0,0.05,48.9,0)" xlink:href="#aC"/><use transform="matrix(0.05,0,0,0.05,58.900000000000006,0)" xlink:href="#aU"/><use transform="matrix(0.05,0,0,0.05,67.9,0)" xlink:href="#bs"/><use transform="matrix(0.05,0,0,0.05,79.9,0)" xlink:href="#aH"/><use transform="matrix(0.05,0,0,0.05,89.9,0)" xlink:href="#aJ"/><use transform="matrix(0.05,0,0,0.05,99.9,0)" xlink:href="#bI"/><use transform="matrix(0.05,0,0,0.05,110.2,0)" xlink:href="#aT"/><use transform="matrix(0.05,0,0,0.05,114.15,0)" xlink:href="#br"/><use transform="matrix(0.05,0,0,0.05,129.1,0)" xlink:href="#aG"/></g><path d="M67-162c32-53 139-36 121 50C175-51 163 2 97 4 68 4 52-11 42-31 38 6 28 39 22 75H-9l50-265h29c-1 10 0 20-3 28zm89 36c0-26-10-43-35-43-54 0-67 50-69 103-1 29 14 45 42 46 53 0 62-58 62-106" id="bP"/><path d="M6 0l50-261h32L37 0H6" id="bQ"/><path d="M50-231l6-30h32l-6 30H50zM6 0l37-190h31L37 0H6" id="bR"/><g id="Z"><use transform="matrix(0.05,0,0,0.05,0,0)" xlink:href="#bJ"/><use transform="matrix(0.05,0,0,0.05,9,0)" xlink:href="#bK"/><use transform="matrix(0.05,0,0,0.05,19,0)" xlink:href="#bL"/><use transform="matrix(0.05,0,0,0.05,33.95,0)" xlink:href="#bP"/><use transform="matrix(0.05,0,0,0.05,43.95,0)" xlink:href="#bQ"/><use transform="matrix(0.05,0,0,0.05,47.900000000000006,0)" xlink:href="#bM"/><use transform="matrix(0.05,0,0,0.05,57.900000000000006,0)" xlink:href="#bO"/><use transform="matrix(0.05,0,0,0.05,62.900000000000006,0)" xlink:href="#bR"/><use transform="matrix(0.05,0,0,0.05,66.85000000000001,0)" xlink:href="#bK"/><use transform="matrix(0.05,0,0,0.05,76.85000000000001,0)" xlink:href="#bN"/></g><g id="aa"><use transform="matrix(0.05,0,0,0.05,0,0)" xlink:href="#aS"/><use transform="matrix(0.05,0,0,0.05,3.95,0)" xlink:href="#aB"/><use transform="matrix(0.05,0,0,0.05,13.949999999999998,0)" xlink:href="#aK"/><use transform="matrix(0.05,0,0,0.05,22.95,0)" xlink:href="#aH"/><use transform="matrix(0.05,0,0,0.05,32.95,0)" xlink:href="#aD"/><use transform="matrix(0.05,0,0,0.05,37.95,0)" xlink:href="#aF"/><use transform="matrix(0.05,0,0,0.05,47.95,0)" xlink:href="#aG"/><use transform="matrix(0.05,0,0,0.05,57.95,0)" xlink:href="#aB"/><use transform="matrix(0.05,0,0,0.05,67.95,0)" xlink:href="#br"/><use transform="matrix(0.05,0,0,0.05,82.9,0)" xlink:href="#aG"/><use transform="matrix(0.05,0,0,0.05,92.9,0)" xlink:href="#aI"/><use transform="matrix(0.05,0,0,0.05,97.9,0)" xlink:href="#aL"/><use transform="matrix(0.05,0,0,0.05,103.85000000000001,0)" xlink:href="#bk"/></g><g id="ab"><use transform="matrix(0.05,0,0,0.05,0,0)" xlink:href="#aJ"/><use transform="matrix(0.05,0,0,0.05,10,0)" xlink:href="#aK"/><use transform="matrix(0.05,0,0,0.05,19,0)" xlink:href="#aI"/><use transform="matrix(0.05,0,0,0.05,24,0)" xlink:href="#aD"/><use transform="matrix(0.05,0,0,0.05,29,0)" xlink:href="#bH"/><use transform="matrix(0.05,0,0,0.05,39,0)" xlink:href="#aB"/><use transform="matrix(0.05,0,0,0.05,49,0)" xlink:href="#aK"/><use transform="matrix(0.05,0,0,0.05,58,0)" xlink:href="#aC"/><use transform="matrix(0.05,0,0,0.05,68,0)" xlink:href="#aI"/><use transform="matrix(0.05,0,0,0.05,73,0)" xlink:href="#aT"/><use transform="matrix(0.05,0,0,0.05,76.95,0)" xlink:href="#aB"/><use transform="matrix(0.05,0,0,0.05,86.95,0)" xlink:href="#aH"/></g><path d="M33 0v-248h34V0H33" id="bS"/><g id="ac"><use transform="matrix(0.05,0,0,0.05,0,0)" xlink:href="#aW"/><use transform="matrix(0.05,0,0,0.05,12,0)" xlink:href="#aL"/><use transform="matrix(0.05,0,0,0.05,17.95,0)" xlink:href="#aB"/><use transform="matrix(0.05,0,0,0.05,27.950000000000003,0)" xlink:href="#aP"/><use transform="matrix(0.05,0,0,0.05,37.95,0)" xlink:href="#aG"/><use transform="matrix(0.05,0,0,0.05,47.95,0)" xlink:href="#aL"/><use transform="matrix(0.05,0,0,0.05,53.900000000000006,0)" xlink:href="#bS"/><use transform="matrix(0.05,0,0,0.05,58.900000000000006,0)" xlink:href="#aH"/><use transform="matrix(0.05,0,0,0.05,68.9,0)" xlink:href="#aI"/><use transform="matrix(0.05,0,0,0.05,73.9,0)" xlink:href="#aG"/><use transform="matrix(0.05,0,0,0.05,83.9,0)" xlink:href="#aL"/><use transform="matrix(0.05,0,0,0.05,89.85000000000001,0)" xlink:href="#bB"/><use transform="matrix(0.05,0,0,0.05,98.85000000000001,0)" xlink:href="#aC"/><use transform="matrix(0.05,0,0,0.05,108.85000000000001,0)" xlink:href="#aS"/></g><g id="ad"><use transform="matrix(0.05,0,0,0.05,0,0)" xlink:href="#aL"/><use transform="matrix(0.05,0,0,0.05,5.95,0)" xlink:href="#aJ"/><use transform="matrix(0.05,0,0,0.05,15.949999999999998,0)" xlink:href="#aA"/><use transform="matrix(0.05,0,0,0.05,20.95,0)" xlink:href="#aU"/><use transform="matrix(0.05,0,0,0.05,29.950000000000003,0)" xlink:href="#aD"/><use transform="matrix(0.05,0,0,0.05,34.95,0)" xlink:href="#aU"/><use transform="matrix(0.05,0,0,0.05,43.95,0)" xlink:href="#aG"/><use transform="matrix(0.05,0,0,0.05,53.95,0)" xlink:href="#aG"/><use transform="matrix(0.05,0,0,0.05,63.95,0)" xlink:href="#aE"/><use transform="matrix(0.05,0,0,0.05,75.95,0)" xlink:href="#aS"/><use transform="matrix(0.05,0,0,0.05,79.9,0)" xlink:href="#aU"/><use transform="matrix(0.05,0,0,0.05,88.9,0)" xlink:href="#aB"/></g><g id="ae"><use transform="matrix(0.05,0,0,0.05,0,0)" xlink:href="#aA"/><use transform="matrix(0.05,0,0,0.05,5,0)" xlink:href="#aB"/><use transform="matrix(0.05,0,0,0.05,15,0)" xlink:href="#aC"/><use transform="matrix(0.05,0,0,0.05,25,0)" xlink:href="#aA"/><use transform="matrix(0.05,0,0,0.05,30,0)" xlink:href="#aD"/><use transform="matrix(0.05,0,0,0.05,35,0)" xlink:href="#bq"/><use transform="matrix(0.05,0,0,0.05,47.95,0)" xlink:href="#aB"/><use transform="matrix(0.05,0,0,0.05,57.95,0)" xlink:href="#aK"/><use transform="matrix(0.05,0,0,0.05,66.95,0)" xlink:href="#aQ"/><use transform="matrix(0.05,0,0,0.05,76.95,0)" xlink:href="#br"/><use transform="matrix(0.05,0,0,0.05,91.9,0)" xlink:href="#aG"/><use transform="matrix(0.05,0,0,0.05,101.9,0)" xlink:href="#aH"/><use transform="matrix(0.05,0,0,0.05,111.9,0)" xlink:href="#aI"/></g><g id="af"><use transform="matrix(0.05,0,0,0.05,0,0)" xlink:href="#aJ"/><use transform="matrix(0.05,0,0,0.05,10,0)" xlink:href="#aK"/><use transform="matrix(0.05,0,0,0.05,19,0)" xlink:href="#aC"/><use transform="matrix(0.05,0,0,0.05,29,0)" xlink:href="#aI"/><use transform="matrix(0.05,0,0,0.05,34,0)" xlink:href="#aD"/><use transform="matrix(0.05,0,0,0.05,39,0)" xlink:href="#aI"/><use transform="matrix(0.05,0,0,0.05,44,0)" xlink:href="#aV"/><use transform="matrix(0.05,0,0,0.05,54,0)" xlink:href="#aG"/><use transform="matrix(0.05,0,0,0.05,64,0)" xlink:href="#br"/><use transform="matrix(0.05,0,0,0.05,78.95,0)" xlink:href="#aG"/></g><path d="M80-196l47-18 7 23-49 13 32 44-20 13-27-46-27 45-21-12 33-44-49-13 8-23 47 19-2-53h23" id="bT"/><g id="ag"><use transform="matrix(0.05,0,0,0.05,0,0)" xlink:href="#aM"/><use transform="matrix(0.05,0,0,0.05,5,0)" xlink:href="#aN"/><use transform="matrix(0.05,0,0,0.05,15,0)" xlink:href="#bF"/><use transform="matrix(0.05,0,0,0.05,20,0)" xlink:href="#bF"/><use transform="matrix(0.05,0,0,0.05,25,0)" xlink:href="#bT"/><use transform="matrix(0.05,0,0,0.05,32,0)" xlink:href="#aO"/></g><g id="ah"><use transform="matrix(0.05,0,0,0.05,0,0)" xlink:href="#aE"/><use transform="matrix(0.05,0,0,0.05,12,0)" xlink:href="#aK"/><use transform="matrix(0.05,0,0,0.05,21,0)" xlink:href="#aK"/><use transform="matrix(0.05,0,0,0.05,30,0)" xlink:href="#aG"/><use transform="matrix(0.05,0,0,0.05,40,0)" xlink:href="#aU"/><use transform="matrix(0.05,0,0,0.05,49,0)" xlink:href="#aU"/></g><g id="ai"><use transform="matrix(0.05,0,0,0.05,0,0)" xlink:href="#bC"/><use transform="matrix(0.05,0,0,0.05,12.950000000000001,0)" xlink:href="#aT"/><use transform="matrix(0.05,0,0,0.05,16.900000000000002,0)" xlink:href="#aF"/><use transform="matrix(0.05,0,0,0.05,26.900000000000002,0)" xlink:href="#aV"/><use transform="matrix(0.05,0,0,0.05,36.900000000000006,0)" xlink:href="#aI"/><use transform="matrix(0.05,0,0,0.05,41.900000000000006,0)" xlink:href="#aU"/></g><g id="aj"><use transform="matrix(0.05,0,0,0.05,0,0)" xlink:href="#aV"/><use transform="matrix(0.05,0,0,0.05,10,0)" xlink:href="#aC"/><use transform="matrix(0.05,0,0,0.05,20,0)" xlink:href="#aU"/></g><g id="ak"><use transform="matrix(0.05,0,0,0.05,0,0)" xlink:href="#aC"/><use transform="matrix(0.05,0,0,0.05,10,0)" xlink:href="#aK"/><use transform="matrix(0.05,0,0,0.05,19,0)" xlink:href="#aK"/><use transform="matrix(0.05,0,0,0.05,28,0)" xlink:href="#aG"/><use transform="matrix(0.05,0,0,0.05,38,0)" xlink:href="#aU"/><use transform="matrix(0.05,0,0,0.05,47,0)" xlink:href="#aU"/></g><g id="al"><use transform="matrix(0.05,0,0,0.05,0,0)" xlink:href="#aL"/><use transform="matrix(0.05,0,0,0.05,5.95,0)" xlink:href="#aT"/><use transform="matrix(0.05,0,0,0.05,9.9,0)" xlink:href="#aF"/><use transform="matrix(0.05,0,0,0.05,19.9,0)" xlink:href="#aV"/><use transform="matrix(0.05,0,0,0.05,29.899999999999995,0)" xlink:href="#aI"/><use transform="matrix(0.05,0,0,0.05,34.9,0)" xlink:href="#aU"/></g><g id="am"><use transform="matrix(0.05,0,0,0.05,0,0)" xlink:href="#aJ"/><use transform="matrix(0.05,0,0,0.05,10,0)" xlink:href="#aK"/><use transform="matrix(0.05,0,0,0.05,19,0)" xlink:href="#aC"/><use transform="matrix(0.05,0,0,0.05,29,0)" xlink:href="#aI"/><use transform="matrix(0.05,0,0,0.05,34,0)" xlink:href="#aD"/><use transform="matrix(0.05,0,0,0.05,39,0)" xlink:href="#bI"/><use transform="matrix(0.05,0,0,0.05,49.95,0)" xlink:href="#aV"/><use transform="matrix(0.05,0,0,0.05,59.95,0)" xlink:href="#aG"/><use transform="matrix(0.05,0,0,0.05,69.95,0)" xlink:href="#br"/><use transform="matrix(0.05,0,0,0.05,84.9,0)" xlink:href="#aG"/></g><g id="an"><use transform="matrix(0.05,0,0,0.05,0,0)" xlink:href="#bs"/><use transform="matrix(0.05,0,0,0.05,12,0)" xlink:href="#aC"/><use transform="matrix(0.05,0,0,0.05,22,0)" xlink:href="#aL"/><use transform="matrix(0.05,0,0,0.05,27.950000000000003,0)" xlink:href="#aI"/><use transform="matrix(0.05,0,0,0.05,32.95,0)" xlink:href="#aV"/></g><g id="ao"><use transform="matrix(0.05,0,0,0.05,0,0)" xlink:href="#by"/><use transform="matrix(0.05,0,0,0.05,12,0)" xlink:href="#aK"/><use transform="matrix(0.05,0,0,0.05,21,0)" xlink:href="#aT"/><use transform="matrix(0.05,0,0,0.05,24.95,0)" xlink:href="#aG"/><use transform="matrix(0.05,0,0,0.05,34.95,0)" xlink:href="#aH"/><use transform="matrix(0.05,0,0,0.05,44.95,0)" xlink:href="#aK"/><use transform="matrix(0.05,0,0,0.05,53.95,0)" xlink:href="#aG"/></g><g id="ap"><use transform="matrix(0.05,0,0,0.05,0,0)" xlink:href="#bq"/><use transform="matrix(0.05,0,0,0.05,12.950000000000001,0)" xlink:href="#aC"/><use transform="matrix(0.05,0,0,0.05,22.950000000000003,0)" xlink:href="#aI"/><use transform="matrix(0.05,0,0,0.05,27.950000000000003,0)" xlink:href="#aC"/></g><g id="aq"><use transform="matrix(0.05,0,0,0.05,0,0)" xlink:href="#bm"/><use transform="matrix(0.05,0,0,0.05,12.950000000000001,0)" xlink:href="#aC"/><use transform="matrix(0.05,0,0,0.05,22.950000000000003,0)" xlink:href="#aI"/><use transform="matrix(0.05,0,0,0.05,27.950000000000003,0)" xlink:href="#aG"/><use transform="matrix(0.05,0,0,0.05,37.95,0)" xlink:href="#aF"/><use transform="matrix(0.05,0,0,0.05,47.95,0)" xlink:href="#aB"/><use transform="matrix(0.05,0,0,0.05,57.95,0)" xlink:href="#aL"/><use transform="matrix(0.05,0,0,0.05,63.900000000000006,0)" xlink:href="#bk"/></g><g id="ar"><use transform="matrix(0.05,0,0,0.05,0,0)" xlink:href="#aG"/><use transform="matrix(0.05,0,0,0.05,10,0)" xlink:href="#aC"/><use transform="matrix(0.05,0,0,0.05,20,0)" xlink:href="#aL"/><use transform="matrix(0.05,0,0,0.05,25.950000000000003,0)" xlink:href="#aI"/><use transform="matrix(0.05,0,0,0.05,30.950000000000003,0)" xlink:href="#aV"/></g><g id="as"><use transform="matrix(0.05,0,0,0.05,0,0)" xlink:href="#aU"/><use transform="matrix(0.05,0,0,0.05,9,0)" xlink:href="#aK"/><use transform="matrix(0.05,0,0,0.05,18,0)" xlink:href="#aT"/><use transform="matrix(0.05,0,0,0.05,21.95,0)" xlink:href="#aG"/><use transform="matrix(0.05,0,0,0.05,31.950000000000003,0)" xlink:href="#aH"/><use transform="matrix(0.05,0,0,0.05,41.95,0)" xlink:href="#aK"/><use transform="matrix(0.05,0,0,0.05,50.95,0)" xlink:href="#aG"/></g><g id="at"><use transform="matrix(0.05,0,0,0.05,0,0)" xlink:href="#aJ"/><use transform="matrix(0.05,0,0,0.05,10,0)" xlink:href="#aC"/><use transform="matrix(0.05,0,0,0.05,20,0)" xlink:href="#aI"/><use transform="matrix(0.05,0,0,0.05,25,0)" xlink:href="#aC"/></g><g id="au"><use transform="matrix(0.05,0,0,0.05,0,0)" xlink:href="#aM"/><use transform="matrix(0.05,0,0,0.05,5,0)" xlink:href="#bE"/><use transform="matrix(0.05,0,0,0.05,15,0)" xlink:href="#bF"/><use transform="matrix(0.05,0,0,0.05,20,0)" xlink:href="#bF"/><use transform="matrix(0.05,0,0,0.05,25,0)" xlink:href="#bT"/><use transform="matrix(0.05,0,0,0.05,32,0)" xlink:href="#aO"/></g></defs></g></svg>