<svg xmlns="http://www.w3.org/2000/svg" xmlns:xlink="http://www.w3.org/1999/xlink" xmlns:lucid="lucid" width="1420" height="860"><g transform="translate(-4.44641275465014 -4.44641275465014)" lucid:page-tab-id="0_0"><path d="M0 0h1428.9v1010.86H0z" fill="#fff"/><path d="M984.45 349.45c0-2.77 2.23-5 5-5h150c2.76 0 5 2.23 5 5v110c0 2.76-2.24 5-5 5h-150c-2.77 0-5-2.24-5-5z" stroke="#000" stroke-width="2" fill="#fff"/><use xlink:href="#a" transform="matrix(1,0,0,1,992.44641275465,352.4464127546501) translate(50.5 44.8)"/><use xlink:href="#b" transform="matrix(1,0,0,1,992.44641275465,352.4464127546501) translate(41.55 66.4)"/><path d="M604.45 268.45c0-2.77 2.23-5 5-5h150c2.76 0 5 2.23 5 5v110c0 2.76-2.24 5-5 5h-150c-2.77 0-5-2.24-5-5z" stroke="#000" stroke-width="2" fill="#666"/><use xlink:href="#c" transform="matrix(1,0,0,1,612.4464127546502,271.4464127546501) translate(41.025 55.6)"/><path d="M766.38 323.8L966.1 398" stroke="#000" stroke-width="2" fill="none"/><path d="M766.76 322.87l-.7 1.87-.6-.23v-2.12z"/><path d="M980.4 403.32l-14.97-.62 3.22-8.7zM984.45 657.56c0-2.76 1.93-6.12 4.32-7.5l71.35-41.5c2.4-1.4 6.26-1.4 8.65 0l71.35 41.5c2.4 1.38 4.33 4.74 4.33 7.5v63.5c0 2.75-2.24 5-5 5h-150c-2.77 0-5-2.25-5-5z" stroke="#000" stroke-width="2" fill="#fff"/><use xlink:href="#d" transform="matrix(1,0,0,1,984.44641275465,606.0464127546695) translate(29.074999999999996 63.6)"/><path d="M1022.53 626.9l-1.34 1.5-119.67-107.9h3zM832.65 455.7h-3l-77.47-69.84 1.34-1.5z"/><path d="M752.2 385.88l-1.6-1.43h2.9zM1023.2 628.87l-21.25-4.3.4-1.96 17.94 3.64-5.47-17.48 1.9-.6z"/><use xlink:href="#e" transform="matrix(1,0,0,1,785.6146602039714,455.7137195339593) translate(53.059999999999974 14.4)"/><use xlink:href="#f" transform="matrix(1,0,0,1,785.6146602039714,455.7137195339593) translate(142.95999999999998 14.4)"/><use xlink:href="#g" transform="matrix(1,0,0,1,785.6146602039714,455.7137195339593) translate(36.10999999999997 36)"/><use xlink:href="#h" transform="matrix(1,0,0,1,785.6146602039714,455.7137195339593) translate(142.95999999999998 36)"/><use xlink:href="#i" transform="matrix(1,0,0,1,785.6146602039714,455.7137195339593) translate(0.009999999999990905 57.6)"/><use xlink:href="#j" transform="matrix(1,0,0,1,785.6146602039714,455.7137195339593) translate(142.95999999999998 57.6)"/><path d="M630.76 471.94l-1.7-1.07 10.38-16.55h2.36zm54-86.12l-29.4 46.9h-2.37l30.07-47.96z"/><path d="M684.75 385.85l-1.7-1.07.22-.33h2.36zM631.03 469.62l16.27-8.4.92 1.78-19.28 9.95.5-18.63h2z"/><use xlink:href="#k" transform="matrix(1,0,0,1,613.2975668430355,432.7223063740752) translate(0 14.4)"/><path d="M264.45 84.45h160v40h-160z" stroke="#000" fill="#fff"/><use xlink:href="#l" transform="matrix(1,0,0,1,269.44641275465017,89.44641275465014) translate(36.55 18.6)"/><path d="M633.57 261.1l-.86 1.82-100.3-47.62h4.67zm-187.5-89h-4.65l-95.76-45.47.86-1.8z"/><path d="M636.38 262.45h-3.47l.65-1.35zM366.23 124.97L348 126.63l10.23 15.18-1.65 1.13-12.13-17.98h21.78z"/><use xlink:href="#m" transform="matrix(1,0,0,1,431.32141275465017,172.09641275465012) translate(29.480000000000004 14.4)"/><use xlink:href="#n" transform="matrix(1,0,0,1,431.32141275465017,172.09641275465012) translate(0.005000000000002558 36)"/><path d="M498.24 692.13l-.73-.7 9.6-10.03h1.37zM610.2 574.65l-60.56 63.55h-1.38l61.23-64.24z"/><path d="M610.2 574.66l-.72-.7h1.4zM498.6 691.02l18.44-5.2.27.96-20.05 5.67 2.55-11.05h1.03z"/><use xlink:href="#o" transform="matrix(1,0,0,1,455.83937067262355,638.1994183918304) translate(0 14.4)"/><use xlink:href="#p" transform="matrix(1,0,0,1,455.83937067262355,638.1994183918304) translate(0 36)"/><path d="M530.2 493.45c0-11.05 8.95-20 20-20h120c11.04 0 20 8.95 20 20v60c0 11.04-8.96 20-20 20h-120c-11.05 0-20-8.96-20-20z" stroke="#000" fill="#fff"/><use xlink:href="#q" transform="matrix(1,0,0,1,535.1964127546529,478.4464127546695) translate(55.55 37.8)"/><use xlink:href="#r" transform="matrix(1,0,0,1,535.1964127546529,478.4464127546695) translate(18.599999999999994 59.4)"/><path d="M417.25 692.95h160v40h-160z" stroke="#000" fill="#fff"/><use xlink:href="#s" transform="matrix(1,0,0,1,422.24641275465297,697.9464127546308) translate(21.4 18.6)"/><path d="M643.15 692.95h160v40h-160z" stroke="#000" fill="#fff"/><use xlink:href="#s" transform="matrix(1,0,0,1,648.1464127546527,697.9464127546308) translate(21.4 18.6)"/><path d="M722.88 691.44l-.72.7-9.02-9.46h1.4zm-49.53-51.96h-1.38l-61.8-64.83.73-.7z"/><path d="M610.9 573.97l-.7.7-.7-.72h1.4zM723.15 692.45l-20.06-5.67.26-.96 18.43 5.2-1.94-8.34h1.03z"/><use xlink:href="#t" transform="matrix(1,0,0,1,623.696041036002,639.4768328638919) translate(0 14.4)"/><use xlink:href="#u" transform="matrix(1,0,0,1,623.696041036002,639.4768328638919) translate(0 36)"/><path d="M984.45 29.45c0-2.77 2.23-5 5-5h150c2.76 0 5 2.23 5 5v110c0 2.76-2.24 5-5 5h-150c-2.77 0-5-2.24-5-5z" stroke="#000" stroke-width="2" fill="#666"/><use xlink:href="#v" transform="matrix(1,0,0,1,992.44641275465,32.44641275465014) translate(44.025 55.6)"/><path d="M1204.45 709.45c0-2.77 2.23-5 5-5h150c2.76 0 5 2.23 5 5v30c0 2.76-2.24 5-5 5h-150c-2.77 0-5-2.24-5-5z" stroke="#000" stroke-opacity="0" stroke-width="2" fill="#fff" fill-opacity="0"/><use xlink:href="#w" transform="matrix(1,0,0,1,1209.44641275465,709.4464127546511) translate(0 22.799999999999997)"/><path d="M1204.45 372.1c0-2.75 2.23-5 5-5h150c2.76 0 5 2.25 5 5v110c0 2.77-2.24 5-5 5h-150c-2.77 0-5-2.23-5-5z" stroke="#000" stroke-width="2" fill="#b2b2b2"/><use xlink:href="#x" transform="matrix(1,0,0,1,1212.44641275465,375.11307942131674) translate(51 44.8)"/><use xlink:href="#y" transform="matrix(1,0,0,1,1212.44641275465,375.11307942131674) translate(38.525 66.4)"/><path d="M1204.45 229.45c0-2.77 2.23-5 5-5h150c2.76 0 5 2.23 5 5v110c0 2.76-2.24 5-5 5h-150c-2.77 0-5-2.24-5-5z" stroke="#000" stroke-width="2" fill="#666"/><use xlink:href="#z" transform="matrix(1,0,0,1,1212.44641275465,232.4464127546501) translate(27.049999999999997 55.6)"/><use xlink:href="#A" transform="matrix(1,0,0,1,1212.44641275465,232.4464127546501) translate(72.05 55.6)"/><path d="M1204.45 29.45c0-2.77 2.23-5 5-5h190c2.76 0 5 2.23 5 5v50c0 2.76-2.24 5-5 5h-190c-2.77 0-5-2.24-5-5z" stroke="#000" stroke-opacity="0" stroke-width="2" fill="#fff" fill-opacity="0"/><use xlink:href="#B" transform="matrix(1,0,0,1,1209.44641275465,29.44641275465014) translate(0 28.6)"/><use xlink:href="#C" transform="matrix(1,0,0,1,1209.44641275465,29.44641275465014) translate(72.80000000000001 28.6)"/><use xlink:href="#D" transform="matrix(1,0,0,1,1209.44641275465,29.44641275465014) translate(143.70000000000002 28.6)"/><path d="M1204.45 86.78c0-2.76 2.23-5 5-5h150c2.76 0 5 2.24 5 5v110c0 2.76-2.24 5-5 5h-150c-2.77 0-5-2.24-5-5z" stroke="#000" stroke-width="2" fill="#fff"/><use xlink:href="#E" transform="matrix(1,0,0,1,1212.44641275465,89.77974608798351) translate(33.599999999999994 44.8)"/><use xlink:href="#F" transform="matrix(1,0,0,1,1212.44641275465,89.77974608798351) translate(5.099999999999994 66.4)"/><use xlink:href="#G" transform="matrix(1,0,0,1,1212.44641275465,89.77974608798351) translate(92 66.4)"/><path d="M1205.45 684.45h117.18M1205.47 684.45h-1.02M1305.27 694.63l17.2-10.18-17.2-10.18" stroke="#000" stroke-width="2" fill="none"/><path d="M1204.45 561.3c0-2.76 1.93-6.13 4.32-7.52l71.35-41.5c2.4-1.37 6.26-1.37 8.65 0l71.35 41.5c2.4 1.4 4.33 4.76 4.33 7.52v63.48c0 2.76-2.24 5-5 5h-150c-2.77 0-5-2.24-5-5z" stroke="#000" stroke-width="2" fill="#fff"/><use xlink:href="#H" transform="matrix(1,0,0,1,1204.44641275465,509.7797460879835) translate(60.025 52.8)"/><use xlink:href="#I" transform="matrix(1,0,0,1,1204.44641275465,509.7797460879835) translate(56.5 74.4)"/><path d="M766.66 267.3l-1.28-1.54 94.5-79.15h3.13zM982.7 86.37L888.8 165h-3.1l95.7-80.15z"/><path d="M766.68 267.27l-1.24 1.04-.3-1.83-.23-.32.5-.4zM976.22 104.9l-1.88-.67 6.1-17.26-18.07 2.97-.33-1.97 21.4-3.52z"/><use xlink:href="#J" transform="matrix(1,0,0,1,811.4244307842766,165.0050649678068) translate(0.005000000000002558 14.4)"/><path d="M1204.45 809.45c0-2.77 2.23-5 5-5h150c2.76 0 5 2.23 5 5v30c0 2.76-2.24 5-5 5h-150c-2.77 0-5-2.24-5-5z" stroke="#000" stroke-opacity="0" stroke-width="2" fill="#fff" fill-opacity="0"/><use xlink:href="#K" transform="matrix(1,0,0,1,1209.44641275465,809.4464127546479) translate(0 22.799999999999997)"/><path d="M1205.45 784.45h100.5M1205.47 784.45h-1.02" stroke="#000" stroke-width="2" fill="none"/><path d="M1321.2 784.45l-14.26 4.63v-9.27z" stroke="#000" stroke-width="2" fill="#fff"/><path d="M604.45 84.45h160v40h-160z" stroke="#000" fill="#fff"/><use xlink:href="#L" transform="matrix(1,0,0,1,609.4464127546502,89.44641275465014) translate(41 18.6)"/><path d="M685.45 261.45h-2V215.3h2zm0-89.35h-2v-45.34h2z"/><path d="M685.45 262.45h-2v-1.03h2zM695.5 143.62l-1.73 1-9.32-15.74-9.32 15.75-1.73-1 11.05-18.68z"/><use xlink:href="#M" transform="matrix(1,0,0,1,639.9714127546501,172.09641275465012) translate(0.005000000000002558 14.4)"/><use xlink:href="#N" transform="matrix(1,0,0,1,639.9714127546501,172.09641275465012) translate(4.005000000000003 36)"/><path d="M984.45 189.45c0-2.77 2.23-5 5-5h150c2.76 0 5 2.23 5 5v110c0 2.76-2.24 5-5 5h-150c-2.77 0-5-2.24-5-5z" stroke="#000" stroke-width="2" fill="#fff"/><use xlink:href="#O" transform="matrix(1,0,0,1,992.44641275465,192.44641275465014) translate(21.525 55.6)"/><path d="M766.4 323.1l199.65-72.35M766.4 323.1l-.95.35" stroke="#000" stroke-width="2" fill="none"/><path d="M980.4 245.55l-11.83 9.22-3.16-8.72z" stroke="#000" stroke-width="2" fill="#fff"/><path d="M822.75 558.97l3.73 5.1 2.6 3.88 1.9 3.1 1.42 2.56 1.1 2.18.83 1.88.64 1.6 3.17 7.9 11.6 27.26 2.03 5.8 1.42 4.64 1.03 3.98.76 3.53.55 3.22.38 2.97.24 2.8.12 2.65v2.53l-.1 2.43-.2 2.37-.27 2.3-.38 2.26-.47 2.25-.56 2.2-.66 2.2-.76 2.2-.87 2.23-1 2.24-1.1 2.27-1.27 2.3-1.43 2.38-1.62 2.44-1.8 2.53-2.08 2.63-2.36 2.75-2.7 2.88-3.1 3.07-3.6 3.25-4.2 3.5-4.95 3.76-5.87 4.1-7.07 4.52-2.14 1.27-1.02-1.7 2.1-1.27 7.02-4.47 5.8-4.06 4.9-3.72 4.12-3.44 3.54-3.18 3.04-3 2.65-2.83 2.3-2.7 2.02-2.55 1.77-2.46 1.57-2.4 1.38-2.3 1.23-2.23 1.08-2.2.96-2.16.83-2.13.73-2.12.63-2.13.54-2.13.45-2.15.35-2.18.27-2.23.2-2.28.08-2.35v-2.44l-.12-2.56-.24-2.7-.37-2.9-.54-3.15-.75-3.45-1-3.9-1.4-4.56-2-5.7-11.6-27.23-3.16-7.88-.63-1.58-.82-1.8-1.05-2.1-1.38-2.48-1.85-3.04-2.56-3.8-3.68-5.04-4.4-5.5h2.56zM687.85 390.3l3.03 6.7 3.68 7.37 4.5 8.15 5.6 9.15 7 10.47 9.02 12.33 12.17 15.23 18.47 21.2 34.3 37v2.6h2.4l11.66 12.58h-2.73l-47.12-50.83-18.52-21.27-12.2-15.3-9.08-12.4-7.05-10.53-5.63-9.23-4.55-8.22-3.73-7.43-3.05-6.8-2.13-5.32 1.85-.74z"/><path d="M685.76 385.03l-1.86.74-.53-1.32h2.15zM815.27 694.53l-8.3 16.3 18.3-.57.06 2-21.68.7 9.84-19.34z"/><use xlink:href="#P" transform="matrix(1,0,0,1,727.27338564465,533.077439796443) translate(0 14.4)"/><path d="M264.45 268.45c0-2.77 2.23-5 5-5h150c2.76 0 5 2.23 5 5v110c0 2.76-2.24 5-5 5h-150c-2.77 0-5-2.24-5-5z" stroke="#000" stroke-width="2" fill="#fff"/><use xlink:href="#Q" transform="matrix(1,0,0,1,272.44641275465017,271.4464127546501) translate(7.625 55.6)"/><path d="M451.55 324.45h-24.3v-2h24.3zm150.9 0h-25.1v-2h25.1z"/><path d="M603.45 324.45h-1.03v-2h1.03zM445.13 314.13l-15.75 9.32 15.75 9.32-1 1.72-18.68-11.05 18.67-11.05z"/><g><use xlink:href="#R" transform="matrix(1,0,0,1,451.5464127546502,312.6464127546501) translate(0.005000000000002558 14.4)"/></g><path d="M264.45 469.45c0-2.77 2.23-5 5-5h150c2.76 0 5 2.23 5 5v110c0 2.76-2.24 5-5 5h-150c-2.77 0-5-2.24-5-5z" stroke="#000" stroke-width="2" fill="#fff"/><g><use xlink:href="#a" transform="matrix(1,0,0,1,272.44641275465017,472.44641275465005) translate(50.5 44.8)"/><use xlink:href="#S" transform="matrix(1,0,0,1,272.44641275465017,472.44641275465005) translate(1.5749999999999886 66.4)"/></g><path d="M603.53 324.86L427.4 523.76l-1.5-1.34 176.13-198.9z"/><path d="M603.45 324.82l-1.43-1.27 1.43-1.6zM431.52 503.53l-3.47 17.98 17.43-5.6.6 1.9-20.63 6.65 4.1-21.3z"/><g><use xlink:href="#T" transform="matrix(1,0,0,1,272.7903479368999,397.80700071901003) translate(81.35499999999999 14.4)"/><use xlink:href="#U" transform="matrix(1,0,0,1,272.7903479368999,397.80700071901003) translate(0.0049999999999954525 36)"/></g><path d="M24.45 367.1h160v40h-160z" stroke="#000" fill="#fff"/><g><use xlink:href="#V" transform="matrix(1,0,0,1,29.44641275465014,372.11307942131674) translate(26.049999999999997 18.6)"/></g><path d="M451.55 324.45h-25.1v-2h25.1z"/><path d="M426.47 324.45h-1.02v-2h1.02z"/><path/><path/><path d="M262.45 323.45H224.2v63.66h-37.44" stroke="#000" stroke-width="2" fill="none"/><path d="M263.45 324.45h-1.03v-2h1.03zM204.63 377.8l-15.75 9.3 15.75 9.33-1 1.72-18.68-11.04 18.67-11.03z"/><g><use xlink:href="#W" transform="matrix(1,0,0,1,64.3964127546502,328.04641275465) translate(0 14.4)"/></g><defs><path d="M135-143c-3-34-86-38-87 0 15 53 115 12 119 90S17 21 10-45l28-5c4 36 97 45 98 0-10-56-113-15-118-90-4-57 82-63 122-42 12 7 21 19 24 35" id="X"/><path d="M100-194c62-1 85 37 85 99 1 63-27 99-86 99S16-35 15-95c0-66 28-99 85-99zM99-20c44 1 53-31 53-75 0-43-8-75-51-75s-53 32-53 75 10 74 51 75" id="Y"/><path d="M141-36C126-15 110 5 73 4 37 3 15-17 15-53c-1-64 63-63 125-63 3-35-9-54-41-54-24 1-41 7-42 31l-33-3c5-37 33-52 76-52 45 0 72 20 72 64v82c-1 20 7 32 28 27v20c-31 9-61-2-59-35zM48-53c0 20 12 33 32 33 41-3 63-29 60-74-43 2-92-5-92 41" id="Z"/><path d="M33-154v-36h34v36H33zM33 0v-36h34V0H33" id="aa"/><g id="a"><use transform="matrix(0.05,0,0,0.05,0,0)" xlink:href="#X"/><use transform="matrix(0.05,0,0,0.05,9,0)" xlink:href="#Y"/><use transform="matrix(0.05,0,0,0.05,19,0)" xlink:href="#X"/><use transform="matrix(0.05,0,0,0.05,28,0)" xlink:href="#Z"/><use transform="matrix(0.05,0,0,0.05,38,0)" xlink:href="#aa"/></g><path d="M185-189c-5-48-123-54-124 2 14 75 158 14 163 119 3 78-121 87-175 55-17-10-28-26-33-46l33-7c5 56 141 63 141-1 0-78-155-14-162-118-5-82 145-84 179-34 5 7 8 16 11 25" id="ab"/><path d="M210-169c-67 3-38 105-44 169h-31v-121c0-29-5-50-35-48C34-165 62-65 56 0H25l-1-190h30c1 10-1 24 2 32 10-44 99-50 107 0 11-21 27-35 58-36 85-2 47 119 55 194h-31v-121c0-29-5-49-35-48" id="ac"/><path d="M115-194c55 1 70 41 70 98S169 2 115 4C84 4 66-9 55-30l1 105H24l-1-265h31l2 30c10-21 28-34 59-34zm-8 174c40 0 45-34 45-75s-6-73-45-74c-42 0-51 32-51 76 0 43 10 73 51 73" id="ad"/><path d="M24 0v-261h32V0H24" id="ae"/><path d="M100-194c63 0 86 42 84 106H49c0 40 14 67 53 68 26 1 43-12 49-29l28 8c-11 28-37 45-77 45C44 4 14-33 15-96c1-61 26-98 85-98zm52 81c6-60-76-77-97-28-3 7-6 17-6 28h103" id="af"/><g id="b"><use transform="matrix(0.05,0,0,0.05,0,0)" xlink:href="#ab"/><use transform="matrix(0.05,0,0,0.05,12,0)" xlink:href="#Z"/><use transform="matrix(0.05,0,0,0.05,22,0)" xlink:href="#ac"/><use transform="matrix(0.05,0,0,0.05,36.95,0)" xlink:href="#ad"/><use transform="matrix(0.05,0,0,0.05,46.95,0)" xlink:href="#ae"/><use transform="matrix(0.05,0,0,0.05,50.900000000000006,0)" xlink:href="#af"/></g><path fill="#fff" d="M30-248c118-7 216 8 213 122C240-48 200 0 122 0H30v-248zM63-27c89 8 146-16 146-99s-60-101-146-95v194" id="ag"/><path fill="#fff" d="M141-36C126-15 110 5 73 4 37 3 15-17 15-53c-1-64 63-63 125-63 3-35-9-54-41-54-24 1-41 7-42 31l-33-3c5-37 33-52 76-52 45 0 72 20 72 64v82c-1 20 7 32 28 27v20c-31 9-61-2-59-35zM48-53c0 20 12 33 32 33 41-3 63-29 60-74-43 2-92-5-92 41" id="ah"/><path fill="#fff" d="M59-47c-2 24 18 29 38 22v24C64 9 27 4 27-40v-127H5v-23h24l9-43h21v43h35v23H59v120" id="ai"/><path fill="#fff" d="M135-143c-3-34-86-38-87 0 15 53 115 12 119 90S17 21 10-45l28-5c4 36 97 45 98 0-10-56-113-15-118-90-4-57 82-63 122-42 12 7 21 19 24 35" id="aj"/><path fill="#fff" d="M100-194c63 0 86 42 84 106H49c0 40 14 67 53 68 26 1 43-12 49-29l28 8c-11 28-37 45-77 45C44 4 14-33 15-96c1-61 26-98 85-98zm52 81c6-60-76-77-97-28-3 7-6 17-6 28h103" id="ak"/><g id="c"><use transform="matrix(0.05,0,0,0.05,0,0)" xlink:href="#ag"/><use transform="matrix(0.05,0,0,0.05,12.950000000000001,0)" xlink:href="#ah"/><use transform="matrix(0.05,0,0,0.05,22.950000000000003,0)" xlink:href="#ai"/><use transform="matrix(0.05,0,0,0.05,27.950000000000003,0)" xlink:href="#ah"/><use transform="matrix(0.05,0,0,0.05,37.95,0)" xlink:href="#aj"/><use transform="matrix(0.05,0,0,0.05,46.95,0)" xlink:href="#ak"/><use transform="matrix(0.05,0,0,0.05,56.95,0)" xlink:href="#ai"/></g><path d="M140-251c81 0 123 46 123 126C263-46 219 4 140 4 59 4 17-45 17-125s42-126 123-126zm0 227c63 0 89-41 89-101s-29-99-89-99c-61 0-89 39-89 99S79-25 140-24" id="al"/><path d="M114-163C36-179 61-72 57 0H25l-1-190h30c1 12-1 29 2 39 6-27 23-49 58-41v29" id="am"/><path d="M177-190C167-65 218 103 67 71c-23-6-38-20-44-43l32-5c15 47 100 32 89-28v-30C133-14 115 1 83 1 29 1 15-40 15-95c0-56 16-97 71-98 29-1 48 16 59 35 1-10 0-23 2-32h30zM94-22c36 0 50-32 50-73 0-42-14-75-50-75-39 0-46 34-46 75s6 73 46 73" id="an"/><path d="M117-194c89-4 53 116 60 194h-32v-121c0-31-8-49-39-48C34-167 62-67 57 0H25l-1-190h30c1 10-1 24 2 32 11-22 29-35 61-36" id="ao"/><path d="M24-231v-30h32v30H24zM24 0v-190h32V0H24" id="ap"/><path d="M59-47c-2 24 18 29 38 22v24C64 9 27 4 27-40v-127H5v-23h24l9-43h21v43h35v23H59v120" id="aq"/><g id="d"><use transform="matrix(0.05,0,0,0.05,0,0)" xlink:href="#al"/><use transform="matrix(0.05,0,0,0.05,14,0)" xlink:href="#am"/><use transform="matrix(0.05,0,0,0.05,19.95,0)" xlink:href="#an"/><use transform="matrix(0.05,0,0,0.05,29.950000000000003,0)" xlink:href="#Z"/><use transform="matrix(0.05,0,0,0.05,39.95,0)" xlink:href="#ao"/><use transform="matrix(0.05,0,0,0.05,49.95,0)" xlink:href="#ap"/><use transform="matrix(0.05,0,0,0.05,53.900000000000006,0)" xlink:href="#X"/><use transform="matrix(0.05,0,0,0.05,62.900000000000006,0)" xlink:href="#Z"/><use transform="matrix(0.05,0,0,0.05,72.9,0)" xlink:href="#aq"/><use transform="matrix(0.05,0,0,0.05,77.9,0)" xlink:href="#ap"/><use transform="matrix(0.05,0,0,0.05,81.85000000000001,0)" xlink:href="#Y"/><use transform="matrix(0.05,0,0,0.05,91.85000000000001,0)" xlink:href="#ao"/></g><path d="M85-194c31 0 48 13 60 33l-1-100h32l1 261h-30c-2-10 0-23-3-31C134-8 116 4 85 4 32 4 16-35 15-94c0-66 23-100 70-100zm9 24c-40 0-46 34-46 75 0 40 6 74 45 74 42 0 51-32 51-76 0-42-9-74-50-73" id="ar"/><path d="M96-169c-40 0-48 33-48 73s9 75 48 75c24 0 41-14 43-38l32 2c-6 37-31 61-74 61-59 0-76-41-82-99-10-93 101-131 147-64 4 7 5 14 7 22l-32 3c-4-21-16-35-41-35" id="as"/><g id="e"><use transform="matrix(0.05,0,0,0.05,0,0)" xlink:href="#ar"/><use transform="matrix(0.05,0,0,0.05,10,0)" xlink:href="#as"/><use transform="matrix(0.05,0,0,0.05,19,0)" xlink:href="#aq"/><use transform="matrix(0.05,0,0,0.05,24,0)" xlink:href="#aa"/><use transform="matrix(0.05,0,0,0.05,29,0)" xlink:href="#as"/><use transform="matrix(0.05,0,0,0.05,38,0)" xlink:href="#am"/><use transform="matrix(0.05,0,0,0.05,43.95,0)" xlink:href="#af"/><use transform="matrix(0.05,0,0,0.05,53.95,0)" xlink:href="#Z"/><use transform="matrix(0.05,0,0,0.05,63.95,0)" xlink:href="#aq"/><use transform="matrix(0.05,0,0,0.05,68.95,0)" xlink:href="#Y"/><use transform="matrix(0.05,0,0,0.05,78.95,0)" xlink:href="#am"/></g><path d="M26 75v-336h71v23H56V52h41v23H26" id="at"/><path d="M27 0v-27h64v-190l-56 39v-29l58-41h29v221h61V0H27" id="au"/><path d="M3 75V52h41v-290H3v-23h71V75H3" id="av"/><g id="f"><use transform="matrix(0.05,0,0,0.05,0,0)" xlink:href="#at"/><use transform="matrix(0.05,0,0,0.05,5,0)" xlink:href="#au"/><use transform="matrix(0.05,0,0,0.05,15,0)" xlink:href="#av"/></g><path d="M84 4C-5 8 30-112 23-190h32v120c0 31 7 50 39 49 72-2 45-101 50-169h31l1 190h-30c-1-10 1-25-2-33-11 22-28 36-60 37" id="aw"/><path d="M115-194c53 0 69 39 70 98 0 66-23 100-70 100C84 3 66-7 56-30L54 0H23l1-261h32v101c10-23 28-34 59-34zm-8 174c40 0 45-34 45-75 0-40-5-75-45-74-42 0-51 32-51 76 0 43 10 73 51 73" id="ax"/><path d="M106-169C34-169 62-67 57 0H25v-261h32l-1 103c12-21 28-36 61-36 89 0 53 116 60 194h-32v-121c2-32-8-49-39-48" id="ay"/><g id="g"><use transform="matrix(0.05,0,0,0.05,0,0)" xlink:href="#ar"/><use transform="matrix(0.05,0,0,0.05,10,0)" xlink:href="#as"/><use transform="matrix(0.05,0,0,0.05,19,0)" xlink:href="#aq"/><use transform="matrix(0.05,0,0,0.05,24,0)" xlink:href="#aa"/><use transform="matrix(0.05,0,0,0.05,29,0)" xlink:href="#ad"/><use transform="matrix(0.05,0,0,0.05,39,0)" xlink:href="#aw"/><use transform="matrix(0.05,0,0,0.05,49,0)" xlink:href="#ax"/><use transform="matrix(0.05,0,0,0.05,59,0)" xlink:href="#ae"/><use transform="matrix(0.05,0,0,0.05,62.95,0)" xlink:href="#ap"/><use transform="matrix(0.05,0,0,0.05,66.9,0)" xlink:href="#X"/><use transform="matrix(0.05,0,0,0.05,75.9,0)" xlink:href="#ay"/><use transform="matrix(0.05,0,0,0.05,85.9,0)" xlink:href="#af"/><use transform="matrix(0.05,0,0,0.05,95.9,0)" xlink:href="#am"/></g><g id="h"><use transform="matrix(0.05,0,0,0.05,0,0)" xlink:href="#at"/><use transform="matrix(0.05,0,0,0.05,5,0)" xlink:href="#au"/><use transform="matrix(0.05,0,0,0.05,15,0)" xlink:href="#av"/></g><path d="M30-248c87 1 191-15 191 75 0 78-77 80-158 76V0H30v-248zm33 125c57 0 124 11 124-50 0-59-68-47-124-48v98" id="az"/><g id="i"><use transform="matrix(0.05,0,0,0.05,0,0)" xlink:href="#ar"/><use transform="matrix(0.05,0,0,0.05,10,0)" xlink:href="#as"/><use transform="matrix(0.05,0,0,0.05,19,0)" xlink:href="#Z"/><use transform="matrix(0.05,0,0,0.05,29,0)" xlink:href="#aq"/><use transform="matrix(0.05,0,0,0.05,34,0)" xlink:href="#aa"/><use transform="matrix(0.05,0,0,0.05,39,0)" xlink:href="#as"/><use transform="matrix(0.05,0,0,0.05,48,0)" xlink:href="#Y"/><use transform="matrix(0.05,0,0,0.05,58,0)" xlink:href="#ao"/><use transform="matrix(0.05,0,0,0.05,68,0)" xlink:href="#aq"/><use transform="matrix(0.05,0,0,0.05,73,0)" xlink:href="#Z"/><use transform="matrix(0.05,0,0,0.05,83,0)" xlink:href="#as"/><use transform="matrix(0.05,0,0,0.05,92,0)" xlink:href="#aq"/><use transform="matrix(0.05,0,0,0.05,97,0)" xlink:href="#az"/><use transform="matrix(0.05,0,0,0.05,109,0)" xlink:href="#Y"/><use transform="matrix(0.05,0,0,0.05,119,0)" xlink:href="#ap"/><use transform="matrix(0.05,0,0,0.05,122.95,0)" xlink:href="#ao"/><use transform="matrix(0.05,0,0,0.05,132.95,0)" xlink:href="#aq"/></g><g id="j"><use transform="matrix(0.05,0,0,0.05,0,0)" xlink:href="#at"/><use transform="matrix(0.05,0,0,0.05,5,0)" xlink:href="#au"/><use transform="matrix(0.05,0,0,0.05,15,0)" xlink:href="#av"/></g><path d="M127-220V0H93v-220H8v-28h204v28h-85" id="aA"/><g id="k"><use transform="matrix(0.05,0,0,0.05,0,0)" xlink:href="#ay"/><use transform="matrix(0.05,0,0,0.05,10,0)" xlink:href="#Z"/><use transform="matrix(0.05,0,0,0.05,20,0)" xlink:href="#X"/><use transform="matrix(0.05,0,0,0.05,29,0)" xlink:href="#aA"/><use transform="matrix(0.05,0,0,0.05,39.300000000000004,0)" xlink:href="#ap"/><use transform="matrix(0.05,0,0,0.05,43.25000000000001,0)" xlink:href="#ac"/><use transform="matrix(0.05,0,0,0.05,58.20000000000002,0)" xlink:href="#af"/></g><path d="M141 0L90-78 38 0H4l68-98-65-92h35l48 74 47-74h35l-64 92 68 98h-35" id="aB"/><g id="l"><use transform="matrix(0.05,0,0,0.05,0,0)" xlink:href="#aB"/><use transform="matrix(0.05,0,0,0.05,9,0)" xlink:href="#X"/><use transform="matrix(0.05,0,0,0.05,18,0)" xlink:href="#ar"/><use transform="matrix(0.05,0,0,0.05,28,0)" xlink:href="#aa"/><use transform="matrix(0.05,0,0,0.05,33,0)" xlink:href="#X"/><use transform="matrix(0.05,0,0,0.05,42,0)" xlink:href="#aq"/><use transform="matrix(0.05,0,0,0.05,47,0)" xlink:href="#am"/><use transform="matrix(0.05,0,0,0.05,52.95,0)" xlink:href="#ap"/><use transform="matrix(0.05,0,0,0.05,56.900000000000006,0)" xlink:href="#ao"/><use transform="matrix(0.05,0,0,0.05,66.9,0)" xlink:href="#an"/></g><g id="m"><use transform="matrix(0.05,0,0,0.05,0,0)" xlink:href="#ar"/><use transform="matrix(0.05,0,0,0.05,10,0)" xlink:href="#as"/><use transform="matrix(0.05,0,0,0.05,19,0)" xlink:href="#aq"/><use transform="matrix(0.05,0,0,0.05,24,0)" xlink:href="#aa"/><use transform="matrix(0.05,0,0,0.05,29,0)" xlink:href="#aq"/><use transform="matrix(0.05,0,0,0.05,34,0)" xlink:href="#ap"/><use transform="matrix(0.05,0,0,0.05,37.95,0)" xlink:href="#aq"/><use transform="matrix(0.05,0,0,0.05,42.95,0)" xlink:href="#ae"/><use transform="matrix(0.05,0,0,0.05,46.900000000000006,0)" xlink:href="#af"/></g><g id="n"><use transform="matrix(0.05,0,0,0.05,0,0)" xlink:href="#ar"/><use transform="matrix(0.05,0,0,0.05,10,0)" xlink:href="#as"/><use transform="matrix(0.05,0,0,0.05,19,0)" xlink:href="#aq"/><use transform="matrix(0.05,0,0,0.05,24,0)" xlink:href="#aa"/><use transform="matrix(0.05,0,0,0.05,29,0)" xlink:href="#ar"/><use transform="matrix(0.05,0,0,0.05,39,0)" xlink:href="#af"/><use transform="matrix(0.05,0,0,0.05,49,0)" xlink:href="#X"/><use transform="matrix(0.05,0,0,0.05,58,0)" xlink:href="#as"/><use transform="matrix(0.05,0,0,0.05,67,0)" xlink:href="#am"/><use transform="matrix(0.05,0,0,0.05,72.95,0)" xlink:href="#ap"/><use transform="matrix(0.05,0,0,0.05,76.9,0)" xlink:href="#ad"/><use transform="matrix(0.05,0,0,0.05,86.9,0)" xlink:href="#aq"/><use transform="matrix(0.05,0,0,0.05,91.9,0)" xlink:href="#ap"/><use transform="matrix(0.05,0,0,0.05,95.85000000000001,0)" xlink:href="#Y"/><use transform="matrix(0.05,0,0,0.05,105.85000000000001,0)" xlink:href="#ao"/></g><g id="o"><use transform="matrix(0.05,0,0,0.05,0,0)" xlink:href="#aq"/><use transform="matrix(0.05,0,0,0.05,5,0)" xlink:href="#ap"/><use transform="matrix(0.05,0,0,0.05,8.95,0)" xlink:href="#ac"/><use transform="matrix(0.05,0,0,0.05,23.9,0)" xlink:href="#af"/><use transform="matrix(0.05,0,0,0.05,33.9,0)" xlink:href="#aa"/><use transform="matrix(0.05,0,0,0.05,38.9,0)" xlink:href="#ay"/><use transform="matrix(0.05,0,0,0.05,48.9,0)" xlink:href="#Z"/><use transform="matrix(0.05,0,0,0.05,58.900000000000006,0)" xlink:href="#X"/><use transform="matrix(0.05,0,0,0.05,67.9,0)" xlink:href="#ab"/><use transform="matrix(0.05,0,0,0.05,79.9,0)" xlink:href="#aq"/><use transform="matrix(0.05,0,0,0.05,84.9,0)" xlink:href="#Z"/><use transform="matrix(0.05,0,0,0.05,94.9,0)" xlink:href="#am"/><use transform="matrix(0.05,0,0,0.05,100.85000000000001,0)" xlink:href="#aq"/><use transform="matrix(0.05,0,0,0.05,105.85000000000001,0)" xlink:href="#aA"/><use transform="matrix(0.05,0,0,0.05,116.15,0)" xlink:href="#ap"/><use transform="matrix(0.05,0,0,0.05,120.10000000000001,0)" xlink:href="#ac"/><use transform="matrix(0.05,0,0,0.05,135.05,0)" xlink:href="#af"/></g><path d="M44-68c0 29 11 47 38 47 30 0 42-19 51-41l28 9C148-21 126 4 82 4 31 4 10-29 12-85c3-77 74-140 146-93 12 8 15 23 18 40l-31 5c-1-22-13-36-36-36-52 0-65 49-65 101" id="aC"/><path d="M30-147c31-64 166-65 159 27C183-49 158 1 86 4 9 8 1-88 30-147zM88-20c53 0 68-48 68-100 0-31-11-51-44-50-52 1-68 46-68 97 0 32 13 53 44 53" id="aD"/><path d="M248-111c6-24 9-61-24-58-72 9-57 108-77 169h-31l26-142c3-37-50-30-64-10C52-115 50-51 37 0H6l36-190h30c-1 10-6 24-4 32 13-43 101-52 105 5 13-22 29-41 61-41 90 0 28 129 23 194h-31" id="aE"/><path d="M111-194c62-3 86 47 72 106H45c-7 38 6 69 45 68 27-1 43-14 53-32l24 11C152-15 129 4 87 4 38 3 12-23 12-71c0-70 32-119 99-123zm44 81c14-66-71-72-95-28-4 8-8 17-11 28h106" id="aF"/><path d="M67-158c22-48 132-52 116 29L158 0h-32l25-140c3-38-53-32-70-12C52-117 51-52 38 0H6l36-190h30" id="aG"/><g id="p"><use transform="matrix(0.05,0,0,0.05,0,0)" xlink:href="#aC"/><use transform="matrix(0.05,0,0,0.05,9,0)" xlink:href="#aD"/><use transform="matrix(0.05,0,0,0.05,19,0)" xlink:href="#aE"/><use transform="matrix(0.05,0,0,0.05,33.95,0)" xlink:href="#aE"/><use transform="matrix(0.05,0,0,0.05,48.900000000000006,0)" xlink:href="#aF"/><use transform="matrix(0.05,0,0,0.05,58.900000000000006,0)" xlink:href="#aG"/><use transform="matrix(0.05,0,0,0.05,68.9,0)" xlink:href="#aC"/><use transform="matrix(0.05,0,0,0.05,77.9,0)" xlink:href="#aF"/></g><g id="q"><use transform="matrix(0.05,0,0,0.05,0,0)" xlink:href="#aq"/><use transform="matrix(0.05,0,0,0.05,5,0)" xlink:href="#ap"/><use transform="matrix(0.05,0,0,0.05,8.95,0)" xlink:href="#ac"/><use transform="matrix(0.05,0,0,0.05,23.9,0)" xlink:href="#af"/><use transform="matrix(0.05,0,0,0.05,33.9,0)" xlink:href="#aa"/></g><path d="M33 0v-248h34V0H33" id="aH"/><path d="M108 0H70L1-190h34L89-25l56-165h34" id="aI"/><g id="r"><use transform="matrix(0.05,0,0,0.05,0,0)" xlink:href="#az"/><use transform="matrix(0.05,0,0,0.05,12,0)" xlink:href="#am"/><use transform="matrix(0.05,0,0,0.05,17.95,0)" xlink:href="#Y"/><use transform="matrix(0.05,0,0,0.05,27.950000000000003,0)" xlink:href="#ad"/><use transform="matrix(0.05,0,0,0.05,37.95,0)" xlink:href="#af"/><use transform="matrix(0.05,0,0,0.05,47.95,0)" xlink:href="#am"/><use transform="matrix(0.05,0,0,0.05,53.900000000000006,0)" xlink:href="#aH"/><use transform="matrix(0.05,0,0,0.05,58.900000000000006,0)" xlink:href="#ao"/><use transform="matrix(0.05,0,0,0.05,68.9,0)" xlink:href="#aq"/><use transform="matrix(0.05,0,0,0.05,73.9,0)" xlink:href="#af"/><use transform="matrix(0.05,0,0,0.05,83.9,0)" xlink:href="#am"/><use transform="matrix(0.05,0,0,0.05,89.85000000000001,0)" xlink:href="#aI"/><use transform="matrix(0.05,0,0,0.05,98.85000000000001,0)" xlink:href="#Z"/><use transform="matrix(0.05,0,0,0.05,108.85000000000001,0)" xlink:href="#ae"/></g><g id="s"><use transform="matrix(0.05,0,0,0.05,0,0)" xlink:href="#aB"/><use transform="matrix(0.05,0,0,0.05,9,0)" xlink:href="#X"/><use transform="matrix(0.05,0,0,0.05,18,0)" xlink:href="#ar"/><use transform="matrix(0.05,0,0,0.05,28,0)" xlink:href="#aa"/><use transform="matrix(0.05,0,0,0.05,33,0)" xlink:href="#ar"/><use transform="matrix(0.05,0,0,0.05,43,0)" xlink:href="#Z"/><use transform="matrix(0.05,0,0,0.05,53,0)" xlink:href="#aq"/><use transform="matrix(0.05,0,0,0.05,58,0)" xlink:href="#af"/><use transform="matrix(0.05,0,0,0.05,68,0)" xlink:href="#aA"/><use transform="matrix(0.05,0,0,0.05,78.3,0)" xlink:href="#ap"/><use transform="matrix(0.05,0,0,0.05,82.25,0)" xlink:href="#ac"/><use transform="matrix(0.05,0,0,0.05,97.2,0)" xlink:href="#af"/></g><path d="M30 0v-248h187v28H63v79h144v27H63v87h162V0H30" id="aJ"/><g id="t"><use transform="matrix(0.05,0,0,0.05,0,0)" xlink:href="#aq"/><use transform="matrix(0.05,0,0,0.05,5,0)" xlink:href="#ap"/><use transform="matrix(0.05,0,0,0.05,8.95,0)" xlink:href="#ac"/><use transform="matrix(0.05,0,0,0.05,23.9,0)" xlink:href="#af"/><use transform="matrix(0.05,0,0,0.05,33.9,0)" xlink:href="#aa"/><use transform="matrix(0.05,0,0,0.05,38.9,0)" xlink:href="#ay"/><use transform="matrix(0.05,0,0,0.05,48.9,0)" xlink:href="#Z"/><use transform="matrix(0.05,0,0,0.05,58.900000000000006,0)" xlink:href="#X"/><use transform="matrix(0.05,0,0,0.05,67.9,0)" xlink:href="#aJ"/><use transform="matrix(0.05,0,0,0.05,79.9,0)" xlink:href="#ao"/><use transform="matrix(0.05,0,0,0.05,89.9,0)" xlink:href="#ar"/><use transform="matrix(0.05,0,0,0.05,99.9,0)" xlink:href="#aA"/><use transform="matrix(0.05,0,0,0.05,110.2,0)" xlink:href="#ap"/><use transform="matrix(0.05,0,0,0.05,114.15,0)" xlink:href="#ac"/><use transform="matrix(0.05,0,0,0.05,129.1,0)" xlink:href="#af"/></g><path d="M67-162c32-53 139-36 121 50C175-51 163 2 97 4 68 4 52-11 42-31 38 6 28 39 22 75H-9l50-265h29c-1 10 0 20-3 28zm89 36c0-26-10-43-35-43-54 0-67 50-69 103-1 29 14 45 42 46 53 0 62-58 62-106" id="aK"/><path d="M6 0l50-261h32L37 0H6" id="aL"/><path d="M51-54c-9 22 5 41 31 30L79-1C43 14 10-4 19-52l22-115H19l5-23h22l19-43h21l-9 43h35l-4 23H73" id="aM"/><path d="M50-231l6-30h32l-6 30H50zM6 0l37-190h31L37 0H6" id="aN"/><g id="u"><use transform="matrix(0.05,0,0,0.05,0,0)" xlink:href="#aC"/><use transform="matrix(0.05,0,0,0.05,9,0)" xlink:href="#aD"/><use transform="matrix(0.05,0,0,0.05,19,0)" xlink:href="#aE"/><use transform="matrix(0.05,0,0,0.05,33.95,0)" xlink:href="#aK"/><use transform="matrix(0.05,0,0,0.05,43.95,0)" xlink:href="#aL"/><use transform="matrix(0.05,0,0,0.05,47.900000000000006,0)" xlink:href="#aF"/><use transform="matrix(0.05,0,0,0.05,57.900000000000006,0)" xlink:href="#aM"/><use transform="matrix(0.05,0,0,0.05,62.900000000000006,0)" xlink:href="#aN"/><use transform="matrix(0.05,0,0,0.05,66.85000000000001,0)" xlink:href="#aD"/><use transform="matrix(0.05,0,0,0.05,76.85000000000001,0)" xlink:href="#aG"/></g><path fill="#fff" d="M185-189c-5-48-123-54-124 2 14 75 158 14 163 119 3 78-121 87-175 55-17-10-28-26-33-46l33-7c5 56 141 63 141-1 0-78-155-14-162-118-5-82 145-84 179-34 5 7 8 16 11 25" id="aO"/><path fill="#fff" d="M84 4C-5 8 30-112 23-190h32v120c0 31 7 50 39 49 72-2 45-101 50-169h31l1 190h-30c-1-10 1-25-2-33-11 22-28 36-60 37" id="aP"/><path fill="#fff" d="M114-163C36-179 61-72 57 0H25l-1-190h30c1 12-1 29 2 39 6-27 23-49 58-41v29" id="aQ"/><path fill="#fff" d="M108 0H70L1-190h34L89-25l56-165h34" id="aR"/><path fill="#fff" d="M179-190L93 31C79 59 56 82 12 73V49c39 6 53-20 64-50L1-190h34L92-34l54-156h33" id="aS"/><g id="v"><use transform="matrix(0.05,0,0,0.05,0,0)" xlink:href="#aO"/><use transform="matrix(0.05,0,0,0.05,12,0)" xlink:href="#aP"/><use transform="matrix(0.05,0,0,0.05,22,0)" xlink:href="#aQ"/><use transform="matrix(0.05,0,0,0.05,27.950000000000003,0)" xlink:href="#aR"/><use transform="matrix(0.05,0,0,0.05,36.95,0)" xlink:href="#ak"/><use transform="matrix(0.05,0,0,0.05,46.95,0)" xlink:href="#aS"/></g><path d="M101-234c-31-9-42 10-38 44h38v23H63V0H32v-167H5v-23h27c-7-52 17-82 69-68v24" id="aT"/><path d="M179-190L93 31C79 59 56 82 12 73V49c39 6 53-20 64-50L1-190h34L92-34l54-156h33" id="aU"/><g id="w"><use transform="matrix(0.05,0,0,0.05,0,0)" xlink:href="#am"/><use transform="matrix(0.05,0,0,0.05,5.95,0)" xlink:href="#ar"/><use transform="matrix(0.05,0,0,0.05,15.949999999999998,0)" xlink:href="#aT"/><use transform="matrix(0.05,0,0,0.05,20.95,0)" xlink:href="#aa"/><use transform="matrix(0.05,0,0,0.05,25.950000000000003,0)" xlink:href="#ad"/><use transform="matrix(0.05,0,0,0.05,35.95,0)" xlink:href="#am"/><use transform="matrix(0.05,0,0,0.05,41.900000000000006,0)" xlink:href="#Y"/><use transform="matrix(0.05,0,0,0.05,51.900000000000006,0)" xlink:href="#ad"/><use transform="matrix(0.05,0,0,0.05,61.900000000000006,0)" xlink:href="#af"/><use transform="matrix(0.05,0,0,0.05,71.9,0)" xlink:href="#am"/><use transform="matrix(0.05,0,0,0.05,77.85000000000001,0)" xlink:href="#aq"/><use transform="matrix(0.05,0,0,0.05,82.85000000000001,0)" xlink:href="#aU"/></g><path d="M143 0L79-87 56-68V0H24v-261h32v163l83-92h37l-77 82L181 0h-38" id="aV"/><g id="x"><use transform="matrix(0.05,0,0,0.05,0,0)" xlink:href="#X"/><use transform="matrix(0.05,0,0,0.05,9,0)" xlink:href="#aV"/><use transform="matrix(0.05,0,0,0.05,18,0)" xlink:href="#Y"/><use transform="matrix(0.05,0,0,0.05,28,0)" xlink:href="#X"/><use transform="matrix(0.05,0,0,0.05,37,0)" xlink:href="#aa"/></g><path d="M212-179c-10-28-35-45-73-45-59 0-87 40-87 99 0 60 29 101 89 101 43 0 62-24 78-52l27 14C228-24 195 4 139 4 59 4 22-46 18-125c-6-104 99-153 187-111 19 9 31 26 39 46" id="aW"/><g id="y"><use transform="matrix(0.05,0,0,0.05,0,0)" xlink:href="#aW"/><use transform="matrix(0.05,0,0,0.05,12.950000000000001,0)" xlink:href="#Y"/><use transform="matrix(0.05,0,0,0.05,22.950000000000003,0)" xlink:href="#ao"/><use transform="matrix(0.05,0,0,0.05,32.95,0)" xlink:href="#as"/><use transform="matrix(0.05,0,0,0.05,41.95,0)" xlink:href="#af"/><use transform="matrix(0.05,0,0,0.05,51.95,0)" xlink:href="#ad"/><use transform="matrix(0.05,0,0,0.05,61.95,0)" xlink:href="#aq"/></g><path fill="#fff" d="M143 4C61 4 22-44 18-125c-5-107 100-154 193-111 17 8 29 25 37 43l-32 9c-13-25-37-40-76-40-61 0-88 39-88 99 0 61 29 100 91 101 35 0 62-11 79-27v-45h-74v-28h105v86C228-13 192 4 143 4" id="aX"/><path fill="#fff" d="M140-251c81 0 123 46 123 126C263-53 228-8 163 1c7 30 30 48 69 40v23c-55 16-95-15-103-61C56-3 17-48 17-125c0-80 42-126 123-126zm0 227c63 0 89-41 89-101s-29-99-89-99c-61 0-89 39-89 99S79-25 140-24" id="aY"/><g id="z"><use transform="matrix(0.05,0,0,0.05,0,0)" xlink:href="#aX"/><use transform="matrix(0.05,0,0,0.05,14,0)" xlink:href="#aO"/><use transform="matrix(0.05,0,0,0.05,26,0)" xlink:href="#aY"/></g><path fill="#fff" d="M212-179c-10-28-35-45-73-45-59 0-87 40-87 99 0 60 29 101 89 101 43 0 62-24 78-52l27 14C228-24 195 4 139 4 59 4 22-46 18-125c-6-104 99-153 187-111 19 9 31 26 39 46" id="aZ"/><path fill="#fff" d="M24 0v-261h32V0H24" id="ba"/><g id="A"><use transform="matrix(0.05,0,0,0.05,0,0)" xlink:href="#aZ"/><use transform="matrix(0.05,0,0,0.05,12.950000000000001,0)" xlink:href="#ba"/><use transform="matrix(0.05,0,0,0.05,16.900000000000002,0)" xlink:href="#ah"/><use transform="matrix(0.05,0,0,0.05,26.900000000000002,0)" xlink:href="#aj"/><use transform="matrix(0.05,0,0,0.05,35.900000000000006,0)" xlink:href="#aj"/></g><path d="M30-248c118-7 216 8 213 122C240-48 200 0 122 0H30v-248zM63-27c89 8 146-16 146-99s-60-101-146-95v194" id="bb"/><g id="B"><use transform="matrix(0.05,0,0,0.05,0,0)" xlink:href="#bb"/><use transform="matrix(0.05,0,0,0.05,12.950000000000001,0)" xlink:href="#ap"/><use transform="matrix(0.05,0,0,0.05,16.900000000000002,0)" xlink:href="#Z"/><use transform="matrix(0.05,0,0,0.05,26.900000000000002,0)" xlink:href="#an"/><use transform="matrix(0.05,0,0,0.05,36.900000000000006,0)" xlink:href="#am"/><use transform="matrix(0.05,0,0,0.05,42.85000000000001,0)" xlink:href="#Z"/><use transform="matrix(0.05,0,0,0.05,52.85,0)" xlink:href="#ac"/><path d="M-.9 1.25h74.6v1.32H-.9z"/></g><g id="C"><use transform="matrix(0.05,0,0,0.05,0,0)" xlink:href="#aJ"/><use transform="matrix(0.05,0,0,0.05,12,0)" xlink:href="#ae"/><use transform="matrix(0.05,0,0,0.05,15.949999999999998,0)" xlink:href="#af"/><use transform="matrix(0.05,0,0,0.05,25.950000000000003,0)" xlink:href="#ac"/><use transform="matrix(0.05,0,0,0.05,40.9,0)" xlink:href="#af"/><use transform="matrix(0.05,0,0,0.05,50.9,0)" xlink:href="#ao"/><use transform="matrix(0.05,0,0,0.05,60.900000000000006,0)" xlink:href="#aq"/><path d="M-.9 1.25h72.7v1.32H-.9z"/></g><path d="M194 0L95-120 63-95V0H30v-248h33v124l119-124h40L117-140 236 0h-42" id="bc"/><g id="D"><use transform="matrix(0.05,0,0,0.05,0,0)" xlink:href="#bc"/><use transform="matrix(0.05,0,0,0.05,12,0)" xlink:href="#af"/><use transform="matrix(0.05,0,0,0.05,22,0)" xlink:href="#aU"/><path d="M-.9 1.25h32.8v1.32H-.9z"/></g><path d="M206 0h-36l-40-164L89 0H53L-1-190h32L70-26l43-164h34l41 164 42-164h31" id="bd"/><g id="E"><use transform="matrix(0.05,0,0,0.05,0,0)" xlink:href="#Y"/><use transform="matrix(0.05,0,0,0.05,10,0)" xlink:href="#bd"/><use transform="matrix(0.05,0,0,0.05,22.950000000000003,0)" xlink:href="#ae"/><use transform="matrix(0.05,0,0,0.05,26.900000000000002,0)" xlink:href="#aa"/><use transform="matrix(0.05,0,0,0.05,31.900000000000002,0)" xlink:href="#aW"/><use transform="matrix(0.05,0,0,0.05,44.85,0)" xlink:href="#ae"/><use transform="matrix(0.05,0,0,0.05,48.800000000000004,0)" xlink:href="#Z"/><use transform="matrix(0.05,0,0,0.05,58.800000000000004,0)" xlink:href="#X"/><use transform="matrix(0.05,0,0,0.05,67.80000000000001,0)" xlink:href="#X"/></g><path d="M87 75C49 33 22-17 22-94c0-76 28-126 65-167h31c-38 41-64 92-64 168S80 34 118 75H87" id="be"/><path d="M16-82v-28h88v28H16" id="bf"/><path d="M143 4C61 4 22-44 18-125c-5-107 100-154 193-111 17 8 29 25 37 43l-32 9c-13-25-37-40-76-40-61 0-88 39-88 99 0 61 29 100 91 101 35 0 62-11 79-27v-45h-74v-28h105v86C228-13 192 4 143 4" id="bg"/><path d="M140-251c81 0 123 46 123 126C263-53 228-8 163 1c7 30 30 48 69 40v23c-55 16-95-15-103-61C56-3 17-48 17-125c0-80 42-126 123-126zm0 227c63 0 89-41 89-101s-29-99-89-99c-61 0-89 39-89 99S79-25 140-24" id="bh"/><g id="F"><use transform="matrix(0.05,0,0,0.05,0,0)" xlink:href="#be"/><use transform="matrix(0.05,0,0,0.05,5.95,0)" xlink:href="#ao"/><use transform="matrix(0.05,0,0,0.05,15.949999999999998,0)" xlink:href="#Y"/><use transform="matrix(0.05,0,0,0.05,25.950000000000003,0)" xlink:href="#ao"/><use transform="matrix(0.05,0,0,0.05,35.95,0)" xlink:href="#bf"/><use transform="matrix(0.05,0,0,0.05,41.900000000000006,0)" xlink:href="#bg"/><use transform="matrix(0.05,0,0,0.05,55.900000000000006,0)" xlink:href="#ab"/><use transform="matrix(0.05,0,0,0.05,67.9,0)" xlink:href="#bh"/></g><path d="M33-261c38 41 65 92 65 168S71 34 33 75H2C39 34 66-17 66-93S39-220 2-261h31" id="bi"/><g id="G"><use transform="matrix(0.05,0,0,0.05,0,0)" xlink:href="#as"/><use transform="matrix(0.05,0,0,0.05,9,0)" xlink:href="#ae"/><use transform="matrix(0.05,0,0,0.05,12.949999999999998,0)" xlink:href="#Z"/><use transform="matrix(0.05,0,0,0.05,22.95,0)" xlink:href="#X"/><use transform="matrix(0.05,0,0,0.05,31.950000000000003,0)" xlink:href="#X"/><use transform="matrix(0.05,0,0,0.05,40.95,0)" xlink:href="#bi"/></g><g id="H"><use transform="matrix(0.05,0,0,0.05,0,0)" xlink:href="#ad"/><use transform="matrix(0.05,0,0,0.05,10,0)" xlink:href="#am"/><use transform="matrix(0.05,0,0,0.05,15.949999999999998,0)" xlink:href="#Y"/><use transform="matrix(0.05,0,0,0.05,25.950000000000003,0)" xlink:href="#aI"/><use transform="matrix(0.05,0,0,0.05,34.95,0)" xlink:href="#aa"/></g><path d="M205 0l-28-72H64L36 0H1l101-248h38L239 0h-34zm-38-99l-47-123c-12 45-31 82-46 123h93" id="bj"/><g id="I"><use transform="matrix(0.05,0,0,0.05,0,0)" xlink:href="#bj"/><use transform="matrix(0.05,0,0,0.05,12,0)" xlink:href="#an"/><use transform="matrix(0.05,0,0,0.05,22,0)" xlink:href="#af"/><use transform="matrix(0.05,0,0,0.05,32,0)" xlink:href="#ao"/><use transform="matrix(0.05,0,0,0.05,42,0)" xlink:href="#aq"/></g><path d="M233-177c-1 41-23 64-60 70L243 0h-38l-65-103H63V0H30v-248c88 3 205-21 203 71zM63-129c60-2 137 13 137-47 0-61-80-42-137-45v92" id="bk"/><g id="J"><use transform="matrix(0.05,0,0,0.05,0,0)" xlink:href="#X"/><use transform="matrix(0.05,0,0,0.05,9,0)" xlink:href="#Y"/><use transform="matrix(0.05,0,0,0.05,19,0)" xlink:href="#X"/><use transform="matrix(0.05,0,0,0.05,28,0)" xlink:href="#Z"/><use transform="matrix(0.05,0,0,0.05,38,0)" xlink:href="#aa"/><use transform="matrix(0.05,0,0,0.05,43,0)" xlink:href="#ap"/><use transform="matrix(0.05,0,0,0.05,46.95,0)" xlink:href="#X"/><use transform="matrix(0.05,0,0,0.05,55.95,0)" xlink:href="#bk"/><use transform="matrix(0.05,0,0,0.05,68.9,0)" xlink:href="#af"/><use transform="matrix(0.05,0,0,0.05,78.9,0)" xlink:href="#X"/><use transform="matrix(0.05,0,0,0.05,87.9,0)" xlink:href="#aw"/><use transform="matrix(0.05,0,0,0.05,97.9,0)" xlink:href="#ae"/><use transform="matrix(0.05,0,0,0.05,101.85000000000001,0)" xlink:href="#aq"/><use transform="matrix(0.05,0,0,0.05,106.85000000000001,0)" xlink:href="#al"/><use transform="matrix(0.05,0,0,0.05,120.85000000000001,0)" xlink:href="#aT"/></g><g id="K"><use transform="matrix(0.05,0,0,0.05,0,0)" xlink:href="#am"/><use transform="matrix(0.05,0,0,0.05,5.95,0)" xlink:href="#ar"/><use transform="matrix(0.05,0,0,0.05,15.949999999999998,0)" xlink:href="#aT"/><use transform="matrix(0.05,0,0,0.05,20.95,0)" xlink:href="#X"/><use transform="matrix(0.05,0,0,0.05,29.950000000000003,0)" xlink:href="#aa"/><use transform="matrix(0.05,0,0,0.05,34.95,0)" xlink:href="#X"/><use transform="matrix(0.05,0,0,0.05,43.95,0)" xlink:href="#aw"/><use transform="matrix(0.05,0,0,0.05,53.95,0)" xlink:href="#ax"/><use transform="matrix(0.05,0,0,0.05,63.95,0)" xlink:href="#aW"/><use transform="matrix(0.05,0,0,0.05,76.9,0)" xlink:href="#ae"/><use transform="matrix(0.05,0,0,0.05,80.85000000000001,0)" xlink:href="#Z"/><use transform="matrix(0.05,0,0,0.05,90.85000000000001,0)" xlink:href="#X"/><use transform="matrix(0.05,0,0,0.05,99.85000000000001,0)" xlink:href="#X"/><use transform="matrix(0.05,0,0,0.05,108.85000000000001,0)" xlink:href="#al"/><use transform="matrix(0.05,0,0,0.05,122.85000000000001,0)" xlink:href="#aT"/></g><g id="L"><use transform="matrix(0.05,0,0,0.05,0,0)" xlink:href="#aB"/><use transform="matrix(0.05,0,0,0.05,9,0)" xlink:href="#X"/><use transform="matrix(0.05,0,0,0.05,18,0)" xlink:href="#ar"/><use transform="matrix(0.05,0,0,0.05,28,0)" xlink:href="#aa"/><use transform="matrix(0.05,0,0,0.05,33,0)" xlink:href="#ar"/><use transform="matrix(0.05,0,0,0.05,43,0)" xlink:href="#Z"/><use transform="matrix(0.05,0,0,0.05,53,0)" xlink:href="#aq"/><use transform="matrix(0.05,0,0,0.05,58,0)" xlink:href="#af"/></g><g id="M"><use transform="matrix(0.05,0,0,0.05,0,0)" xlink:href="#ar"/><use transform="matrix(0.05,0,0,0.05,10,0)" xlink:href="#as"/><use transform="matrix(0.05,0,0,0.05,19,0)" xlink:href="#aq"/><use transform="matrix(0.05,0,0,0.05,24,0)" xlink:href="#aa"/><use transform="matrix(0.05,0,0,0.05,29,0)" xlink:href="#as"/><use transform="matrix(0.05,0,0,0.05,38,0)" xlink:href="#am"/><use transform="matrix(0.05,0,0,0.05,43.95,0)" xlink:href="#af"/><use transform="matrix(0.05,0,0,0.05,53.95,0)" xlink:href="#Z"/><use transform="matrix(0.05,0,0,0.05,63.95,0)" xlink:href="#aq"/><use transform="matrix(0.05,0,0,0.05,68.95,0)" xlink:href="#af"/><use transform="matrix(0.05,0,0,0.05,78.95,0)" xlink:href="#ar"/></g><g id="N"><use transform="matrix(0.05,0,0,0.05,0,0)" xlink:href="#ar"/><use transform="matrix(0.05,0,0,0.05,10,0)" xlink:href="#as"/><use transform="matrix(0.05,0,0,0.05,19,0)" xlink:href="#aq"/><use transform="matrix(0.05,0,0,0.05,24,0)" xlink:href="#aa"/><use transform="matrix(0.05,0,0,0.05,29,0)" xlink:href="#ap"/><use transform="matrix(0.05,0,0,0.05,32.95,0)" xlink:href="#X"/><use transform="matrix(0.05,0,0,0.05,41.95,0)" xlink:href="#X"/><use transform="matrix(0.05,0,0,0.05,50.95,0)" xlink:href="#aw"/><use transform="matrix(0.05,0,0,0.05,60.95,0)" xlink:href="#af"/><use transform="matrix(0.05,0,0,0.05,70.95,0)" xlink:href="#ar"/></g><g id="O"><use transform="matrix(0.05,0,0,0.05,0,0)" xlink:href="#ar"/><use transform="matrix(0.05,0,0,0.05,10,0)" xlink:href="#as"/><use transform="matrix(0.05,0,0,0.05,19,0)" xlink:href="#Z"/><use transform="matrix(0.05,0,0,0.05,29,0)" xlink:href="#aq"/><use transform="matrix(0.05,0,0,0.05,34,0)" xlink:href="#aa"/><use transform="matrix(0.05,0,0,0.05,39,0)" xlink:href="#bb"/><use transform="matrix(0.05,0,0,0.05,51.95,0)" xlink:href="#Z"/><use transform="matrix(0.05,0,0,0.05,61.95,0)" xlink:href="#aq"/><use transform="matrix(0.05,0,0,0.05,66.95,0)" xlink:href="#Z"/><use transform="matrix(0.05,0,0,0.05,76.95,0)" xlink:href="#X"/><use transform="matrix(0.05,0,0,0.05,85.95,0)" xlink:href="#af"/><use transform="matrix(0.05,0,0,0.05,95.95,0)" xlink:href="#aq"/></g><g id="P"><use transform="matrix(0.05,0,0,0.05,0,0)" xlink:href="#X"/><use transform="matrix(0.05,0,0,0.05,9,0)" xlink:href="#Y"/><use transform="matrix(0.05,0,0,0.05,19,0)" xlink:href="#X"/><use transform="matrix(0.05,0,0,0.05,28,0)" xlink:href="#Z"/><use transform="matrix(0.05,0,0,0.05,38,0)" xlink:href="#aa"/><use transform="matrix(0.05,0,0,0.05,43,0)" xlink:href="#ay"/><use transform="matrix(0.05,0,0,0.05,53,0)" xlink:href="#Z"/><use transform="matrix(0.05,0,0,0.05,63,0)" xlink:href="#X"/><use transform="matrix(0.05,0,0,0.05,72,0)" xlink:href="#bk"/><use transform="matrix(0.05,0,0,0.05,84.95,0)" xlink:href="#af"/><use transform="matrix(0.05,0,0,0.05,94.95,0)" xlink:href="#X"/><use transform="matrix(0.05,0,0,0.05,103.95,0)" xlink:href="#aw"/><use transform="matrix(0.05,0,0,0.05,113.95,0)" xlink:href="#ae"/><use transform="matrix(0.05,0,0,0.05,117.9,0)" xlink:href="#aq"/><use transform="matrix(0.05,0,0,0.05,122.9,0)" xlink:href="#aA"/><use transform="matrix(0.05,0,0,0.05,133.2,0)" xlink:href="#ap"/><use transform="matrix(0.05,0,0,0.05,137.14999999999998,0)" xlink:href="#ac"/><use transform="matrix(0.05,0,0,0.05,152.09999999999997,0)" xlink:href="#af"/></g><g id="Q"><use transform="matrix(0.05,0,0,0.05,0,0)" xlink:href="#ar"/><use transform="matrix(0.05,0,0,0.05,10,0)" xlink:href="#as"/><use transform="matrix(0.05,0,0,0.05,19,0)" xlink:href="#Z"/><use transform="matrix(0.05,0,0,0.05,29,0)" xlink:href="#aq"/><use transform="matrix(0.05,0,0,0.05,34,0)" xlink:href="#aa"/><use transform="matrix(0.05,0,0,0.05,39,0)" xlink:href="#bb"/><use transform="matrix(0.05,0,0,0.05,51.95,0)" xlink:href="#ap"/><use transform="matrix(0.05,0,0,0.05,55.900000000000006,0)" xlink:href="#X"/><use transform="matrix(0.05,0,0,0.05,64.9,0)" xlink:href="#aq"/><use transform="matrix(0.05,0,0,0.05,69.9,0)" xlink:href="#am"/><use transform="matrix(0.05,0,0,0.05,75.85000000000001,0)" xlink:href="#ap"/><use transform="matrix(0.05,0,0,0.05,79.80000000000001,0)" xlink:href="#ax"/><use transform="matrix(0.05,0,0,0.05,89.80000000000001,0)" xlink:href="#aw"/><use transform="matrix(0.05,0,0,0.05,99.80000000000001,0)" xlink:href="#aq"/><use transform="matrix(0.05,0,0,0.05,104.80000000000001,0)" xlink:href="#ap"/><use transform="matrix(0.05,0,0,0.05,108.75,0)" xlink:href="#Y"/><use transform="matrix(0.05,0,0,0.05,118.75,0)" xlink:href="#ao"/></g><g id="R"><use transform="matrix(0.05,0,0,0.05,0,0)" xlink:href="#ar"/><use transform="matrix(0.05,0,0,0.05,10,0)" xlink:href="#as"/><use transform="matrix(0.05,0,0,0.05,19,0)" xlink:href="#Z"/><use transform="matrix(0.05,0,0,0.05,29,0)" xlink:href="#aq"/><use transform="matrix(0.05,0,0,0.05,34,0)" xlink:href="#aa"/><use transform="matrix(0.05,0,0,0.05,39,0)" xlink:href="#ar"/><use transform="matrix(0.05,0,0,0.05,49,0)" xlink:href="#ap"/><use transform="matrix(0.05,0,0,0.05,52.95,0)" xlink:href="#X"/><use transform="matrix(0.05,0,0,0.05,61.95,0)" xlink:href="#aq"/><use transform="matrix(0.05,0,0,0.05,66.95,0)" xlink:href="#am"/><use transform="matrix(0.05,0,0,0.05,72.9,0)" xlink:href="#ap"/><use transform="matrix(0.05,0,0,0.05,76.85000000000001,0)" xlink:href="#ax"/><use transform="matrix(0.05,0,0,0.05,86.85000000000001,0)" xlink:href="#aw"/><use transform="matrix(0.05,0,0,0.05,96.85000000000001,0)" xlink:href="#aq"/><use transform="matrix(0.05,0,0,0.05,101.85000000000001,0)" xlink:href="#ap"/><use transform="matrix(0.05,0,0,0.05,105.80000000000001,0)" xlink:href="#Y"/><use transform="matrix(0.05,0,0,0.05,115.80000000000001,0)" xlink:href="#ao"/></g><path d="M63-220v92h138v28H63V0H30v-248h175v28H63" id="bl"/><g id="S"><use transform="matrix(0.05,0,0,0.05,0,0)" xlink:href="#bl"/><use transform="matrix(0.05,0,0,0.05,10.950000000000001,0)" xlink:href="#af"/><use transform="matrix(0.05,0,0,0.05,20.950000000000003,0)" xlink:href="#Z"/><use transform="matrix(0.05,0,0,0.05,30.950000000000003,0)" xlink:href="#aq"/><use transform="matrix(0.05,0,0,0.05,35.95,0)" xlink:href="#aw"/><use transform="matrix(0.05,0,0,0.05,45.95,0)" xlink:href="#am"/><use transform="matrix(0.05,0,0,0.05,51.900000000000006,0)" xlink:href="#af"/><use transform="matrix(0.05,0,0,0.05,61.900000000000006,0)" xlink:href="#al"/><use transform="matrix(0.05,0,0,0.05,75.9,0)" xlink:href="#aT"/><use transform="matrix(0.05,0,0,0.05,80.9,0)" xlink:href="#aH"/><use transform="matrix(0.05,0,0,0.05,85.9,0)" xlink:href="#ao"/><use transform="matrix(0.05,0,0,0.05,95.9,0)" xlink:href="#aq"/><use transform="matrix(0.05,0,0,0.05,100.9,0)" xlink:href="#af"/><use transform="matrix(0.05,0,0,0.05,110.9,0)" xlink:href="#am"/><use transform="matrix(0.05,0,0,0.05,116.85000000000001,0)" xlink:href="#af"/><use transform="matrix(0.05,0,0,0.05,126.85000000000001,0)" xlink:href="#X"/><use transform="matrix(0.05,0,0,0.05,135.85000000000002,0)" xlink:href="#aq"/></g><g id="T"><use transform="matrix(0.05,0,0,0.05,0,0)" xlink:href="#X"/><use transform="matrix(0.05,0,0,0.05,9,0)" xlink:href="#Y"/><use transform="matrix(0.05,0,0,0.05,19,0)" xlink:href="#X"/><use transform="matrix(0.05,0,0,0.05,28,0)" xlink:href="#Z"/><use transform="matrix(0.05,0,0,0.05,38,0)" xlink:href="#bf"/><use transform="matrix(0.05,0,0,0.05,43.95,0)" xlink:href="#af"/><use transform="matrix(0.05,0,0,0.05,53.95,0)" xlink:href="#aB"/><use transform="matrix(0.05,0,0,0.05,62.95,0)" xlink:href="#aq"/><use transform="matrix(0.05,0,0,0.05,67.95,0)" xlink:href="#aa"/></g><path d="M232-93c-1 65-40 97-104 97C67 4 28-28 28-90v-158h33c8 89-33 224 67 224 102 0 64-133 71-224h33v155" id="bm"/><g id="U"><use transform="matrix(0.05,0,0,0.05,0,0)" xlink:href="#ay"/><use transform="matrix(0.05,0,0,0.05,10,0)" xlink:href="#Z"/><use transform="matrix(0.05,0,0,0.05,20,0)" xlink:href="#X"/><use transform="matrix(0.05,0,0,0.05,29,0)" xlink:href="#bm"/><use transform="matrix(0.05,0,0,0.05,41.95,0)" xlink:href="#ae"/><use transform="matrix(0.05,0,0,0.05,45.900000000000006,0)" xlink:href="#aq"/><use transform="matrix(0.05,0,0,0.05,50.900000000000006,0)" xlink:href="#ap"/><use transform="matrix(0.05,0,0,0.05,54.85,0)" xlink:href="#ac"/><use transform="matrix(0.05,0,0,0.05,69.80000000000001,0)" xlink:href="#Z"/><use transform="matrix(0.05,0,0,0.05,79.80000000000001,0)" xlink:href="#aq"/><use transform="matrix(0.05,0,0,0.05,84.80000000000001,0)" xlink:href="#af"/><use transform="matrix(0.05,0,0,0.05,94.80000000000001,0)" xlink:href="#bl"/><use transform="matrix(0.05,0,0,0.05,105.75,0)" xlink:href="#af"/><use transform="matrix(0.05,0,0,0.05,115.75,0)" xlink:href="#Z"/><use transform="matrix(0.05,0,0,0.05,125.75,0)" xlink:href="#aq"/><use transform="matrix(0.05,0,0,0.05,130.75,0)" xlink:href="#aw"/><use transform="matrix(0.05,0,0,0.05,140.75,0)" xlink:href="#am"/><use transform="matrix(0.05,0,0,0.05,146.7,0)" xlink:href="#af"/><use transform="matrix(0.05,0,0,0.05,156.7,0)" xlink:href="#al"/><use transform="matrix(0.05,0,0,0.05,170.7,0)" xlink:href="#aT"/><use transform="matrix(0.05,0,0,0.05,175.7,0)" xlink:href="#aH"/><use transform="matrix(0.05,0,0,0.05,180.7,0)" xlink:href="#ao"/><use transform="matrix(0.05,0,0,0.05,190.7,0)" xlink:href="#aq"/><use transform="matrix(0.05,0,0,0.05,195.7,0)" xlink:href="#af"/><use transform="matrix(0.05,0,0,0.05,205.69999999999996,0)" xlink:href="#am"/><use transform="matrix(0.05,0,0,0.05,211.64999999999998,0)" xlink:href="#af"/><use transform="matrix(0.05,0,0,0.05,221.64999999999998,0)" xlink:href="#X"/><use transform="matrix(0.05,0,0,0.05,230.64999999999998,0)" xlink:href="#aq"/></g><path d="M30 0v-248h33v221h125V0H30" id="bn"/><g id="V"><use transform="matrix(0.05,0,0,0.05,0,0)" xlink:href="#aB"/><use transform="matrix(0.05,0,0,0.05,9,0)" xlink:href="#X"/><use transform="matrix(0.05,0,0,0.05,18,0)" xlink:href="#ar"/><use transform="matrix(0.05,0,0,0.05,28,0)" xlink:href="#aa"/><use transform="matrix(0.05,0,0,0.05,33,0)" xlink:href="#Z"/><use transform="matrix(0.05,0,0,0.05,43,0)" xlink:href="#ao"/><use transform="matrix(0.05,0,0,0.05,53,0)" xlink:href="#aU"/><use transform="matrix(0.05,0,0,0.05,62,0)" xlink:href="#bm"/><use transform="matrix(0.05,0,0,0.05,74.95,0)" xlink:href="#bk"/><use transform="matrix(0.05,0,0,0.05,87.9,0)" xlink:href="#bn"/></g><g id="W"><use transform="matrix(0.05,0,0,0.05,0,0)" xlink:href="#ar"/><use transform="matrix(0.05,0,0,0.05,10,0)" xlink:href="#as"/><use transform="matrix(0.05,0,0,0.05,19,0)" xlink:href="#Z"/><use transform="matrix(0.05,0,0,0.05,29,0)" xlink:href="#aq"/><use transform="matrix(0.05,0,0,0.05,34,0)" xlink:href="#aa"/><use transform="matrix(0.05,0,0,0.05,39,0)" xlink:href="#ar"/><use transform="matrix(0.05,0,0,0.05,49,0)" xlink:href="#Y"/><use transform="matrix(0.05,0,0,0.05,59,0)" xlink:href="#bd"/><use transform="matrix(0.05,0,0,0.05,71.95,0)" xlink:href="#ao"/><use transform="matrix(0.05,0,0,0.05,81.95,0)" xlink:href="#ae"/><use transform="matrix(0.05,0,0,0.05,85.9,0)" xlink:href="#Y"/><use transform="matrix(0.05,0,0,0.05,95.9,0)" xlink:href="#Z"/><use transform="matrix(0.05,0,0,0.05,105.9,0)" xlink:href="#ar"/><use transform="matrix(0.05,0,0,0.05,115.9,0)" xlink:href="#bm"/><use transform="matrix(0.05,0,0,0.05,128.85,0)" xlink:href="#bk"/><use transform="matrix(0.05,0,0,0.05,141.79999999999998,0)" xlink:href="#bn"/></g></defs></g></svg>