<svg xmlns="http://www.w3.org/2000/svg" xmlns:xlink="http://www.w3.org/1999/xlink" xmlns:lucid="lucid" width="1040" height="460"><g transform="translate(2.2852081488042586 2.2852081488042444)" lucid:page-tab-id="0_0"><path d="M0 0h1035.43v732.5H0z" fill="#fff"/><path d="M97.7 182.7c0-2.75 2.25-5 5-5h110c2.78 0 5 2.25 5 5v50c0 2.78-2.22 5-5 5h-110c-2.75 0-5-2.22-5-5z" stroke="#000" stroke-width="2" fill="#fff"/><use xlink:href="#a" transform="matrix(1,0,0,1,105.71479185119574,185.71479185119574) translate(28.5 25.6)"/><path d="M17.7 342.7c0-2.75 2.25-5 5-5h110c2.78 0 5 2.25 5 5v50c0 2.78-2.22 5-5 5h-110c-2.75 0-5-2.22-5-5z" stroke="#000" stroke-width="2" fill="#fff"/><use xlink:href="#b" transform="matrix(1,0,0,1,25.71479185119574,345.71479185119574) translate(1.0749999999999957 25.6)"/><path d="M177.7 342.7c0-2.75 2.25-5 5-5h110c2.78 0 5 2.25 5 5v50c0 2.78-2.22 5-5 5h-110c-2.75 0-5-2.22-5-5z" stroke="#000" stroke-width="2" fill="#fff"/><use xlink:href="#c" transform="matrix(1,0,0,1,185.71479185119574,345.71479185119574) translate(23.525 25.6)"/><path d="M417.7 22.7c0-2.75 2.25-5 5-5h110c2.78 0 5 2.25 5 5v50c0 2.78-2.22 5-5 5h-110c-2.75 0-5-2.22-5-5z" stroke="#000" stroke-width="2" fill="#fff"/><use xlink:href="#d" transform="matrix(1,0,0,1,425.71479185119574,25.714791851195756) translate(29.525 25.6)"/><path d="M657.7 22.7c0-2.75 2.25-5 5-5h110c2.78 0 5 2.25 5 5v50c0 2.78-2.22 5-5 5h-110c-2.75 0-5-2.22-5-5z" stroke="#000" stroke-width="2" fill="#fff"/><use xlink:href="#e" transform="matrix(1,0,0,1,665.7147918511957,25.714791851195756) translate(24.549999999999997 14.799999999999999)"/><use xlink:href="#f" transform="matrix(1,0,0,1,665.7147918511957,25.714791851195756) translate(21.049999999999997 36.4)"/><path d="M897.7 342.7c0-2.75 2.25-5 5-5h110c2.78 0 5 2.25 5 5v50c0 2.78-2.22 5-5 5h-110c-2.75 0-5-2.22-5-5z" stroke="#000" stroke-width="2" fill="#fff"/><use xlink:href="#g" transform="matrix(1,0,0,1,905.7147918511957,345.71479185119574) translate(21.025 25.6)"/><path d="M417.7 182.7c0-2.75 2.25-5 5-5h110c2.78 0 5 2.25 5 5v50c0 2.78-2.22 5-5 5h-110c-2.75 0-5-2.22-5-5z" stroke="#000" stroke-width="2" fill="#fff"/><use xlink:href="#h" transform="matrix(1,0,0,1,425.71479185119574,185.71479185119574) translate(29 25.6)"/><path d="M657.7 182.7c0-2.75 2.25-5 5-5h110c2.78 0 5 2.25 5 5v50c0 2.78-2.22 5-5 5h-110c-2.75 0-5-2.22-5-5z" stroke="#000" stroke-width="2" fill="#fff"/><use xlink:href="#i" transform="matrix(1,0,0,1,665.7147918511957,185.71479185119574) translate(26.549999999999997 25.6)"/><path d="M337.7 342.7c0-2.75 2.25-5 5-5h110c2.78 0 5 2.25 5 5v50c0 2.78-2.22 5-5 5h-110c-2.75 0-5-2.22-5-5z" stroke="#000" stroke-width="2" fill="#fff"/><use xlink:href="#j" transform="matrix(1,0,0,1,345.71479185119574,345.71479185119574) translate(24.025 25.6)"/><path d="M497.7 342.7c0-2.75 2.25-5 5-5h110c2.78 0 5 2.25 5 5v50c0 2.78-2.22 5-5 5h-110c-2.75 0-5-2.22-5-5z" stroke="#000" stroke-width="2" fill="#fff"/><use xlink:href="#k" transform="matrix(1,0,0,1,505.71479185119574,345.71479185119574) translate(3.549999999999997 25.6)"/><path d="M88.36 308.4h2.5l-.33.33-1.87 2.05-1.6 1.94-1.37 1.85-1.2 1.8-1.04 1.74-.9 1.74-.8 1.7-.7 1.74-.6 1.75-.5 1.77-.44 1.83-.34 1.88-.25 1.97-.16 2.06-.03 1.2-2-.04.03-1.27.17-2.16.26-2.06.36-1.98.45-1.92.55-1.88.63-1.84.74-1.82.84-1.8.95-1.83 1.1-1.84 1.25-1.88 1.44-1.93 1.64-2.03 1.22-1.33zM154.4 257l-.68 1.3-1.1 1.84-1.24 1.87-1.44 1.94-1.65 2.02-1.96 2.13-2.32 2.28-2.86 2.54-3.66 2.95-5.2 3.76-15.84 10.03-.15.1v-2.38l14.87-9.4 5.1-3.7 3.6-2.88 2.78-2.48 2.25-2.22 1.87-2.06 1.6-1.93 1.37-1.84 1.2-1.8 1.03-1.74.65-1.24z"/><path d="M78.74 335.7l-.02 1h-2l.02-1.04zM158.2 256.8l-9.02-2.12 7.8-12.82z"/><path d="M159.32 258.1l-11.7-2.76 10.1-16.63zm-8.57-4.07l6.35 1.5-.87-10.52z"/><use xlink:href="#l" transform="matrix(1,0,0,1,88.36415904631302,286.81158720423684) translate(0 14.4)"/><use xlink:href="#m" transform="matrix(1,0,0,1,88.36415904631302,286.81158720423684) translate(17.95 14.4)"/><path d="M228.3 309.47l1.64 2.02 1.44 1.92 1.24 1.87 1.1 1.83.95 1.82.84 1.8.75 1.83.63 1.84.54 1.88.45 1.92.36 2 .26 2.05.16 2.16.03 1.26-2 .04-.04-1.2-.16-2.07-.25-1.96-.34-1.87-.42-1.83-.5-1.77-.6-1.75-.7-1.73-.8-1.7-.9-1.74-1.05-1.74-1.2-1.8-1.36-1.84-1.6-1.94-1.43-1.56h2.7zm-64.84-52.15l1.04 1.75 1.2 1.8 1.36 1.84 1.6 1.94 1.87 2.06 2.25 2.22 2.78 2.48 3.6 2.88 5.1 3.7 15.78 10 .2.1v2.38l-1.27-.8-15.84-10.03-5.2-3.76-3.67-2.95-2.85-2.54-2.3-2.3-1.96-2.12-1.65-2.02-1.45-1.93-1.24-1.86-1.1-1.84-.66-1.3 1.77-.92z"/><path d="M238.72 336.7h-2l-.03-1 2-.04zM166.25 254.68l-9.03 2.13 1.24-14.94z"/><path d="M167.8 255.34l-11.7 2.76 1.6-19.4zm-9.47.18l6.35-1.5-5.48-9z"/><use xlink:href="#l" transform="matrix(1,0,0,1,200.22887880117648,287.61529858341834) translate(0 14.4)"/><use xlink:href="#m" transform="matrix(1,0,0,1,200.22887880117648,287.61529858341834) translate(17.95 14.4)"/><path d="M897.7 182.7c0-2.75 2.25-5 5-5h110c2.78 0 5 2.25 5 5v50c0 2.78-2.22 5-5 5h-110c-2.75 0-5-2.22-5-5z" stroke="#000" stroke-width="2" fill="#fff"/><use xlink:href="#n" transform="matrix(1,0,0,1,905.7147918511957,185.71479185119574) translate(33.025 25.6)"/><path d="M282.3 208.7H219.7v-2h62.57zm115.9 0h-45.06v-2h45.07z"/><path d="M219.74 208.7h-1.03v-2h1.04zM413.48 207.7l-14.27 4.65v-9.27z"/><path d="M416.7 207.7l-18.5 6.03V201.7zm-16.5 3.27l10.04-3.26-10.03-3.24z"/><use xlink:href="#o" transform="matrix(1,0,0,1,282.29127683634584,196.91479185119573) translate(0 14.4)"/><path d="M478.7 175.7h-2V144.4h2zm0-52.92h-2V97.22h2zM478.7 176.7h-2v-1h2zM482.35 96.22h-9.27l4.63-14.27z"/><path d="M483.73 97.22H471.7l6-18.5zm-9.27-2h6.5l-3.25-10.03z"/><use xlink:href="#p" transform="matrix(1,0,0,1,455.2147918511958,122.77803971444361) translate(0 14.4)"/><use xlink:href="#q" transform="matrix(1,0,0,1,455.2147918511958,122.77803971444361) translate(25 14.4)"/><path d="M582.72 48.7h-43v-2h43zm55.5 0h-25.5v-2h25.5z"/><path d="M539.74 48.7h-1.03v-2h1.04zM653.48 47.7l-14.27 4.65v-9.27z"/><path d="M656.7 47.7l-18.5 6.03V41.7zm-16.5 3.27l10.04-3.26-10.03-3.24z"/><use xlink:href="#r" transform="matrix(1,0,0,1,582.7156768423458,36.91479185119576) translate(0 14.4)"/><use xlink:href="#m" transform="matrix(1,0,0,1,582.7156768423458,36.91479185119576) translate(20 14.4)"/><path d="M411.23 306.47h1.6l-.05.04-2.25 2.23-1.87 2.05-1.6 1.94-1.37 1.85-1.2 1.8-1.04 1.74-.9 1.74-.8 1.7-.7 1.74-.6 1.75-.5 1.77-.44 1.83-.34 1.88-.25 1.97-.16 2.06-.03 1.2-2-.04.03-1.27.17-2.16.26-2.06.36-1.98.45-1.92.55-1.88.63-1.84.74-1.82.84-1.8.95-1.83 1.1-1.84 1.25-1.88 1.44-1.93 1.64-2.03 1.95-2.13 2.13-2.1zM474.4 257l-.68 1.3-1.1 1.84-1.24 1.87-1.44 1.94-1.65 2.02-1.96 2.13-2.32 2.28-2.86 2.54-3.66 2.95-5.2 3.76-13.12 8.3v-2.36l12-7.6 5.1-3.7 3.6-2.87 2.77-2.48 2.25-2.22 1.87-2.06 1.6-1.93 1.37-1.84 1.2-1.8 1.03-1.74.65-1.24z"/><path d="M398.74 335.7l-.02 1h-2l.02-1.04zM478.2 256.8l-9.02-2.12 7.8-12.82z"/><path d="M479.32 258.1l-11.7-2.76 10.1-16.63zm-8.57-4.07l6.35 1.5-.87-10.52z"/><use xlink:href="#l" transform="matrix(1,0,0,1,411.2290871093378,284.86779438609517) translate(0 14.4)"/><use xlink:href="#m" transform="matrix(1,0,0,1,411.2290871093378,284.86779438609517) translate(17.95 14.4)"/><path d="M548.3 309.47l1.64 2.02 1.44 1.92 1.24 1.87 1.1 1.83.95 1.82.84 1.8.75 1.83.63 1.84.54 1.88.45 1.92.36 2 .26 2.05.16 2.16.03 1.26-2 .04-.04-1.2-.16-2.07-.25-1.96-.34-1.87-.42-1.83-.5-1.77-.6-1.75-.7-1.73-.8-1.7-.9-1.74-1.05-1.74-1.2-1.8-1.36-1.84-1.6-1.94-1.87-2.05-.53-.52h2.4v-.37zm-64.84-52.15l1.04 1.75 1.2 1.8 1.36 1.84 1.6 1.94 1.87 2.06 2.25 2.22 2.78 2.48 3.6 2.88 5.1 3.7 14.57 9.22v2.37l-15.7-9.94-5.2-3.76-3.67-2.95-2.85-2.54-2.3-2.3-1.96-2.12-1.65-2.02-1.45-1.93-1.24-1.86-1.1-1.84-.66-1.3 1.77-.92z"/><path d="M558.72 336.7h-2l-.03-1 2-.04zM486.25 254.68l-9.03 2.13 1.24-14.94z"/><path d="M487.8 255.34l-11.7 2.76 1.6-19.4zm-9.47.18l6.35-1.5-5.48-9z"/><use xlink:href="#l" transform="matrix(1,0,0,1,518.8299184918928,286.6055036811815) translate(0 14.4)"/><use xlink:href="#s" transform="matrix(1,0,0,1,518.8299184918928,286.6055036811815) translate(17.95 14.4)"/><path d="M575.72 208.7h-36v-2h36zm62.5 0h-18.5v-2h18.5z"/><path d="M539.74 208.7h-1.03v-2h1.04zM653.48 207.7l-14.27 4.65v-9.27z"/><path d="M656.7 207.7l-18.5 6.03V201.7zm-16.5 3.27l10.04-3.26-10.03-3.24z"/><use xlink:href="#t" transform="matrix(1,0,0,1,575.7156768423458,196.91479185119573) translate(0 14.4)"/><use xlink:href="#m" transform="matrix(1,0,0,1,575.7156768423458,196.91479185119573) translate(34 14.4)"/><path d="M788.67 208.7h-8.95v-2h8.95zm89.54 0h-15.53v-2h15.54z"/><path d="M779.74 208.7h-1.03v-2h1.04zM893.48 207.7l-14.27 4.65v-9.27z"/><path d="M896.7 207.7l-18.5 6.03V201.7zm-16.5 3.27l10.04-3.26-10.03-3.24z"/><use xlink:href="#u" transform="matrix(1,0,0,1,788.6739755246651,196.91479185119576) translate(0 14.4)"/><use xlink:href="#v" transform="matrix(1,0,0,1,788.6739755246651,196.91479185119576) translate(55 14.4)"/><path d="M958.7 318.2h-2v-19.68h2zm0-41.28h-2v-37.2h2z"/><path d="M958.7 239.74h-2v-1.03h2zM957.7 333.48l-4.62-14.27h9.27z"/><path d="M957.7 336.7l-6-18.5h12.03zm-3.24-16.5l3.25 10.04 3.27-10.03z"/><g><use xlink:href="#w" transform="matrix(1,0,0,1,932.2397918511957,276.9155268438458) translate(0 14.4)"/><use xlink:href="#x" transform="matrix(1,0,0,1,932.2397918511957,276.9155268438458) translate(35.95 14.4)"/></g><path d="M407.7 397.7h140v40h-140z" fill="#fff" fill-opacity="0"/><g><use xlink:href="#y" transform="matrix(1,0,0,1,412.71479185119574,402.71479185119574) translate(18.074999999999996 19.1)"/><use xlink:href="#z" transform="matrix(1,0,0,1,412.71479185119574,402.71479185119574) translate(44.02499999999999 19.1)"/></g><defs><path d="M205 0l-28-72H64L36 0H1l101-248h38L239 0h-34zm-38-99l-47-123c-12 45-31 82-46 123h93" id="A"/><path d="M177-190C167-65 218 103 67 71c-23-6-38-20-44-43l32-5c15 47 100 32 89-28v-30C133-14 115 1 83 1 29 1 15-40 15-95c0-56 16-97 71-98 29-1 48 16 59 35 1-10 0-23 2-32h30zM94-22c36 0 50-32 50-73 0-42-14-75-50-75-39 0-46 34-46 75s6 73 46 73" id="B"/><path d="M100-194c63 0 86 42 84 106H49c0 40 14 67 53 68 26 1 43-12 49-29l28 8c-11 28-37 45-77 45C44 4 14-33 15-96c1-61 26-98 85-98zm52 81c6-60-76-77-97-28-3 7-6 17-6 28h103" id="C"/><path d="M117-194c89-4 53 116 60 194h-32v-121c0-31-8-49-39-48C34-167 62-67 57 0H25l-1-190h30c1 10-1 24 2 32 11-22 29-35 61-36" id="D"/><path d="M59-47c-2 24 18 29 38 22v24C64 9 27 4 27-40v-127H5v-23h24l9-43h21v43h35v23H59v120" id="E"/><g id="a"><use transform="matrix(0.05,0,0,0.05,0,0)" xlink:href="#A"/><use transform="matrix(0.05,0,0,0.05,12,0)" xlink:href="#B"/><use transform="matrix(0.05,0,0,0.05,22,0)" xlink:href="#C"/><use transform="matrix(0.05,0,0,0.05,32,0)" xlink:href="#D"/><use transform="matrix(0.05,0,0,0.05,42,0)" xlink:href="#E"/></g><path d="M140-251c81 0 123 46 123 126C263-46 219 4 140 4 59 4 17-45 17-125s42-126 123-126zm0 227c63 0 89-41 89-101s-29-99-89-99c-61 0-89 39-89 99S79-25 140-24" id="F"/><path d="M114-163C36-179 61-72 57 0H25l-1-190h30c1 12-1 29 2 39 6-27 23-49 58-41v29" id="G"/><path d="M141-36C126-15 110 5 73 4 37 3 15-17 15-53c-1-64 63-63 125-63 3-35-9-54-41-54-24 1-41 7-42 31l-33-3c5-37 33-52 76-52 45 0 72 20 72 64v82c-1 20 7 32 28 27v20c-31 9-61-2-59-35zM48-53c0 20 12 33 32 33 41-3 63-29 60-74-43 2-92-5-92 41" id="H"/><path d="M24-231v-30h32v30H24zM24 0v-190h32V0H24" id="I"/><path d="M135-143c-3-34-86-38-87 0 15 53 115 12 119 90S17 21 10-45l28-5c4 36 97 45 98 0-10-56-113-15-118-90-4-57 82-63 122-42 12 7 21 19 24 35" id="J"/><path d="M100-194c62-1 85 37 85 99 1 63-27 99-86 99S16-35 15-95c0-66 28-99 85-99zM99-20c44 1 53-31 53-75 0-43-8-75-51-75s-53 32-53 75 10 74 51 75" id="K"/><g id="b"><use transform="matrix(0.05,0,0,0.05,0,0)" xlink:href="#F"/><use transform="matrix(0.05,0,0,0.05,14,0)" xlink:href="#G"/><use transform="matrix(0.05,0,0,0.05,19.95,0)" xlink:href="#B"/><use transform="matrix(0.05,0,0,0.05,29.950000000000003,0)" xlink:href="#H"/><use transform="matrix(0.05,0,0,0.05,39.95,0)" xlink:href="#D"/><use transform="matrix(0.05,0,0,0.05,49.95,0)" xlink:href="#I"/><use transform="matrix(0.05,0,0,0.05,53.900000000000006,0)" xlink:href="#J"/><use transform="matrix(0.05,0,0,0.05,62.900000000000006,0)" xlink:href="#H"/><use transform="matrix(0.05,0,0,0.05,72.9,0)" xlink:href="#E"/><use transform="matrix(0.05,0,0,0.05,77.9,0)" xlink:href="#I"/><use transform="matrix(0.05,0,0,0.05,81.85000000000001,0)" xlink:href="#K"/><use transform="matrix(0.05,0,0,0.05,91.85000000000001,0)" xlink:href="#D"/></g><path d="M30-248c87 1 191-15 191 75 0 78-77 80-158 76V0H30v-248zm33 125c57 0 124 11 124-50 0-59-68-47-124-48v98" id="L"/><g id="c"><use transform="matrix(0.05,0,0,0.05,0,0)" xlink:href="#L"/><use transform="matrix(0.05,0,0,0.05,12,0)" xlink:href="#C"/><use transform="matrix(0.05,0,0,0.05,22,0)" xlink:href="#G"/><use transform="matrix(0.05,0,0,0.05,27.950000000000003,0)" xlink:href="#J"/><use transform="matrix(0.05,0,0,0.05,36.95,0)" xlink:href="#K"/><use transform="matrix(0.05,0,0,0.05,46.95,0)" xlink:href="#D"/></g><path d="M30 0v-248h187v28H63v79h144v27H63v87h162V0H30" id="M"/><path d="M179-190L93 31C79 59 56 82 12 73V49c39 6 53-20 64-50L1-190h34L92-34l54-156h33" id="N"/><g id="d"><use transform="matrix(0.05,0,0,0.05,0,0)" xlink:href="#M"/><use transform="matrix(0.05,0,0,0.05,12,0)" xlink:href="#D"/><use transform="matrix(0.05,0,0,0.05,22,0)" xlink:href="#E"/><use transform="matrix(0.05,0,0,0.05,27,0)" xlink:href="#I"/><use transform="matrix(0.05,0,0,0.05,30.950000000000003,0)" xlink:href="#E"/><use transform="matrix(0.05,0,0,0.05,35.95,0)" xlink:href="#N"/></g><path d="M185-189c-5-48-123-54-124 2 14 75 158 14 163 119 3 78-121 87-175 55-17-10-28-26-33-46l33-7c5 56 141 63 141-1 0-78-155-14-162-118-5-82 145-84 179-34 5 7 8 16 11 25" id="O"/><path d="M115-194c55 1 70 41 70 98S169 2 115 4C84 4 66-9 55-30l1 105H24l-1-265h31l2 30c10-21 28-34 59-34zm-8 174c40 0 45-34 45-75s-6-73-45-74c-42 0-51 32-51 76 0 43 10 73 51 73" id="P"/><path d="M24 0v-261h32V0H24" id="Q"/><g id="e"><use transform="matrix(0.05,0,0,0.05,0,0)" xlink:href="#O"/><use transform="matrix(0.05,0,0,0.05,12,0)" xlink:href="#P"/><use transform="matrix(0.05,0,0,0.05,22,0)" xlink:href="#H"/><use transform="matrix(0.05,0,0,0.05,32,0)" xlink:href="#E"/><use transform="matrix(0.05,0,0,0.05,37,0)" xlink:href="#I"/><use transform="matrix(0.05,0,0,0.05,40.95,0)" xlink:href="#H"/><use transform="matrix(0.05,0,0,0.05,50.95,0)" xlink:href="#Q"/></g><path d="M96-169c-40 0-48 33-48 73s9 75 48 75c24 0 41-14 43-38l32 2c-6 37-31 61-74 61-59 0-76-41-82-99-10-93 101-131 147-64 4 7 5 14 7 22l-32 3c-4-21-16-35-41-35" id="R"/><g id="f"><use transform="matrix(0.05,0,0,0.05,0,0)" xlink:href="#Q"/><use transform="matrix(0.05,0,0,0.05,3.95,0)" xlink:href="#K"/><use transform="matrix(0.05,0,0,0.05,13.949999999999998,0)" xlink:href="#R"/><use transform="matrix(0.05,0,0,0.05,22.95,0)" xlink:href="#H"/><use transform="matrix(0.05,0,0,0.05,32.95,0)" xlink:href="#E"/><use transform="matrix(0.05,0,0,0.05,37.95,0)" xlink:href="#I"/><use transform="matrix(0.05,0,0,0.05,41.900000000000006,0)" xlink:href="#K"/><use transform="matrix(0.05,0,0,0.05,51.900000000000006,0)" xlink:href="#D"/></g><path d="M30-248c118-7 216 8 213 122C240-48 200 0 122 0H30v-248zM63-27c89 8 146-16 146-99s-60-101-146-95v194" id="S"/><g id="g"><use transform="matrix(0.05,0,0,0.05,0,0)" xlink:href="#S"/><use transform="matrix(0.05,0,0,0.05,12.950000000000001,0)" xlink:href="#H"/><use transform="matrix(0.05,0,0,0.05,22.950000000000003,0)" xlink:href="#E"/><use transform="matrix(0.05,0,0,0.05,27.950000000000003,0)" xlink:href="#H"/><use transform="matrix(0.05,0,0,0.05,37.95,0)" xlink:href="#J"/><use transform="matrix(0.05,0,0,0.05,46.95,0)" xlink:href="#C"/><use transform="matrix(0.05,0,0,0.05,56.95,0)" xlink:href="#E"/></g><path d="M108 0H70L1-190h34L89-25l56-165h34" id="T"/><g id="h"><use transform="matrix(0.05,0,0,0.05,0,0)" xlink:href="#M"/><use transform="matrix(0.05,0,0,0.05,12,0)" xlink:href="#T"/><use transform="matrix(0.05,0,0,0.05,21,0)" xlink:href="#C"/><use transform="matrix(0.05,0,0,0.05,31,0)" xlink:href="#D"/><use transform="matrix(0.05,0,0,0.05,41,0)" xlink:href="#E"/></g><path d="M233-177c-1 41-23 64-60 70L243 0h-38l-65-103H63V0H30v-248c88 3 205-21 203 71zM63-129c60-2 137 13 137-47 0-61-80-42-137-45v92" id="U"/><path d="M84 4C-5 8 30-112 23-190h32v120c0 31 7 50 39 49 72-2 45-101 50-169h31l1 190h-30c-1-10 1-25-2-33-11 22-28 36-60 37" id="V"/><g id="i"><use transform="matrix(0.05,0,0,0.05,0,0)" xlink:href="#U"/><use transform="matrix(0.05,0,0,0.05,12.950000000000001,0)" xlink:href="#C"/><use transform="matrix(0.05,0,0,0.05,22.950000000000003,0)" xlink:href="#J"/><use transform="matrix(0.05,0,0,0.05,31.950000000000003,0)" xlink:href="#V"/><use transform="matrix(0.05,0,0,0.05,41.95,0)" xlink:href="#Q"/><use transform="matrix(0.05,0,0,0.05,45.900000000000006,0)" xlink:href="#E"/></g><g id="j"><use transform="matrix(0.05,0,0,0.05,0,0)" xlink:href="#O"/><use transform="matrix(0.05,0,0,0.05,12,0)" xlink:href="#V"/><use transform="matrix(0.05,0,0,0.05,22,0)" xlink:href="#G"/><use transform="matrix(0.05,0,0,0.05,27.950000000000003,0)" xlink:href="#T"/><use transform="matrix(0.05,0,0,0.05,36.95,0)" xlink:href="#C"/><use transform="matrix(0.05,0,0,0.05,46.95,0)" xlink:href="#N"/></g><path d="M115-194c53 0 69 39 70 98 0 66-23 100-70 100C84 3 66-7 56-30L54 0H23l1-261h32v101c10-23 28-34 59-34zm-8 174c40 0 45-34 45-75 0-40-5-75-45-74-42 0-51 32-51 76 0 43 10 73 51 73" id="W"/><g id="k"><use transform="matrix(0.05,0,0,0.05,0,0)" xlink:href="#F"/><use transform="matrix(0.05,0,0,0.05,14,0)" xlink:href="#W"/><use transform="matrix(0.05,0,0,0.05,24,0)" xlink:href="#J"/><use transform="matrix(0.05,0,0,0.05,33,0)" xlink:href="#C"/><use transform="matrix(0.05,0,0,0.05,43,0)" xlink:href="#G"/><use transform="matrix(0.05,0,0,0.05,48.95,0)" xlink:href="#T"/><use transform="matrix(0.05,0,0,0.05,57.95,0)" xlink:href="#H"/><use transform="matrix(0.05,0,0,0.05,67.95,0)" xlink:href="#E"/><use transform="matrix(0.05,0,0,0.05,72.95,0)" xlink:href="#I"/><use transform="matrix(0.05,0,0,0.05,76.9,0)" xlink:href="#K"/><use transform="matrix(0.05,0,0,0.05,86.9,0)" xlink:href="#D"/></g><g id="l"><use transform="matrix(0.05,0,0,0.05,0,0)" xlink:href="#I"/><use transform="matrix(0.05,0,0,0.05,3.95,0)" xlink:href="#J"/></g><use transform="matrix(0.05,0,0,0.05,0,0)" xlink:href="#H" id="m"/><g id="n"><use transform="matrix(0.05,0,0,0.05,0,0)" xlink:href="#S"/><use transform="matrix(0.05,0,0,0.05,12.950000000000001,0)" xlink:href="#H"/><use transform="matrix(0.05,0,0,0.05,22.950000000000003,0)" xlink:href="#E"/><use transform="matrix(0.05,0,0,0.05,27.950000000000003,0)" xlink:href="#H"/></g><path d="M101-234c-31-9-42 10-38 44h38v23H63V0H32v-167H5v-23h27c-7-52 17-82 69-68v24" id="X"/><path d="M210-169c-67 3-38 105-44 169h-31v-121c0-29-5-50-35-48C34-165 62-65 56 0H25l-1-190h30c1 10-1 24 2 32 10-44 99-50 107 0 11-21 27-35 58-36 85-2 47 119 55 194h-31v-121c0-29-5-49-35-48" id="Y"/><g id="o"><use transform="matrix(0.05,0,0,0.05,0,0)" xlink:href="#P"/><use transform="matrix(0.05,0,0,0.05,10,0)" xlink:href="#C"/><use transform="matrix(0.05,0,0,0.05,20,0)" xlink:href="#G"/><use transform="matrix(0.05,0,0,0.05,25.950000000000003,0)" xlink:href="#X"/><use transform="matrix(0.05,0,0,0.05,30.950000000000003,0)" xlink:href="#K"/><use transform="matrix(0.05,0,0,0.05,40.95,0)" xlink:href="#G"/><use transform="matrix(0.05,0,0,0.05,46.900000000000006,0)" xlink:href="#Y"/><use transform="matrix(0.05,0,0,0.05,61.85,0)" xlink:href="#J"/></g><g id="p"><use transform="matrix(0.05,0,0,0.05,0,0)" xlink:href="#K"/><use transform="matrix(0.05,0,0,0.05,10,0)" xlink:href="#D"/></g><g id="q"><use transform="matrix(0.05,0,0,0.05,0,0)" xlink:href="#H"/><use transform="matrix(0.05,0,0,0.05,10,0)" xlink:href="#D"/></g><g id="r"><use transform="matrix(0.05,0,0,0.05,0,0)" xlink:href="#H"/><use transform="matrix(0.05,0,0,0.05,10,0)" xlink:href="#E"/></g><use transform="matrix(0.05,0,0,0.05,0,0)" xlink:href="#H" id="s"/><path d="M106-169C34-169 62-67 57 0H25v-261h32l-1 103c12-21 28-36 61-36 89 0 53 116 60 194h-32v-121c2-32-8-49-39-48" id="Z"/><g id="t"><use transform="matrix(0.05,0,0,0.05,0,0)" xlink:href="#Z"/><use transform="matrix(0.05,0,0,0.05,10,0)" xlink:href="#H"/><use transform="matrix(0.05,0,0,0.05,20,0)" xlink:href="#J"/></g><g id="u"><use transform="matrix(0.05,0,0,0.05,0,0)" xlink:href="#K"/><use transform="matrix(0.05,0,0,0.05,10,0)" xlink:href="#V"/><use transform="matrix(0.05,0,0,0.05,20,0)" xlink:href="#P"/><use transform="matrix(0.05,0,0,0.05,30,0)" xlink:href="#E"/><use transform="matrix(0.05,0,0,0.05,35,0)" xlink:href="#V"/><use transform="matrix(0.05,0,0,0.05,45,0)" xlink:href="#E"/></g><g id="v"><use transform="matrix(0.05,0,0,0.05,0,0)" xlink:href="#H"/><use transform="matrix(0.05,0,0,0.05,10,0)" xlink:href="#J"/></g><g id="w"><use transform="matrix(0.05,0,0,0.05,0,0)" xlink:href="#P"/><use transform="matrix(0.05,0,0,0.05,10,0)" xlink:href="#H"/><use transform="matrix(0.05,0,0,0.05,20,0)" xlink:href="#G"/><use transform="matrix(0.05,0,0,0.05,25.950000000000003,0)" xlink:href="#E"/></g><g id="x"><use transform="matrix(0.05,0,0,0.05,0,0)" xlink:href="#K"/><use transform="matrix(0.05,0,0,0.05,10,0)" xlink:href="#X"/></g><path d="M76-167L44 0H12l33-167H18l4-23h27c3-47 25-81 82-69l-4 24c-35-8-44 15-46 45h37l-5 23H76" id="aa"/><path d="M30-147c31-64 166-65 159 27C183-49 158 1 86 4 9 8 1-88 30-147zM88-20c53 0 68-48 68-100 0-31-11-51-44-50-52 1-68 46-68 97 0 32 13 53 44 53" id="ab"/><path d="M66-151c12-25 30-51 66-40l-6 26C45-176 58-65 38 0H6l36-190h30" id="ac"/><g id="y"><use transform="matrix(0.05,0,0,0.05,0,0)" xlink:href="#aa"/><use transform="matrix(0.05,0,0,0.05,5,0)" xlink:href="#ab"/><use transform="matrix(0.05,0,0,0.05,15,0)" xlink:href="#ac"/></g><path d="M111-194c62-3 86 47 72 106H45c-7 38 6 69 45 68 27-1 43-14 53-32l24 11C152-15 129 4 87 4 38 3 12-23 12-71c0-70 32-119 99-123zm44 81c14-66-71-72-95-28-4 8-8 17-11 28h106" id="ad"/><path d="M124 0L87-78 21 0h-35l86-98-46-92h33l34 74 61-74h37l-83 92 50 98h-34" id="ae"/><path d="M165-48c-4 18 1 34 23 27l-3 20c-29 8-62 0-52-35h-2C116-14 99 4 63 4 30 4 8-16 8-49c0-68 71-67 138-67 10-26 0-56-31-54-26 1-42 9-47 31l-32-5c8-67 160-71 144 15-5 28-9 54-15 81zM42-50c3 52 80 24 89-6 7-12 7-24 11-38-47 1-103-4-100 44" id="af"/><path d="M248-111c6-24 9-61-24-58-72 9-57 108-77 169h-31l26-142c3-37-50-30-64-10C52-115 50-51 37 0H6l36-190h30c-1 10-6 24-4 32 13-43 101-52 105 5 13-22 29-41 61-41 90 0 28 129 23 194h-31" id="ag"/><path d="M67-162c32-53 139-36 121 50C175-51 163 2 97 4 68 4 52-11 42-31 38 6 28 39 22 75H-9l50-265h29c-1 10 0 20-3 28zm89 36c0-26-10-43-35-43-54 0-67 50-69 103-1 29 14 45 42 46 53 0 62-58 62-106" id="ah"/><path d="M6 0l50-261h32L37 0H6" id="ai"/><g id="z"><use transform="matrix(0.05,0,0,0.05,0,0)" xlink:href="#ad"/><use transform="matrix(0.05,0,0,0.05,10,0)" xlink:href="#ae"/><use transform="matrix(0.05,0,0,0.05,19,0)" xlink:href="#af"/><use transform="matrix(0.05,0,0,0.05,29,0)" xlink:href="#ag"/><use transform="matrix(0.05,0,0,0.05,43.95,0)" xlink:href="#ah"/><use transform="matrix(0.05,0,0,0.05,53.95,0)" xlink:href="#ai"/><use transform="matrix(0.05,0,0,0.05,57.900000000000006,0)" xlink:href="#ad"/></g></defs></g></svg>